<svg width="300" height="246" viewBox="0 0 300 246" fill="none" xmlns="http://www.w3.org/2000/svg">
<g clip-path="url(#clip0_1_89)">
<mask id="mask0_1_89" style="mask-type:luminance" maskUnits="userSpaceOnUse" x="0" y="0" width="300" height="300">
<path d="M300 0H0V300H300V0Z" fill="white"/>
</mask>
<g mask="url(#mask0_1_89)">
<path d="M142.678 182.202C142.167 181.777 141.552 181.972 139.781 181.158C139.437 181.001 138.536 180.751 138.132 180.67C138.057 180.655 137.997 180.599 137.977 180.524C137.434 178.491 135.055 169.089 134.79 166.377C134.518 163.604 132.7 151.848 132.423 150.06C132.403 149.939 132.283 149.862 132.164 149.896L127.028 151.341C126.923 151.371 126.859 151.477 126.883 151.584C127.204 152.985 129.201 161.782 129.793 166.235C130.264 169.786 135.583 181.165 135.691 181.893C135.692 181.9 135.693 181.906 135.694 181.913C135.726 182.132 135.914 182.294 136.136 182.293C137.441 182.29 141.625 182.279 141.864 182.28C142.082 182.28 142.838 182.334 142.678 182.202Z" fill="#F49185"/>
<path d="M131.166 145.588C128.431 137.291 125.373 137.645 125.373 137.645L127.738 155.087C129.427 154.626 131.626 153.597 133.313 153.121C132.754 150.498 131.84 147.631 131.166 145.588Z" fill="#1F4163"/>
<path d="M130.422 124.085C129.638 118.62 124.74 114.648 119.551 117.245C118.385 117.829 116.801 119.022 115.989 120.043C113.793 122.805 113.205 126.236 110.939 128.916C111.755 129.548 112.744 130.212 113.922 130.853L115.335 129.007L114.832 131.322C118.282 133.015 123.163 134.432 129.858 134.459C130.737 130.676 130.839 127 130.422 124.085Z" fill="#F47B60"/>
<path d="M131.848 244.963C131.06 244.382 130.424 243.998 127.907 242.777C127.743 242.698 127.146 242.317 126.93 242.185C126.384 241.85 125.835 241.325 125.362 240.797C124.911 240.294 124.696 238.68 124.594 237.394C124.853 234.522 129.016 188.454 129.894 183.466C130.8 178.319 129.42 170.466 129.42 170.466L126.206 169.255L120.106 190.396L120.587 206.49C120.587 206.49 119.153 211.129 118.972 213.901C118.791 216.673 121.045 239.173 121.045 239.173C121.045 239.978 121.014 240.705 120.925 241.16C120.759 242.001 119.837 243.734 120.26 244.526C120.683 245.318 121.166 245.516 121.166 245.516L132.127 245.693C132.724 245.703 132.33 245.317 131.848 244.963Z" fill="#F49185"/>
<path d="M115.213 168.815C115.213 168.815 111.407 174.557 110.501 179.309C109.594 184.061 111.166 198.664 109.423 204.891C108.479 208.262 104.902 213.468 104.358 217.823C103.815 222.179 101.923 234.752 101.923 234.752C101.636 236.071 101.188 237.704 100.607 238.463C100.25 238.927 99.5994 239.515 99.1723 240.355C98.5072 241.662 98.8752 243.607 99.3656 244.679C99.617 245.228 99.3475 245.227 99.9211 245.404C101.619 245.929 103.424 245.046 104.147 243.416C104.551 242.505 104.905 241.291 104.977 239.761C105.052 238.139 105.306 236.851 105.576 235.897L117.742 206.054L126.55 180.298L128.806 167.034L115.213 168.815Z" fill="#F7A192"/>
<path d="M104.477 242.558C101.844 243.039 100.092 241.495 99.1799 240.34C98.5107 241.649 98.185 243.604 98.6771 244.679C99.1107 245.626 100.378 245.599 101.375 245.636C102.43 245.675 103.246 245.088 103.769 244.168C104.013 243.738 104.266 243.202 104.477 242.558Z" fill="#8CB5F2"/>
<path d="M126.928 242.186C124.029 242.931 121.887 242.423 120.688 241.939C120.379 242.817 119.969 243.919 120.186 244.554C120.452 245.331 120.831 245.508 121.166 245.517C123.814 245.587 130.865 245.681 132.884 245.708C133.165 245.712 133.321 245.381 133.14 245.164C132.639 244.565 127.144 242.318 126.928 242.186Z" fill="#8CB5F2"/>
<path d="M117.681 205.491C117.908 205.506 118.137 205.521 118.368 205.535C118.379 205.536 118.391 205.536 118.403 205.537C118.629 205.55 118.856 205.564 119.083 205.576C119.097 205.576 119.111 205.576 119.125 205.577C119.353 205.589 119.581 205.6 119.81 205.61C119.822 205.61 119.834 205.611 119.845 205.611C120.078 205.621 120.311 205.63 120.545 205.638C123.143 205.723 126.353 205.69 128.412 205.339C129.461 194.831 129.853 185.241 130.241 183.118C131.183 177.97 129.42 169.844 129.42 169.844L128.578 169.693L129.11 166.685L114.974 168.467C114.974 168.467 111.016 174.208 110.074 178.96C109.131 183.712 110.766 198.315 108.953 204.543C108.953 204.543 112.988 205.171 117.681 205.491Z" fill="#59C2A9"/>
<path d="M118.382 136.134C118.382 136.134 113.943 135.542 111.944 137.715C109.945 139.888 115.718 157.39 116.073 160.163C116.429 162.936 114.201 170.301 114.201 170.301C114.201 170.301 126.033 172.717 129.422 170.482C129.422 170.482 129.834 150.551 129.476 148.569C129.119 146.588 126.118 138.529 125.395 137.735C124.672 136.941 118.382 136.134 118.382 136.134Z" fill="#3F5B8F"/>
<path d="M120.116 129.386C120.116 129.386 120.089 129.535 120.041 129.787C119.808 131 118.916 135.022 118.324 136.126C117.609 137.46 120.705 141.749 123.716 141.248C124.612 141.098 122.985 137.321 123.067 136.923C123.224 136.16 123.437 135.119 123.655 134.052C123.778 133.45 123.902 132.84 124.019 132.267C124.352 130.636 124.623 129.303 124.623 129.303L120.116 129.386Z" fill="#F7A896"/>
<path d="M120.041 129.787C120.089 129.535 120.116 129.386 120.116 129.386L124.624 129.303C124.624 129.303 124.352 130.636 124.02 132.266C123.904 132.837 123.779 133.443 123.657 134.042C122.962 133.935 122.237 133.591 121.513 132.947C120.723 132.244 120.207 131.403 119.899 130.507C119.956 130.221 120.004 129.975 120.041 129.787Z" fill="#F47B60"/>
<path d="M123.217 119.139C123.217 119.139 121.094 118.879 119.751 120.597C118.408 122.314 116.938 127.642 120.226 130.566C123.515 133.489 126.805 130.226 127.312 126.746C127.82 123.267 128.037 119.045 123.217 119.139Z" fill="#F7A896"/>
<path d="M128.291 126.701C127.891 127.468 127.226 127.89 126.805 127.644C126.384 127.396 126.367 126.575 126.767 125.809C127.166 125.042 127.832 124.62 128.253 124.868C128.674 125.114 128.691 125.935 128.291 126.701Z" fill="#F7A896"/>
<path d="M123.458 118.57C123.458 118.57 120.587 123.628 118.555 123.849C116.523 124.07 116.239 126.765 116.239 126.765C116.239 126.765 117.006 120.555 119.024 119.369C121.041 118.185 123.458 118.57 123.458 118.57Z" fill="#F47B60"/>
<path d="M119.079 125.127C119.239 126.029 118.901 126.854 118.325 126.968C117.75 127.083 117.155 126.444 116.995 125.541C116.836 124.639 117.174 123.815 117.749 123.7C118.325 123.585 118.92 124.225 119.079 125.127Z" fill="#F7A896"/>
<path d="M121.558 128.418L124.625 129.043C124.625 129.043 124.317 130.193 122.96 129.957C121.306 129.67 121.558 128.418 121.558 128.418Z" fill="white"/>
<path d="M89.3777 153.447C89.1936 153.001 91.386 152.512 91.4786 152.046C91.5713 151.579 88.6582 151.703 88.5318 151.304C88.299 150.57 91.7138 150.973 91.6285 150.628C91.5427 150.283 88.0415 149.695 88.3827 149.077C88.7238 148.458 91.9493 150.066 92.0217 149.655C92.0946 149.245 88.8875 148.43 88.8956 147.539C88.8999 147.062 94.1993 149.625 94.7817 149.333C95.3646 149.043 94.0038 146.877 94.4607 146.52C94.917 146.162 96.5474 150.958 96.8838 151.102C97.2196 151.247 104.387 154.833 106.894 155.328C107.149 154.483 109.066 149.974 109.288 149.177C110.73 150.088 112.351 150.215 113.832 151.037C112.937 153.693 109.723 160.289 109.019 160.655C106.872 161.77 97.9748 155.177 96.2098 154.062C94.443 152.946 93.4915 153.392 92.3209 153.073C91.1503 152.754 89.5611 153.893 89.3777 153.447Z" fill="#F7A896"/>
<path d="M113.135 155.673C113.135 155.673 117.77 146.48 117.927 143.269C118.084 140.058 114.902 136.447 112.121 137.052C109.341 137.657 107.037 152.462 107.037 152.462L113.135 155.673Z" fill="#1F4163"/>
<path d="M209.764 180.461L224.629 176.609C224.629 176.609 228.071 170.006 233.124 162.907C234.782 164.544 235.705 167.06 237.374 168.68L227.701 180.916C227.256 181.41 208.636 183.317 208.636 183.317L209.764 180.461Z" fill="#F49185"/>
<path d="M232.704 145.683C232.564 142.863 232.957 140.073 234.198 137.436C235.266 135.167 237.943 133.863 240.394 133.839C248.176 133.766 249.249 144.041 254.235 147.967C255.758 149.167 257.459 150.14 258.902 151.435C264.229 156.219 261.919 165.172 257.097 169.442C253.751 172.405 248.468 174.117 244.296 171.855C242.118 170.674 240.456 168.696 239.265 166.524C237.576 163.44 236.474 159.876 235.264 156.585C233.975 153.082 232.89 149.433 232.704 145.683Z" fill="#F7CE85"/>
<path d="M235.769 171.65C235.769 171.65 241.604 165.658 243.105 163.056C244.606 160.454 242.081 162.149 239.501 161.466C238.523 161.208 238.767 155.482 236.921 157.345C233.893 160.4 230.086 165.741 230.086 165.741L235.769 171.65Z" fill="#9BDACB"/>
<path d="M84.5185 180.249C84.7011 179.975 84.2575 179.501 83.9247 179.146C83.5564 178.752 81.3087 177.746 80.9259 177.624C80.6028 177.521 78.2082 177.806 76.7053 178.136L76.7053 178.135L60.0746 173.901C60.0746 173.901 56.4415 166.896 51.1022 159.361C49.3419 161.092 48.3576 163.756 46.5845 165.469L55.8521 178.172C56.1761 178.533 66.0561 179.756 72.1983 180.484C73.7504 180.669 75.0536 180.82 75.914 180.919C77.1506 181.185 78.0256 181.474 78.1773 181.472C79.0668 181.461 80.7077 180.551 81.0879 180.419C81.4674 180.287 82.2323 180.404 82.7441 180.652C83.2553 180.9 84.7468 181.492 84.9993 181.362C85.2517 181.232 84.5185 180.249 84.5185 180.249Z" fill="#F49185"/>
<path d="M52.2898 172.493C52.2898 172.493 47.5153 166.087 45.7732 163.057C44.031 160.026 46.966 162.003 49.9694 161.213C51.1073 160.913 50.1773 154.704 52.3221 156.874C55.8403 160.434 59.3588 168.138 59.3588 168.138L52.2898 172.493Z" fill="#BA5F4B"/>
<path d="M233.593 102.005H273.336C275.274 102.005 276.846 103.581 276.846 105.526V128.759C276.846 130.703 275.274 132.28 273.336 132.28H245.528C243.74 134.783 240.499 139.266 240.212 139.266C239.944 139.266 240.46 135.032 240.824 132.28H233.593C231.655 132.28 230.084 130.703 230.084 128.759V105.526C230.084 103.581 231.655 102.005 233.593 102.005Z" fill="#CCE2F9"/>
<path d="M53.8646 108.23H14.1791C12.2437 108.23 10.6746 109.804 10.6746 111.746V134.946C10.6746 136.887 12.2437 138.462 14.1791 138.462H41.9478C43.7326 140.961 46.9693 145.437 47.2553 145.437C47.5225 145.437 47.0074 141.209 46.6447 138.462H53.8646C55.8 138.462 57.3685 136.887 57.3685 134.946V111.746C57.3685 109.804 55.8 108.23 53.8646 108.23Z" fill="#CCE2F9"/>
<path d="M124.32 83.8044H84.634C82.6986 83.8044 81.1301 85.3794 81.1301 87.3212V110.52C81.1301 112.462 82.6986 114.037 84.634 114.037H112.403C114.188 116.537 117.424 121.013 117.71 121.013C117.977 121.013 117.463 116.785 117.1 114.037H124.32C126.255 114.037 127.823 112.462 127.823 110.52V87.3212C127.823 85.3794 126.255 83.8044 124.32 83.8044Z" fill="#9BDACB"/>
<path d="M98.8008 92.1295H86.0273C85.9734 92.1295 85.9295 92.0855 85.9295 92.0316V90.6383C85.9295 90.5844 85.9734 90.5404 86.0273 90.5404H98.8008C98.8547 90.5404 98.8986 90.5844 98.8986 90.6383V92.0316C98.8986 92.0855 98.8547 92.1295 98.8008 92.1295Z" fill="white"/>
<path d="M93.7418 97.3197H86.0273C85.9729 97.3197 85.9301 97.2757 85.9301 97.2218V95.8284C85.9301 95.7745 85.9729 95.7306 86.0273 95.7306H93.7418C93.7957 95.7306 93.8391 95.7745 93.8391 95.8284V97.2218C93.8391 97.2757 93.7957 97.3197 93.7418 97.3197Z" fill="white"/>
<path d="M105.248 97.3197H96.0996C96.0457 97.3197 96.0018 97.2757 96.0018 97.2218V95.8284C96.0018 95.7745 96.0457 95.7306 96.0996 95.7306H105.248C105.302 95.7306 105.346 95.7745 105.346 95.8284V97.2218C105.346 97.2757 105.302 97.3197 105.248 97.3197Z" fill="white"/>
<path d="M122.862 97.3197H107.991C107.937 97.3197 107.893 97.2757 107.893 97.2218V95.8284C107.893 95.7745 107.937 95.7306 107.991 95.7306H122.862C122.916 95.7306 122.96 95.7745 122.96 95.8284V97.2218C122.96 97.2757 122.916 97.3197 122.862 97.3197Z" fill="white"/>
<path d="M122.926 92.1295H103.109C103.055 92.1295 103.011 92.0855 103.011 92.0316V90.6383C103.011 90.5844 103.055 90.5404 103.109 90.5404H122.926C122.98 90.5404 123.023 90.5844 123.023 90.6383V92.0316C123.023 92.0855 122.98 92.1295 122.926 92.1295Z" fill="white"/>
<path d="M122.926 107.485H86.0273C85.9728 107.485 85.9295 107.441 85.9295 107.387V105.993C85.9295 105.939 85.9728 105.895 86.0273 105.895H122.926C122.98 105.895 123.024 105.939 123.024 105.993V107.387C123.024 107.441 122.98 107.485 122.926 107.485Z" fill="white"/>
<path d="M102.66 102.462H86.0273C85.9734 102.462 85.9301 102.418 85.9301 102.364V100.971C85.9301 100.917 85.9734 100.873 86.0273 100.873H102.66C102.714 100.873 102.757 100.917 102.757 100.971V102.364C102.757 102.418 102.714 102.462 102.66 102.462Z" fill="white"/>
<path d="M122.926 102.462H106.14C106.086 102.462 106.042 102.418 106.042 102.364V100.971C106.042 100.917 106.086 100.873 106.14 100.873H122.926C122.98 100.873 123.024 100.917 123.024 100.971V102.364C123.024 102.418 122.98 102.462 122.926 102.462Z" fill="white"/>
<path d="M171.368 80.2419H208.005C209.94 80.2419 211.51 81.8169 211.51 83.7587V106.958C211.51 108.9 209.94 110.475 208.005 110.475H183.284C181.499 112.974 178.263 117.45 177.977 117.45C177.71 117.45 178.224 113.222 178.587 110.475H171.368C169.433 110.475 167.863 108.9 167.863 106.958V83.7587C167.863 81.8169 169.433 80.2419 171.368 80.2419Z" fill="#F47B60"/>
<path d="M207.432 92.1681H198.304H189.62C189.56 92.1681 189.512 92.2167 189.512 92.2759V93.6488C189.512 93.7085 189.56 93.7572 189.62 93.7572H198.304H198.748H207.432C207.492 93.7572 207.54 93.7085 207.54 93.6488V92.2759C207.54 92.2167 207.492 92.1681 207.432 92.1681Z" fill="white"/>
<path d="M171.995 93.7572H186.866C186.92 93.7572 186.964 93.7132 186.964 93.6593V92.2659C186.964 92.212 186.92 92.1681 186.866 92.1681H171.995C171.941 92.1681 171.897 92.212 171.897 92.2659V93.6593C171.897 93.7132 171.941 93.7572 171.995 93.7572Z" fill="white"/>
<path d="M171.932 88.567H191.749C191.803 88.567 191.846 88.523 191.846 88.4691V87.0758C191.846 87.0219 191.803 86.9779 191.749 86.9779H171.932C171.878 86.9779 171.834 87.0219 171.834 87.0758V88.4691C171.834 88.523 171.878 88.567 171.932 88.567Z" fill="white"/>
<path d="M195.332 88.567H207.442C207.496 88.567 207.54 88.523 207.54 88.4691V87.0758C207.54 87.0219 207.496 86.9779 207.442 86.9779H195.332C195.278 86.9779 195.234 87.0219 195.234 87.0758V88.4691C195.234 88.523 195.278 88.567 195.332 88.567Z" fill="white"/>
<path d="M171.834 103.921H207.54V102.332H171.834V103.921Z" fill="white"/>
<path d="M190.559 98.8988H207.54V97.3097H190.559V98.8988Z" fill="white"/>
<path d="M171.897 98.8988H188.878V97.3097H171.897V98.8988Z" fill="white"/>
<path d="M58.7449 237.945C58.7449 237.945 58.4912 242.149 58.4895 242.157C58.3963 242.691 58.0283 244.01 58.0283 244.495C58.0283 246.318 66.6838 242.948 64.7443 242.14C64.5686 242.067 63.6486 241.514 63.5912 240.894C63.5021 239.938 63.2766 238.004 63.2766 238.004L58.7449 237.945Z" fill="#F7A896"/>
<path d="M64.3805 241.781C64.3805 241.781 62.3484 242.338 61.3078 242.477C60.2666 242.617 58.8943 241.443 58.1584 241.76C57.348 242.109 57.3797 245.251 57.3797 245.251C57.3797 245.251 68.2775 246.145 71.342 245.22C72.5555 244.853 68.5348 243.079 64.3805 241.781Z" fill="#BA5F4B"/>
<path d="M73.4385 237.945C73.4385 237.945 73.1848 242.149 73.183 242.157C73.0898 242.691 72.7219 244.01 72.7219 244.495C72.7219 246.318 81.3773 242.948 79.4379 242.14C79.2621 242.067 77.9514 241.835 77.8939 241.215C77.8049 240.259 77.6391 237.303 77.6391 237.303L73.4385 237.945Z" fill="#F7A896"/>
<path d="M79.0734 241.781C79.0734 241.781 77.0414 242.338 76.0008 242.477C74.9596 242.617 73.5873 241.443 72.8514 241.76C72.041 242.109 72.0727 245.251 72.0727 245.251C72.0727 245.251 82.9705 246.145 86.035 245.22C87.2484 244.853 83.2277 243.079 79.0734 241.781Z" fill="#BA5F4B"/>
<path d="M45.5561 192.849L66.2461 192.938C66.2461 192.938 75.5918 192.693 77.0689 195.925C78.5467 199.157 78.1951 240.203 78.1951 240.203C78.1951 240.203 73.207 240.945 72.9516 240.67L67.3342 216.097C66.7336 214.014 66.5291 211.836 66.7318 209.678L67.268 203.963L58.7314 204.399C58.7314 204.399 49.0529 204.245 45.8619 201.035C42.6709 197.825 45.5561 192.849 45.5561 192.849Z" fill="#469482"/>
<path d="M31.5311 190.567L53.7773 191.933C53.7773 191.933 63.3516 192.711 64.8287 195.942C66.3064 199.174 63.8859 240.572 63.8859 240.572C63.8859 240.572 58.3324 240.915 58.3436 240.671C58.357 240.381 56.0643 221.708 54.7928 215.795C54.3891 213.918 54.2479 211.995 54.3727 210.079L55.176 203.452C55.176 203.452 34.5123 203.334 33.4869 202.303C30.2959 199.093 31.5311 190.567 31.5311 190.567Z" fill="#59C2A9"/>
<path d="M51.7978 156.448C48.7019 155.507 42.9009 155.011 42.9009 155.011C42.9009 155.011 39.2651 154.417 38.0831 154.672C36.3431 155.046 33.0775 155.217 32.7678 162.766C32.5459 168.168 31.9196 181.533 31.2958 190.558L53.4372 191.921C52.4468 178.033 54.7291 157.339 51.7978 156.448Z" fill="#F47B60"/>
<path d="M45.9457 148.563L42.4545 154.952C42.4545 154.952 45.0641 159.627 47.5418 159.757C49.6211 159.866 49.3007 156.791 49.3007 156.791C49.3007 156.791 49.6362 152.817 50.6379 151.039C51.6401 149.261 45.9457 148.563 45.9457 148.563Z" fill="#F7A896"/>
<path d="M46.2572 151.125C47.0359 151.96 48.3378 153.06 49.7502 153.761C49.958 152.763 50.2462 151.734 50.6379 151.039C51.1002 150.218 50.1358 149.628 48.9636 149.23C47.3931 148.809 45.9457 148.563 45.9457 148.563L45.2745 149.791C45.4435 150.223 45.9977 150.848 46.2572 151.125Z" fill="#F47B60"/>
<path d="M47.778 137.793C47.6348 137.69 44.173 145.671 45.6493 148.553C47.1262 151.436 51.0485 153.351 53.0391 151.972C55.2413 150.446 57.6779 141.505 55.0431 138.225C52.4076 134.945 47.778 137.793 47.778 137.793Z" fill="#F7A896"/>
<path d="M55.041 133.432C52.3447 133.231 50.2533 134.323 49.4585 134.815C48.2628 134.625 46.5083 134.82 44.1234 137.052C41.1911 139.795 41.6313 143.877 43.4491 146.332C45.2663 148.787 44.6476 150.854 44.6476 150.854L45.3182 149.884C45.8198 149.147 46.1741 148.316 46.3246 147.436C46.4152 146.909 46.4615 146.323 46.3786 145.808C46.1584 144.45 48.1447 144.15 48.9204 143.29C49.5178 142.628 50.0333 140.873 50.9916 139.771L51.9814 139.002C51.9814 139.002 53.9944 138.185 55.507 139.003C57.019 139.822 58.5006 133.688 55.041 133.432Z" fill="#F7CE85"/>
<path d="M48.3949 144.736C48.1261 145.753 47.4313 146.451 46.8442 146.296C46.2571 146.141 45.999 145.191 46.2679 144.174C46.5373 143.157 47.2315 142.458 47.8186 142.613C48.4063 142.768 48.6638 143.718 48.3949 144.736Z" fill="#F7A896"/>
<path d="M51.1794 148.116L54.4238 148.854C54.4238 148.854 54.0686 150.069 52.6324 149.786C50.8812 149.441 51.1794 148.116 51.1794 148.116Z" fill="white"/>
<path d="M78.7529 180.887C78.937 180.644 78.5544 180.182 78.2679 179.836C77.9499 179.452 75.9338 178.396 75.5876 178.262C75.2409 178.127 72.173 178.331 70.9826 178.626C69.7916 178.92 69.0374 178.707 69.0374 178.707C68.7373 178.623 68.2849 178.506 67.9345 178.405L67.9226 178.442L51.0812 173.894C51.0812 173.894 45.8768 167.949 40.9911 161.112C39.2253 162.557 38.4568 166.392 36.6811 167.819L47.9179 179.119C48.2798 179.604 64.7008 180.884 67.0062 181.062L67.005 181.062C67.0255 181.064 67.046 181.065 67.0659 181.066C67.2071 181.077 67.2827 181.083 67.2827 181.083L67.2827 181.081C69.9255 181.258 72.5832 181.644 72.8339 181.657C73.6552 181.697 75.2211 180.95 75.5791 180.849C75.9364 180.749 76.6347 180.901 77.0922 181.159C77.5502 181.416 78.8923 182.047 79.1325 181.941C79.3733 181.835 78.7529 180.887 78.7529 180.887Z" fill="#F7A896"/>
<path d="M40.5765 173.609C40.5765 173.609 34.78 166.206 33.3675 163.3C31.955 160.396 33.4839 155.806 36.3036 155.269C39.1233 154.733 47.2514 168.009 47.2514 168.009L40.5765 173.609Z" fill="#BA5F4B"/>
<path d="M30.7418 127.389C30.7418 128.601 32.3291 129.585 34.2879 129.585C36.2467 129.585 37.8352 128.601 37.8352 127.389C37.8352 126.176 36.2467 125.192 34.2879 125.192C32.3291 125.192 30.7418 126.176 30.7418 127.389Z" fill="#B1B2B8"/>
<path d="M34.2885 80.7156C43.1203 80.7156 50.2799 87.8758 50.2799 96.7076C50.2799 101.533 48.1424 105.858 44.7627 108.79C44.7504 108.803 42.2643 111.491 41.8541 114.305L41.7803 116.028C41.7557 116.593 41.5342 117.13 41.1539 117.549C41.1199 117.586 41.0848 117.622 41.049 117.657H27.5273C27.4922 117.622 27.457 117.586 27.423 117.549C27.0428 117.13 26.8213 116.593 26.7967 116.028L26.7223 114.305C26.3127 111.491 23.8266 108.803 23.8143 108.79C20.4346 105.858 18.2971 101.533 18.2971 96.7076C18.2971 87.8758 25.4566 80.7156 34.2885 80.7156Z" fill="#F7CE85"/>
<path d="M33.6451 127.634H34.9318C38.3291 127.634 41.083 124.88 41.083 121.483V117.657H27.4939V121.483C27.4939 124.88 30.2478 127.634 33.6451 127.634Z" fill="#5C5568"/>
<path d="M30.2795 108.933C39.116 108.933 46.2797 101.77 46.2797 92.933C46.2797 89.3453 45.0984 86.0336 43.1045 83.3647C47.4275 86.227 50.2793 91.1336 50.2793 96.7071C50.2793 101.532 48.1418 105.859 44.7621 108.791C44.7504 108.803 42.2643 111.49 41.8541 114.305L41.7797 116.027C41.7551 116.592 41.5336 117.131 41.1533 117.549C41.1199 117.586 41.0848 117.622 41.049 117.656H27.5273C27.4916 117.622 27.4564 117.586 27.423 117.549C27.0428 117.131 26.8213 116.592 26.7967 116.027L26.7223 114.305C26.3121 111.49 23.826 108.803 23.8143 108.791C22.9594 108.049 22.1842 107.218 21.5027 106.312C24.0228 107.969 27.0381 108.933 30.2795 108.933Z" fill="#EBB45C"/>
<path d="M34.401 104.462L37.5791 90.6033L40.3676 98.6646L41.1856 98.3816L37.4098 87.468L34.1672 101.609L30.8473 93.5031L27.7711 98.6957L28.5158 99.1369L30.7055 95.4402L34.401 104.462Z" fill="white"/>
<path d="M38.4059 119.739L38.482 119.747C38.8834 119.788 39.2432 119.496 39.2842 119.095L41.5066 97.6375C41.5482 97.2361 41.2564 96.8764 40.8551 96.8348L40.7783 96.8271C40.377 96.7855 40.0178 97.0767 39.9762 97.4787L37.7543 118.937C37.7127 119.338 38.0045 119.697 38.4059 119.739Z" fill="#5C5568"/>
<path d="M30.1242 119.743C29.7018 119.787 29.3238 119.479 29.2799 119.057L27.0656 97.675C27.0217 97.2525 27.3287 96.8752 27.7518 96.8312C28.1742 96.7879 28.5522 97.0943 28.5961 97.5168L30.8104 118.899C30.8537 119.322 30.5467 119.699 30.1242 119.743Z" fill="#5C5568"/>
<path d="M27.5936 119.16H40.9752C41.3508 119.16 41.6561 118.856 41.6561 118.48V118.337C41.6561 117.961 41.3508 117.657 40.9752 117.657H27.5936C27.2174 117.657 26.9127 117.961 26.9127 118.337V118.48C26.9127 118.856 27.2174 119.16 27.5936 119.16Z" fill="#B1B2B8"/>
<path d="M27.5936 122.176H40.9752C41.3508 122.176 41.6561 121.872 41.6561 121.496V121.353C41.6561 120.977 41.3508 120.672 40.9752 120.672H27.5936C27.2174 120.672 26.9127 120.977 26.9127 121.353V121.496C26.9127 121.872 27.2174 122.176 27.5936 122.176Z" fill="#B1B2B8"/>
<path d="M28.377 125.551H40.1918C40.568 125.551 40.8727 125.247 40.8727 124.871V124.728C40.8727 124.352 40.568 124.047 40.1918 124.047H28.377C28.0008 124.047 27.6961 124.352 27.6961 124.728V124.871C27.6961 125.247 28.0008 125.551 28.377 125.551Z" fill="#B1B2B8"/>
<path d="M237.22 105.098C238.284 104.998 239.343 104.86 240.407 104.781C240.602 104.767 240.893 104.899 241 105.058C241.693 106.082 242.327 107.147 243.027 108.167C243.231 108.464 243.287 108.661 243.106 108.983C242.471 110.118 241.866 111.271 241.251 112.417C241.151 112.603 241.057 112.792 240.89 113.119C242.506 114.181 244.104 115.232 245.743 116.309C246.744 115.088 247.673 113.994 248.556 112.863C248.867 112.463 249.111 112.337 249.647 112.489C250.742 112.799 251.88 112.957 252.993 113.211C253.163 113.249 253.376 113.436 253.43 113.6C253.844 114.854 254.262 116.108 254.598 117.384C254.76 117.996 255.057 118.152 255.626 118.031C255.844 117.985 256.08 118.018 256.307 118.014C257.299 117.819 258.291 117.625 259.282 117.429C259.383 117.376 259.478 117.303 259.584 117.27C260.706 116.924 260.538 117.05 260.439 115.958C260.319 114.628 260.177 113.3 260.061 112.146C261.446 111.211 262.74 110.336 264.076 109.433C265.482 110.187 266.951 110.975 268.43 111.769C269.776 110.322 270.777 108.702 271.61 106.933C270.408 105.95 269.237 104.988 268.06 104.035C267.849 103.864 267.76 103.73 267.837 103.414C268.142 102.175 268.415 100.926 268.634 99.6691C268.697 99.3069 268.834 99.1922 269.146 99.0996C270.43 98.7171 271.706 98.3052 272.988 97.9177C273.307 97.821 273.455 97.6876 273.44 97.3104C273.373 95.6203 272.954 94.0115 272.393 92.4291C272.282 92.1164 272.08 92.1077 271.801 92.139C270.507 92.2831 269.21 92.3957 267.917 92.5491C267.545 92.5936 267.36 92.5209 267.15 92.1654C266.423 90.9368 265.625 89.7502 264.792 88.4515C265.478 87.1732 266.256 85.7238 267.034 84.2739C265.565 82.8958 263.978 81.8067 262.177 81.0066C261.11 82.324 260.073 83.6065 259.133 84.7675C257.761 84.5333 256.491 84.2835 255.21 84.1163C254.725 84.0535 254.509 83.8835 254.381 83.4199C254.04 82.184 253.65 80.9609 253.268 79.7368C253.192 79.4954 253.163 79.1652 252.757 79.2481C251.105 79.5863 249.452 79.9226 247.8 80.2612C247.448 80.3335 247.361 80.5435 247.402 80.8957C247.556 82.2078 247.652 83.5269 247.828 84.8359C247.895 85.3406 247.683 85.5363 247.297 85.775C246.345 86.3643 245.399 86.9758 244.519 87.6655C244.139 87.9631 243.924 87.9777 243.526 87.7499C242.248 87.0177 240.941 86.3352 239.673 85.6484C238.75 86.4068 236.882 89.2586 236.438 90.5659C237.606 91.5037 238.777 92.4652 239.974 93.3924C240.273 93.624 240.289 93.8158 240.212 94.1665C239.963 95.2995 239.794 96.449 239.556 97.5845C239.516 97.7754 239.32 98.0245 239.142 98.0822C238.016 98.4482 236.876 98.7753 235.737 99.1022C235.1 99.2853 234.843 99.3566 234.762 99.6255L235.8 104.904C236.04 105.206 236.36 105.179 237.22 105.098ZM245.591 100.373C244.663 95.6549 247.736 91.0774 252.454 90.1496C257.171 89.2214 261.748 92.2945 262.676 97.0128C263.604 101.73 260.532 106.307 255.814 107.236C251.097 108.163 246.519 105.091 245.591 100.373Z" fill="#A0C4F9"/>
<path d="M280.092 107.569C280.55 107.683 281.012 107.781 281.467 107.903C281.55 107.925 281.652 108.023 281.674 108.104C281.813 108.632 281.922 109.169 282.065 109.695C282.106 109.848 282.101 109.939 281.979 110.047C281.548 110.427 281.128 110.819 280.704 111.207C280.635 111.27 280.569 111.335 280.452 111.447C280.97 112.126 281.483 112.796 282.009 113.484C282.604 113.122 283.15 112.801 283.683 112.458C283.871 112.337 283.991 112.32 284.193 112.462C284.603 112.751 285.055 112.983 285.481 113.25C285.547 113.291 285.608 113.4 285.607 113.477C285.596 114.06 285.587 114.643 285.541 115.224C285.52 115.503 285.621 115.611 285.875 115.643C285.973 115.656 286.066 115.704 286.162 115.736C286.603 115.8 287.045 115.862 287.486 115.926C287.536 115.918 287.586 115.902 287.636 115.904C288.153 115.923 288.065 115.952 288.183 115.482C288.327 114.91 288.462 114.336 288.582 113.838C289.295 113.651 289.962 113.475 290.65 113.293C291.126 113.813 291.624 114.356 292.124 114.902C292.896 114.496 293.549 113.966 294.154 113.351C293.797 112.766 293.45 112.194 293.098 111.626C293.035 111.523 293.017 111.454 293.096 111.334C293.404 110.862 293.7 110.382 293.974 109.89C294.053 109.748 294.127 109.721 294.27 109.728C294.861 109.755 295.453 109.77 296.044 109.796C296.191 109.801 296.272 109.767 296.321 109.608C296.54 108.894 296.6 108.163 296.597 107.422C296.596 107.275 296.514 107.242 296.392 107.214C295.832 107.086 295.275 106.944 294.714 106.819C294.553 106.783 294.486 106.725 294.45 106.547C294.327 105.929 294.167 105.318 294.01 104.656C294.482 104.223 295.018 103.733 295.553 103.242C295.143 102.453 294.64 101.769 294.006 101.172C293.369 101.566 292.75 101.948 292.189 102.295C291.652 101.997 291.159 101.708 290.649 101.451C290.456 101.354 290.392 101.252 290.405 101.041C290.444 100.476 290.459 99.9093 290.479 99.3432C290.482 99.2314 290.519 99.0896 290.338 99.0649C289.6 98.9647 288.862 98.8644 288.124 98.7647C287.968 98.7436 287.901 98.8176 287.866 98.9704C287.739 99.5394 287.587 100.103 287.469 100.674C287.423 100.894 287.306 100.945 287.111 100.988C286.627 101.095 286.144 101.212 285.677 101.371C285.476 101.439 285.383 101.414 285.251 101.26C284.825 100.769 284.38 100.294 283.952 99.8228C283.457 100.004 282.263 100.921 281.887 101.401C282.237 101.962 282.584 102.533 282.948 103.094C283.039 103.234 283.017 103.316 282.934 103.451C282.665 103.887 282.427 104.341 282.162 104.78C282.118 104.853 282 104.928 281.917 104.926C281.394 104.914 280.872 104.885 280.35 104.855C280.057 104.838 279.94 104.83 279.867 104.931L279.529 107.282C279.586 107.443 279.723 107.477 280.092 107.569ZM284.27 106.822C284.571 104.721 286.519 103.262 288.621 103.563C290.722 103.865 292.181 105.812 291.879 107.914C291.578 110.015 289.63 111.474 287.529 111.173C285.427 110.871 283.969 108.924 284.27 106.822Z" fill="#A0C4F9"/>
<path d="M235.857 209.573H238.025V241.267H235.857V209.573Z" fill="#1F4163"/>
<path d="M211.345 233.161C211.345 233.161 210.871 238.108 211.183 239.721C211.225 239.937 211.316 240.21 211.423 240.512C211.744 241.416 210.865 244.178 210.865 244.178L199.071 244.22C198.429 244.222 198.859 243.833 199.382 243.476C200.237 242.891 200.926 242.506 203.65 241.288C203.827 241.209 204.475 240.827 204.709 240.695C205.301 240.359 205.899 239.827 206.415 239.293C207.272 238.404 207.403 234.045 207.403 234.045L211.345 233.161Z" fill="#F7A896"/>
<path d="M204.711 240.693C207.819 241.494 210.131 241.002 211.427 240.521C211.748 241.424 212.299 244.817 211.939 244.817C208.982 244.817 206.531 245.013 198.057 244.885C197.754 244.88 197.791 243.884 197.989 243.664C198.536 243.057 204.476 240.826 204.711 240.693Z" fill="#59C2A9"/>
<path d="M198.058 225.014C198.058 225.014 195.499 229.339 195.089 230.932C195.034 231.146 195 231.43 194.968 231.747C194.872 232.698 192.882 234.871 192.882 234.871L182.114 230.279C181.527 230.029 182.086 229.843 182.716 229.723C183.747 229.526 184.541 229.445 187.548 229.404C187.743 229.401 188.499 229.307 188.769 229.278C189.453 229.204 190.226 228.954 190.926 228.669C192.09 228.196 194.084 224.272 194.084 224.272L198.058 225.014Z" fill="#F7A896"/>
<path d="M188.765 229.287C191.26 231.229 193.581 231.682 194.969 231.748C194.876 232.697 194.123 235.72 193.794 235.58C191.095 234.427 188.581 233.941 180.901 230.522C180.626 230.399 181.085 229.505 181.36 229.381C182.118 229.04 188.494 229.317 188.765 229.287Z" fill="#59C2A9"/>
<path d="M234.679 188.129V190.672L209.677 195.698L203.471 213.517L206.929 211.26L206.13 238.699L211.389 238.733C211.389 238.733 220.502 215.713 217.512 204.135L245.184 204.539C245.184 204.539 257.725 199.91 251.254 185.952L234.679 188.129Z" fill="#F7CE85"/>
<path d="M234.678 190.67C234.678 190.67 208.743 190.884 206.903 192.243C205.064 193.603 191.303 227.322 191.303 227.322L197.335 229.464C197.335 229.464 209.294 210.326 209.926 208.961C210.558 207.597 215.186 197.62 216.957 196.6C218.728 195.58 234.678 190.67 234.678 190.67Z" fill="#EBB45C"/>
<path d="M248.416 242.68H226.882C225.89 242.68 225.086 243.484 225.086 244.476C225.086 244.649 225.227 244.791 225.4 244.791H249.898C250.072 244.791 250.212 244.649 250.212 244.476C250.212 243.484 249.408 242.68 248.416 242.68Z" fill="#1F4163"/>
<path d="M238.38 241.267H235.742C234.962 241.267 234.329 241.9 234.329 242.681C234.329 243.461 234.962 244.093 235.742 244.093H238.38C239.16 244.093 239.793 243.461 239.793 242.681C239.793 241.9 239.16 241.267 238.38 241.267Z" fill="#1F4163"/>
<path d="M243.938 154.724C243.938 154.724 249.152 153.683 251.537 155.666C253.922 157.65 251.071 175.337 251.08 178.268C251.089 181.2 252.739 189.477 252.739 189.477C252.739 189.477 236.936 192.28 234.415 187.885C234.415 187.885 233.663 171.122 233.764 169.014C233.866 166.906 236.191 158.279 236.837 157.354C237.483 156.43 243.938 154.724 243.938 154.724Z" fill="#59C2A9"/>
<path d="M243.912 146.65C243.912 146.65 243.94 146.806 243.991 147.071C244.236 148.343 245.173 152.56 245.796 153.717C246.548 155.115 243.286 159.611 240.117 159.085C239.173 158.928 240.888 154.968 240.801 154.55C240.636 153.75 240.412 152.659 240.183 151.54C240.054 150.91 239.923 150.269 239.8 149.668C239.451 147.959 239.165 146.562 239.165 146.562L243.912 146.65Z" fill="#F7A896"/>
<path d="M243.991 147.07C243.94 146.805 243.912 146.65 243.912 146.65L239.165 146.562C239.165 146.562 239.451 147.959 239.8 149.668C239.922 150.266 240.053 150.903 240.181 151.53C240.913 151.418 241.676 151.058 242.44 150.382C243.272 149.646 243.815 148.764 244.14 147.824C244.079 147.525 244.029 147.268 243.991 147.07Z" fill="#F47B60"/>
<path d="M240.65 135.906C240.65 135.906 242.885 135.634 244.298 137.434C245.711 139.235 247.258 144.821 243.795 147.886C240.331 150.951 236.868 147.529 236.335 143.881C235.802 140.232 235.576 135.806 240.65 135.906Z" fill="#F7A896"/>
<path d="M235.304 143.832C235.725 144.636 236.425 145.079 236.869 144.82C237.312 144.562 237.331 143.701 236.91 142.897C236.489 142.093 235.788 141.651 235.345 141.909C234.901 142.167 234.884 143.028 235.304 143.832Z" fill="#F7A896"/>
<path d="M240.395 135.309C240.395 135.309 243.417 140.612 245.556 140.844C247.695 141.077 247.994 143.903 247.994 143.903C247.994 143.903 247.188 137.392 245.064 136.149C242.94 134.905 240.395 135.309 240.395 135.309Z" fill="#F7CE85"/>
<path d="M245.004 142.185C244.836 143.131 245.192 143.995 245.798 144.116C246.404 144.236 247.031 143.567 247.199 142.62C247.367 141.674 247.011 140.81 246.405 140.689C245.8 140.569 245.173 141.239 245.004 142.185Z" fill="#F7A896"/>
<path d="M238.394 145.897L241.006 145.746C241.006 145.746 241.004 146.742 239.857 146.841C238.458 146.963 238.394 145.897 238.394 145.897Z" fill="white"/>
<path d="M248.162 202.639C248.162 202.639 222.378 203.08 219.69 202.639C217.002 202.198 215.838 205.567 216.64 207.333C217.443 209.098 219.65 209.78 222.9 209.941C226.15 210.101 253.191 210.864 253.953 210.141C254.575 209.552 262.772 181.526 265.755 171.277C266.351 169.229 265.175 167.088 263.129 166.487C261.091 165.889 258.953 167.046 258.337 169.078L248.162 202.639Z" fill="#F47B60"/>
<path d="M41.6836 209.618H39.5027V241.499H41.6836V209.618Z" fill="#1F4163"/>
<path d="M29.5764 242.92H51.2373C52.2352 242.92 53.0443 243.729 53.0443 244.727C53.0443 244.901 52.902 245.043 52.7273 245.043H28.0852C27.9105 245.043 27.7693 244.901 27.7693 244.727C27.7693 243.729 28.5785 242.92 29.5764 242.92Z" fill="#1F4163"/>
<path d="M39.3334 241.499H41.9871C42.7717 241.499 43.408 242.135 43.408 242.92C43.408 243.705 42.7717 244.342 41.9871 244.342H39.3334C38.5482 244.342 37.9119 243.705 37.9119 242.92C37.9119 242.135 38.5482 241.499 39.3334 241.499Z" fill="#1F4163"/>
<path d="M54.6275 205.948L53.1369 199.744C52.0951 195.405 48.2525 192.248 43.793 192.067L24.9152 191.305L24.3328 189.383L43.8697 190.172C49.1725 190.387 53.7416 194.14 54.9814 199.301L56.5652 205.894C56.0291 205.917 55.3746 205.935 54.6275 205.948Z" fill="#3F5B8F"/>
<path d="M29.3062 202.644C29.3062 202.644 55.2428 203.088 57.9463 202.644C60.6504 202.199 61.8205 205.59 61.0137 207.366C60.2062 209.142 57.9867 209.828 54.7178 209.989C51.4488 210.151 24.2484 210.917 23.4814 210.191C22.8551 209.597 14.6092 181.407 11.6092 171.098C11.0092 169.037 12.1922 166.884 14.2512 166.28C16.3008 165.679 18.4529 166.841 19.0723 168.885L29.3062 202.644Z" fill="#F7CE85"/>
<path d="M111.223 163.691H89.5863C89.0139 163.691 88.4977 164.037 88.2809 164.567L81.6193 180.816H69.6902C69.3568 180.816 69.0867 181.086 69.0867 181.419C69.0867 181.753 69.3568 182.023 69.6902 182.023H103.64C104.573 182.023 105.42 181.475 105.802 180.623L112.51 165.68C112.929 164.747 112.246 163.691 111.223 163.691Z" fill="#8CB5F2"/>
<path d="M99.5736 173.153C99.4277 173.883 98.7908 174.37 98.1516 174.243C97.5123 174.115 97.1121 173.42 97.2586 172.69C97.4045 171.96 98.0414 171.472 98.6807 171.6C99.3193 171.728 99.7195 172.423 99.5736 173.153Z" fill="white"/>
<path d="M184.282 163.691H205.918C206.491 163.691 207.007 164.037 207.224 164.567L213.885 180.816H225.814C226.148 180.816 226.419 181.086 226.419 181.419C226.419 181.753 226.148 182.023 225.814 182.023H191.865C190.931 182.023 190.085 181.475 189.703 180.623L182.994 165.68C182.575 164.747 183.259 163.691 184.282 163.691Z" fill="#6B99DC"/>
<path d="M195.932 173.153C196.078 173.883 196.714 174.37 197.353 174.243C197.992 174.115 198.391 173.42 198.246 172.69C198.1 171.96 197.463 171.472 196.823 171.6C196.185 171.728 195.785 172.423 195.932 173.153Z" fill="white"/>
<path d="M66.0896 185.65H226.269C226.562 185.65 226.799 185.412 226.799 185.119V182.553C226.799 182.259 226.562 182.021 226.269 182.021H66.0896C65.7967 182.021 65.5588 182.259 65.5588 182.553V185.119C65.5588 185.412 65.7967 185.65 66.0896 185.65Z" fill="#1F4163"/>
<path d="M218.753 245.33H221.335L215.773 185.649H213.19L218.753 245.33Z" fill="#1F4163"/>
<path d="M196.816 245.33H194.235L199.797 185.649H202.379L196.816 245.33Z" fill="#1F4163"/>
<path d="M94.0904 245.33H96.6721L91.1098 185.649H88.5275L94.0904 245.33Z" fill="#1F4163"/>
<path d="M175.578 153.55C175.44 154.023 175.361 154.179 175.186 154.497C174.058 156.543 171.444 159.462 171.444 159.462L169.431 154.909C169.431 154.909 169.762 153.481 170.336 151.44C172.286 151.952 174.143 152.249 175.578 153.55Z" fill="#F8A897"/>
<path d="M164.006 149.588C164.006 149.588 175.262 154.455 175.626 154.362C175.861 154.302 180.256 146.969 180.313 140.066C180.339 136.878 177.033 133.039 173.338 133.792C171.478 134.171 171.507 134.688 168.749 138.682C165.992 142.677 164.006 149.588 164.006 149.588Z" fill="#E6B464"/>
<path d="M154.356 236.542C154.356 236.542 154.623 240.966 154.625 240.975C154.723 241.536 155.109 242.924 155.109 243.434C155.109 245.353 146.002 241.806 148.043 240.956C148.228 240.879 149.196 240.298 149.256 239.645C149.35 238.639 149.588 236.604 149.588 236.604L154.356 236.542Z" fill="#F7A896"/>
<path d="M147.746 240.797C147.746 240.797 149.922 241.453 151.037 241.616C152.152 241.78 153.622 240.4 154.411 240.773C155.279 241.183 155.244 244.876 155.244 244.876C155.244 244.876 143.571 245.927 140.289 244.839C138.988 244.409 143.296 242.324 147.746 240.797Z" fill="#DE5A44"/>
<path d="M172.986 236.542C172.986 236.542 173.253 240.966 173.255 240.975C173.353 241.536 173.74 242.924 173.74 243.434C173.74 245.353 164.632 241.806 166.673 240.956C166.858 240.879 168.113 239.863 168.173 239.211C168.267 238.205 168.218 236.604 168.218 236.604L172.986 236.542Z" fill="#F7A896"/>
<path d="M166.712 240.797C166.712 240.797 168.889 241.453 170.004 241.616C171.118 241.78 172.588 240.4 173.377 240.773C174.245 241.183 174.279 244.876 174.279 244.876C174.279 244.876 162.554 246.101 159.255 244.839C157.975 244.349 162.262 242.324 166.712 240.797Z" fill="#DE5A44"/>
<path d="M170.228 156.002L162.243 144.74C162.209 144.641 162.137 144.44 162.027 144.132C161.626 143.016 160.793 140.693 160.068 138.382L160.061 138.358C159.833 137.55 159.35 136.142 158.883 134.778C158.363 133.263 157.718 131.383 157.696 131.063C157.717 131.008 157.755 130.91 157.806 130.78C158.102 130.017 158.506 128.201 158.649 127.411C158.74 126.908 158.833 125.684 158.235 125.682C157.294 125.679 157.738 126.903 157.302 127.665C157.145 127.154 156.826 126.141 156.658 125.116L156.51 122.727C156.48 122.546 156.675 121.229 156.015 121.227L155.984 121.228C155.391 121.269 155.4 122.67 155.146 125.04C155.069 124.766 154.992 124.437 154.934 124.135C154.942 123.973 154.825 123.26 154.737 122.884C154.858 122.224 154.792 121.182 154.089 121.278C153.736 121.326 153.76 122.78 153.76 122.78C153.764 122.979 153.779 124.516 153.768 124.82C153.697 124.304 153.422 122.104 152.871 122.102C152.413 122.101 152.374 122.692 152.383 123.16C152.387 123.438 152.668 125.822 152.683 126.099C152.468 125.737 152.219 123.636 152.006 123.635C151.114 123.632 151.426 126.619 151.751 127.398C151.782 127.478 151.815 127.633 151.852 127.815C151.962 128.347 152.145 129.238 152.61 130.038C153.167 130.998 153.935 132.524 154.052 132.758C154.136 133.234 154.399 134.947 154.73 137.101C154.871 138.023 155.026 139.033 155.188 140.08L155.197 140.079C155.227 140.305 155.392 141.026 156.018 143.729C156.874 147.429 156.963 147.588 157.001 147.657C157.376 148.326 165.986 160.098 166.353 160.598L166.57 160.894L170.228 156.002Z" fill="#F7A896"/>
<path d="M155.393 129.747C155.393 129.747 156.049 128.085 157.208 128.085C157.208 128.085 156.561 127.85 156.004 128.287C155.447 128.725 155.393 129.747 155.393 129.747Z" fill="#F47B60"/>
<path d="M172.223 126.578L173.233 133.112C173.233 133.112 169.289 136.258 166.997 135.584C165.075 135.019 166.403 132.507 166.403 132.507C166.403 132.507 167.439 129.025 167.13 127.196C166.822 125.368 172.223 126.578 172.223 126.578Z" fill="#F7A896"/>
<path d="M171.475 128.55C170.487 129.013 168.536 129.641 167.018 129.791C167.166 128.877 167.252 127.91 167.131 127.196C166.989 126.353 168.063 126.156 169.26 126.19C170.826 126.329 172.223 126.578 172.223 126.578L172.417 127.833C172.118 128.147 171.804 128.396 171.475 128.55Z" fill="#FE8D66"/>
<path d="M177.212 119.061C177.374 119.063 175.633 126.353 172.971 127.599C170.309 128.845 166.346 128.178 165.609 126.211C164.793 124.035 167.819 116.602 171.56 115.669C175.302 114.736 177.212 119.061 177.212 119.061Z" fill="#F7A896"/>
<path d="M174.158 112.349C176.278 113.581 177.246 115.4 177.571 116.145C178.566 116.621 179.769 117.648 180.339 120.406C181.04 123.797 178.5 126.4 175.815 127.178C173.13 127.955 172.71 129.729 172.71 129.729L172.413 127.818C172.413 127.818 173.014 126.157 173.914 125.327C174.814 124.497 173.496 123.28 173.383 122.29C173.296 121.527 173.861 120.049 173.744 118.798C173.744 118.798 172.261 116.535 170.793 115.972C168.291 115.013 171.439 110.769 174.158 112.349Z" fill="#1F4163"/>
<path d="M172.992 123.558C172.641 124.399 172.781 125.237 173.303 125.427C173.825 125.618 174.532 125.091 174.882 124.25C175.232 123.408 175.093 122.571 174.57 122.381C174.049 122.189 173.342 122.716 172.992 123.558Z" fill="#F7A896"/>
<path d="M162.975 156.202L147.518 153.59C147.518 153.59 149.304 149.169 149.933 149.173C150.562 149.176 161.604 154.073 161.604 154.073L162.474 155.846L162.975 156.202Z" fill="#F8A897"/>
<path d="M170.923 166.772C170.923 166.772 172.466 174.234 171.837 179.891C171.208 185.549 171.159 205.647 171.159 205.647L173.559 237.804L167.865 237.929C167.865 237.929 161.111 205.787 161.237 206.612C161.362 207.437 158.972 183.981 158.972 183.981L167.023 166.065L170.923 166.772Z" fill="#6B99DC"/>
<path d="M169.414 166.419C169.414 166.419 170.421 173.137 169.163 176.084C167.905 179.03 158.372 207.943 158.247 210.301C158.121 212.658 154.951 238.714 154.951 238.714L148.329 238.528L146.896 209.559L149.896 173.149L152.809 163.943L169.414 166.419Z" fill="#8CB5F2"/>
<path d="M173.173 133.09C173.173 133.09 171.54 134.161 170.017 134.037C168.493 133.913 166.34 132.507 166.34 132.507L166.639 131.493C166.639 131.493 170.579 130.919 170.679 130.981C170.778 131.043 173.173 133.09 173.173 133.09Z" fill="#F7A896"/>
<path d="M155.787 148.988C155.787 148.988 149.902 154.478 147.266 153.519C144.63 152.561 143.555 149.331 150.028 144.653C155.821 140.466 155.787 148.988 155.787 148.988Z" fill="#F8A897"/>
<path d="M151.831 155.796C152.707 151.067 159.028 136.357 159.535 133.647C159.782 132.329 163.18 132.304 166.417 132.481C169.837 132.668 173.233 133.105 173.233 133.105C173.233 133.105 176.259 133.607 177.589 134.857C178.919 136.107 179.269 139.558 177.345 146.107C175.826 151.277 173.948 154.114 173.016 157.88C172.826 159.143 172.664 160.39 172.449 161.846C172.1 167.478 172.434 174.92 172.434 174.92C172.434 174.92 155.95 178.314 149.793 173.12C149.793 173.12 150.934 160.64 151.831 155.796Z" fill="#F7CE85"/>
<path d="M147.637 145.608C147.637 145.608 154.091 150.96 154.469 150.961C154.711 150.961 163.711 144.372 165.796 138.947C166.95 135.948 164.553 132.585 161.806 132.59C159.901 132.593 159.054 133.081 155.273 136.256C151.492 139.43 147.637 145.608 147.637 145.608Z" fill="#E6B464"/>
<path d="M72.1529 245.33H69.5713L75.1336 185.649H77.7158L72.1529 245.33Z" fill="#1F4163"/>
<path d="M264.177 245.849H21.0316C20.7744 245.849 20.5658 245.641 20.5658 245.384V245.286C20.5658 245.029 20.7744 244.82 21.0316 244.82H264.177C264.434 244.82 264.643 245.029 264.643 245.286V245.384C264.643 245.641 264.434 245.849 264.177 245.849Z" fill="#469482"/>
<path d="M220.818 172.012C220.639 171.489 223.174 171.082 223.312 170.555C223.449 170.029 220.116 169.971 219.999 169.508C219.783 168.654 223.653 169.346 223.579 168.947C223.505 168.548 219.548 167.637 219.98 166.955C220.411 166.273 223.984 168.327 224.094 167.863C224.205 167.399 220.601 166.252 220.671 165.234C220.708 164.691 226.582 167.978 227.267 167.685C227.952 167.393 226.546 164.828 227.092 164.451C227.638 164.074 229.171 169.659 229.546 169.847C229.919 170.035 237.856 174.617 240.685 175.354C241.034 174.407 243.529 169.39 243.837 168.494C245.42 169.634 247.262 169.889 248.897 170.928C247.694 173.9 243.575 181.21 242.746 181.58C240.22 182.706 230.513 174.574 228.574 173.18C226.634 171.786 225.518 172.229 224.203 171.785C222.889 171.341 220.997 172.533 220.818 172.012Z" fill="#F7A896"/>
<path d="M249.657 171.722C249.657 171.722 253.093 164.097 253.614 161.139C254.136 158.18 251.597 154.467 248.938 154.707C246.28 154.947 242.298 168.111 242.298 168.111L249.657 171.722Z" fill="#9BDACB"/>
<path d="M166.218 123.808L168.64 124.9C168.64 124.9 168.171 125.794 167.091 125.345C165.775 124.798 166.218 123.808 166.218 123.808Z" fill="white"/>
<path d="M260.982 127.642C261.638 128.088 262.309 128.51 262.956 128.968C263.074 129.051 263.177 129.265 263.164 129.407C263.075 130.321 262.936 131.231 262.854 132.145C262.83 132.411 262.769 132.551 262.513 132.65C261.612 132.998 260.721 133.371 259.827 133.736C259.682 133.795 259.539 133.859 259.289 133.967C259.711 135.339 260.128 136.696 260.556 138.087C261.707 137.863 262.756 137.675 263.796 137.445C264.163 137.364 264.362 137.408 264.597 137.748C265.077 138.444 265.654 139.072 266.17 139.744C266.25 139.847 266.283 140.054 266.236 140.174C265.88 141.087 265.524 142.002 265.114 142.891C264.917 143.318 265.014 143.548 265.396 143.748C265.543 143.825 265.662 143.955 265.794 144.06C266.454 144.418 267.113 144.776 267.773 145.133C267.856 145.15 267.945 145.153 268.021 145.185C268.827 145.517 268.671 145.511 269.131 144.839C269.692 144.021 270.238 143.194 270.717 142.479C271.952 142.598 273.106 142.709 274.297 142.824C274.745 143.921 275.213 145.067 275.684 146.221C277.139 146.03 278.478 145.576 279.792 144.958C279.569 143.826 279.354 142.723 279.131 141.621C279.091 141.423 279.104 141.304 279.298 141.16C280.058 140.595 280.805 140.009 281.524 139.394C281.732 139.217 281.865 139.217 282.087 139.311C283.002 139.7 283.928 140.066 284.845 140.451C285.073 140.547 285.22 140.541 285.39 140.318C286.152 139.319 286.672 138.201 287.1 137.03C287.185 136.799 287.074 136.698 286.899 136.584C286.09 136.054 285.294 135.505 284.481 134.981C284.247 134.83 284.177 134.701 284.225 134.398C284.39 133.351 284.493 132.295 284.631 131.159C285.628 130.752 286.76 130.29 287.891 129.828C287.703 128.345 287.309 126.972 286.656 125.662C285.423 125.911 284.224 126.154 283.137 126.374C282.462 125.59 281.853 124.847 281.2 124.145C280.952 123.88 280.908 123.681 281.055 123.355C281.444 122.486 281.799 121.603 282.159 120.722C282.23 120.547 282.37 120.344 282.098 120.2C280.993 119.612 279.888 119.023 278.782 118.435C278.547 118.31 278.399 118.389 278.256 118.611C277.723 119.433 277.154 120.234 276.636 121.065C276.436 121.386 276.222 121.398 275.888 121.352C275.064 121.238 274.234 121.141 273.404 121.119C273.046 121.11 272.915 121.016 272.796 120.698C272.411 119.674 271.986 118.666 271.585 117.673C270.699 117.671 268.281 118.42 267.408 118.958C267.633 120.047 267.849 121.15 268.095 122.246C268.156 122.521 268.074 122.638 267.864 122.802C267.186 123.333 266.545 123.91 265.872 124.448C265.759 124.538 265.53 124.588 265.401 124.537C264.583 124.214 263.776 123.861 262.969 123.51C262.519 123.313 262.338 123.232 262.165 123.348L260.262 126.859C260.256 127.146 260.452 127.281 260.982 127.642ZM268.006 128.898C269.707 125.759 273.63 124.594 276.769 126.295C279.907 127.995 281.073 131.918 279.372 135.056C277.672 138.195 273.748 139.36 270.61 137.659C267.472 135.959 266.306 132.037 268.006 128.898Z" fill="#CCE2F9"/>
</g>
</g>
<defs>
<clipPath id="clip0_1_89">
<rect width="300" height="300" fill="white"/>
</clipPath>
</defs>
</svg>
