<svg width="87" height="242" viewBox="0 0 87 242" fill="none" xmlns="http://www.w3.org/2000/svg">
<g id="girl vactor">
<path id="Vector" d="M22.5376 10.6869L20.3184 15.9696C20.3184 15.9696 18.2739 23.3642 20.6677 26.3137C23.0615 29.2632 23.5927 51.8413 21.0242 53.5099C18.4485 55.1786 53.6356 38.0493 53.6356 38.0493C53.6356 38.0493 39.8983 7.73738 39.6655 7.6266C39.4327 7.51582 30.4322 4.84326 30.4322 4.84326L22.5449 10.68L22.5376 10.6869Z" fill="#2F2E43"/>
<path id="Vector_2" d="M45.4469 36.7961L33.6597 40.4864V24.3403H44.3555L45.4469 36.7961Z" fill="#F6A6A9"/>
<path id="uuid-48393ca6-ae17-4485-8fd8-05ea309d195e-141" d="M9.41357 128.466C8.77327 132.163 6.18302 134.815 3.62184 134.392C1.06067 133.963 -0.496435 130.619 0.143859 126.922C0.376693 125.44 0.995183 124.041 1.94107 122.837L4.86602 107.196L12.8188 108.782L9.09342 124.028C9.58092 125.468 9.69734 126.991 9.41357 128.466Z" fill="#F6A6A9"/>
<path id="Vector_3" d="M41.0188 217.56H29.9737V232.467H41.0188V217.56Z" fill="#F6A6A9"/>
<path id="Vector_4" d="M19.2223 241.488C18.0581 241.488 17.0249 241.46 16.2463 241.391C13.3141 241.135 10.5128 239.079 9.1085 237.874C8.47548 237.334 8.27175 236.468 8.60644 235.727C8.83928 235.194 9.31225 234.793 9.90161 234.633L17.6506 232.529L30.2018 224.469L30.3401 224.705C30.391 224.795 31.6279 226.907 32.0354 228.333C32.1955 228.873 32.1518 229.33 31.9117 229.676C31.7444 229.918 31.5188 230.057 31.3296 230.14C31.5552 230.368 32.2683 230.825 34.4584 231.158C37.6598 231.642 38.3292 228.485 38.3583 228.354L38.3801 228.25L38.4747 228.194C39.9954 227.26 40.934 226.837 41.2615 226.927C41.4652 226.983 41.7999 227.08 42.7094 235.679C42.804 235.949 43.437 237.929 43.0077 239.819C42.5348 241.876 33.0904 241.169 31.1986 241.003C31.1477 241.003 24.0681 241.488 19.2223 241.488Z" fill="#2F2E43"/>
<path id="Vector_5" d="M72.4545 205.841L63.0826 211.402L71.3724 224.051L80.7443 218.489L72.4545 205.841Z" fill="#F6A6A9"/>
<path id="Vector_6" d="M60.0119 239.446C58.7168 239.446 57.5235 239.3 56.6795 239.155C55.8427 239.017 55.1952 238.387 55.0569 237.59C54.9623 237.016 55.137 236.441 55.5444 236.012L60.9505 230.32L67.1206 217.165L67.3753 217.297C67.4699 217.345 69.6891 218.516 70.8315 219.519C71.268 219.9 71.4863 220.309 71.4717 220.724C71.4717 221.015 71.348 221.25 71.2389 221.41C71.5591 221.486 72.4176 221.52 74.4622 220.696C77.4454 219.499 76.2667 216.48 76.2085 216.348L76.1648 216.251L76.2157 216.155C76.987 214.597 77.5473 213.759 77.8747 213.676C78.0784 213.62 78.4204 213.537 83.972 220.371C84.1976 220.551 85.842 221.908 86.5259 223.736C87.2681 225.723 78.8569 229.877 77.1689 230.687C77.118 230.729 68.3139 236.815 64.705 238.546C63.2716 239.231 61.5763 239.446 60.0265 239.446H60.0119Z" fill="#2F2E43"/>
<path id="Vector_7" d="M49.1475 92.9126H18.2387L15.4301 120.275L27.7048 221.375H43.4867L37.1783 162.98L62.7755 215.697L76.8038 206.357L56.8164 157.144C56.8164 157.144 63.9542 114.265 58.3444 103.589C52.7345 92.9126 49.1547 92.9126 49.1547 92.9126H49.1475Z" fill="#2F2E43"/>
<path id="Vector_8" d="M64.5211 94.5812H10.8673L30.1562 34.1858H51.5479L64.5211 94.5812Z" fill="#E6E6E6"/>
<path id="Vector_9" d="M33.5342 34.1925C33.5342 34.1925 20.2117 33.8602 18.8074 37.1974C17.4031 40.5346 0.922791 119.949 0.922791 119.949H11.7932L33.5342 34.1925Z" fill="#E6E6E6"/>
<path id="Vector_10" d="M35.1206 28.8062C41.6064 28.8062 46.8642 23.8031 46.8642 17.6314C46.8642 11.4597 41.6064 6.45654 35.1206 6.45654C28.6348 6.45654 23.377 11.4597 23.377 17.6314C23.377 23.8031 28.6348 28.8062 35.1206 28.8062Z" fill="#F6A6A9"/>
<path id="Vector_11" d="M37.3975 0.266584C37.3975 0.266584 51.5422 -3.18142 55.8642 14.7233C55.8642 14.7233 55.9806 19.3968 58.4326 21.2869C60.8846 23.1771 60.0697 32.9672 60.0697 32.9672C60.0697 32.9672 64.7483 40.3063 60.7682 43.6436C60.7682 43.6436 59.0147 50.4288 61.5832 54.3199C64.1516 58.211 73.8579 79.626 57.7268 80.9277C57.7268 80.9277 49.5485 76.2265 53.4049 62.2129C57.2612 48.1994 52.9392 40.4586 52.9392 40.4586C52.9392 40.4586 40.548 36.1867 41.2538 27.0613C41.9523 17.9428 33.3083 8.93505 32.719 9.04583C32.1296 9.15661 26.0541 5.81938 23.3693 16.0526L20.4879 15.5887C20.4879 15.5887 19.2801 -1.63052 37.3975 0.259654V0.266584Z" fill="#2F2E43"/>
<g id="Group">
<path id="uuid-5634515f-d760-4925-b0a8-442b9e09929d-142" d="M73.6732 126.665C74.459 130.342 73.0257 133.693 70.4718 134.164C67.9179 134.628 65.2184 132.031 64.4326 128.355C64.0979 126.894 64.1488 125.371 64.5854 123.931L61.4785 108.325L69.504 107.12L71.7087 122.636C72.7055 123.82 73.3749 125.205 73.6659 126.679L73.6732 126.665Z" fill="#F6A6A9"/>
<path id="Vector_12" d="M42.196 34.2619C42.196 34.2619 53.9323 32.8495 55.3366 36.1867C56.7409 39.5239 73.2212 118.939 73.2212 118.939H62.3507L42.2033 34.2688L42.196 34.2619Z" fill="#E6E6E6"/>
</g>
</g>
</svg>
