<?xml version="1.0" encoding="utf-8"?>
<!-- Generator: Adobe Illustrator 27.5.0, SVG Export Plug-In . SVG Version: 6.00 Build 0)  -->
<svg version="1.1" id="_x2018_ëîé_x5F_1" xmlns="http://www.w3.org/2000/svg" xmlns:xlink="http://www.w3.org/1999/xlink"
	 x="0px" y="0px" viewBox="0 0 3200 2000" style="enable-background:new 0 0 3200 2000;" xml:space="preserve">
<rect style="fill:#FFFFFF;" width="3200" height="2000"/>
<g>
	<path style="opacity:0.5;fill:#DCEAFF;" d="M2982.904,1727.845v0.012c-0.227,0.407-0.453,0.804-0.68,1.211
		c-1.618,2.897-3.293,5.841-5.003,8.795l-2617.775-0.792c0,0-2.547-2.842-7.108-8.286c-0.26-0.306-0.521-0.622-0.793-0.95
		c-11.692-14.036-35.225-43.579-62.775-85.233c0-0.011-0.012-0.022-0.023-0.045c-73.099-110.565-174.394-306.364-157.347-523.68
		c4.811-61.339,19.039-124.397,46.001-187.739c81.77-192.108,325.73-321.61,545.503-324.214
		c85.063-1.019,166.516,16.99,233.525,57.739c11.885,7.222,26.826,12.802,44.212,16.594c14.647,3.215,31.026,5.162,48.808,5.784
		c142.734,5.026,374.867-75.408,512.553-277.772c73.111-107.464,185.351-177.812,314.355-214.452
		c6.011-1.698,12.066-3.339,18.145-4.89c29.339-7.527,59.471-13.368,90.146-17.545c5.523-0.747,11.07-1.449,16.628-2.083
		c136.135-15.802,281.937,0.544,415.672,45.707c17.613,5.943,35.021,12.395,52.17,19.344
		c251.67,101.917,447.468,310.031,430.252,600.616c-0.68,11.489-1.687,23.114-3.057,34.863c-2.569,22.378-6.406,45.22-11.545,68.515
		c-3.034,13.73-6.509,27.619-10.471,41.654C2770.568,1349.367,3185.244,1365.995,2982.904,1727.845z"/>
	<g>
		<path style="fill:#DFEBFA;" d="M2982.904,1727.845v0.012l-2037.602,0.215l17.567-608.958V953.65h76.212V824.431h152.039v109.683
			h46.431v-202.85h10.097v-14.183h1.811v14.183h36.674v-14.183h1.822v14.183h51.91v-14.183h1.822v14.183h32.678v-14.183h1.8v14.183
			h13.424v189.357h51.321v-30.629l60.523,0.271v-49.634h12.168v-9.813h1.619v9.813h46.737v0.023h9.35v-9.836h1.607v9.836h11.274
			v98.68h72.046v36.323h40.059v-21.087h37.149V870.84h18.529v-39.063h2.796v39.063h44.394v-73.212h4.357v73.212h29.374v-1.018
			h-0.046v-9.294h0.046v-8.795h-0.046v-14.636h0.046v-9.338h-0.046v-14.636h0.046v-9.338h-0.046v-14.636h0.046v-10.097h-0.046
			v-14.624h0.046V751.57h-0.046v-14.624h0.046v-9.701h8.749V716.3h1.403v10.945h64.836V716.3h1.393v10.945h11.84v76.54l8.319,0.045
			v-0.045h-0.067v-14.636h0.067v-10.097h-0.067v-14.624h0.067v-10.063h-0.067V739.73h0.067v-0.045h78.623v0.045h13.515
			c0.69,0.385,1.404,0.781,2.105,1.166v97.605h14.466v-14.07h165.95v109.683h50.676v-202.85h11.014v-14.183h1.991v14.183h40.013
			v-14.183h1.981v14.183h56.675v-14.183h1.98v14.183h35.667v-14.183h1.97v14.183h14.658v189.357h56.007v-30.629l66.048,0.271V840.64
			h13.3v-9.825h1.766v9.825h50.993v0.011h10.209v-9.836h1.755v9.836h12.304v98.692h78.634v36.311h43.726v-21.087h40.545v-83.739
			h20.217v-39.051h3.056v39.051h48.458v-73.201h4.754v73.201h23.826c-2.569,22.378-6.406,45.22-11.545,68.515
			c-3.034,13.73-6.509,27.619-10.471,41.654C2770.568,1349.367,3185.244,1365.995,2982.904,1727.845z"/>
	</g>
	<path style="fill:#AFCDFB;" d="M2469.113,235.355v1492.48h-52.171V216.009C2434.564,221.951,2451.967,228.403,2469.113,235.355z"/>
	<path style="fill:#CEE1FD;" d="M1000.642,681.255v1047.529H352.338c-0.26-0.306-0.521-0.622-0.793-0.95
		c-11.692-14.036-35.225-43.579-62.775-85.233c0-0.011-0.012-0.022-0.023-0.045c-73.099-110.565-174.394-306.364-157.347-523.68
		c4.811-61.339,19.039-124.397,46.001-187.739c81.77-192.108,325.73-321.61,545.503-324.214
		c84.271,0.928,164.591,19.118,231.295,57.739C966.684,671.883,982.384,677.464,1000.642,681.255z"/>
	<g>
		<path style="fill:#9FC1F4;" d="M2001.275,170.299v183.8c0,14.33-3.498,26.023-7.765,26.023h-1.109
			c-4.268,0-7.754-11.693-7.754-26.023V172.381C1990.171,171.634,1995.718,170.933,2001.275,170.299z"/>
		<path style="fill:#FF9843;" d="M1988.628,335.903c-60.575,0-109.68,51.924-109.68,115.975h219.36
			C2098.309,387.827,2049.203,335.903,1988.628,335.903z"/>
		<path style="fill:#FFC48A;" d="M1997.365,337.316c-3.151-0.687-6.365-1.049-9.633-1.049c-39.467,0-71.46,51.761-71.46,115.61
			h19.266C1935.538,393.314,1962.455,344.928,1997.365,337.316z"/>
	</g>
	<g>
		<g>
			<path style="fill:#77A4E5;" d="M2710.958,1556.777c0,0-29.188-34.053-1.8-55.684c0,0,20.006-12.111,36.318-11.128
				c0,0-23.115,38.761-15.637,42.615c7.478,3.855,22.643-45.047,22.643-45.047s45.526-4.415,60.172,2.627
				c0,0-38.919,31.849-30.723,33.745c8.197,1.896,50.235-29.365,50.235-29.365s42.373,7.211,40.113,33.06
				c-2.259,25.849-16.859,33.831-23.276,33.144c-6.418-0.688-43.955-15.017-44.772-9.759s21.778,22.44,37.601,23.245
				c0,0-29.873,32.945-49.728,23.437c-19.854-9.508-21.549-24.58-33.925-30.232c-12.377-5.653-22.941-5.639-17.832,0.126
				c5.109,5.766,27.509,11.369,34.586,23.889c7.078,12.519,13.428,20.963-7.113,17.872s-53.932-18.122-55.396-35.333
				C2710.958,1556.777,2710.958,1556.777,2710.958,1556.777z"/>
			<g>
				<path style="fill:#77A4E5;" d="M2851.461,1528.299c0,0-115.088-4.436-140.503,28.479c0,0-5.621,16.834-22.917,32.163
					l-2.696,7.348c0,0,19.942-21.028,27.079-22.3C2712.424,1573.988,2701.264,1533.212,2851.461,1528.299z"/>
				<path style="fill:#77A4E5;" d="M2688.041,1588.94c0,0-24.703,18.269-26.419,50.911l4.483,0.4c0,0,7.89-33.752,22.149-46.95
					C2702.516,1580.103,2688.041,1588.94,2688.041,1588.94z"/>
			</g>
		</g>
		<g>
			<path style="fill:#77A4E5;" d="M2608.904,1513.952c0,0,46.432-26.002,24.764-61.29c0,0-17.335-21.668-35.908-27.24
				c0,0,9.906,52.623,0,53.861c-9.905,1.237-6.81-59.434-6.81-59.434s-48.908-23.525-68.101-21.668c0,0,30.336,51.385,20.431,50.146
				s-43.956-53.242-43.956-53.242s-50.146-9.286-58.194,20.431c-8.048,29.716,4.953,44.574,12.382,46.432
				c7.43,1.857,55.1,1.238,53.861,7.429c-1.238,6.191-33.432,16.097-51.385,10.525c0,0,19.811,48.907,45.813,46.432
				c26.002-2.477,34.051-18.573,50.146-19.812c16.097-1.238,27.859,3.096,19.811,7.43c-8.048,4.333-35.287,1.42-48.289,12.473
				c-13,11.053-23.525,17.862,0.619,22.815c24.146,4.952,67.481,1.857,76.148-16.716
				C2608.904,1513.952,2608.904,1513.952,2608.904,1513.952z"/>
			<g>
				<path style="fill:#77A4E5;" d="M2464.037,1424.803c0,0,130.009,42.098,144.867,89.149c0,0-0.619,21.049,12.381,45.193v9.286
					c0,0-13.619-31.573-21.049-35.907C2600.236,1532.524,2629.334,1491.664,2464.037,1424.803z"/>
				<path style="fill:#77A4E5;" d="M2621.285,1559.146c0,0,20.05,30.446,8.62,67.508l-5.158-1.386c0,0,5.007-40.821-5.483-61.352
					C2608.774,1543.385,2621.285,1559.146,2621.285,1559.146z"/>
			</g>
		</g>
		<g>
			<path style="fill:#9FC1F4;" d="M2682.773,1478.092c0,0-61.206-34.275-32.644-80.792c0,0,22.851-28.563,47.333-35.907
				c0,0-13.058,69.367,0,70.999c13.057,1.632,8.977-78.344,8.977-78.344s64.47-31.011,89.769-28.563
				c0,0-39.987,67.734-26.931,66.103c13.057-1.633,57.941-70.183,57.941-70.183s66.103-12.241,76.711,26.931
				c10.609,39.171-6.528,58.757-16.321,61.205s-72.631,1.633-70.999,9.793c1.633,8.161,44.068,21.219,67.734,13.873
				c0,0-26.114,64.471-60.389,61.206c-34.275-3.264-44.885-24.482-66.103-26.114s-36.724,4.08-26.114,9.793
				c10.608,5.713,46.516,1.872,63.653,16.441s31.011,23.546-0.815,30.075c-31.827,6.528-88.953,2.448-100.378-22.034
				S2682.773,1478.092,2682.773,1478.092z"/>
			<g>
				<path style="fill:#9FC1F4;" d="M2873.735,1360.576c0,0-171.376,55.494-190.962,117.516c0,0,0.815,27.746-16.322,59.573v12.241
					c0,0,17.954-41.619,27.747-47.332C2694.198,1502.574,2655.843,1448.713,2873.735,1360.576z"/>
				<path style="fill:#9FC1F4;" d="M2666.451,1537.665c0,0-26.429,40.134-11.361,88.988l6.799-1.826c0,0-6.6-53.81,7.228-80.873
					S2666.451,1537.665,2666.451,1537.665z"/>
			</g>
		</g>
		<path style="fill:#9FC1F4;" d="M2680.711,1732.596c66.215,0,119.893-53.678,119.893-119.893h-239.785
			C2560.818,1678.918,2614.496,1732.596,2680.711,1732.596z"/>
		<path style="fill:#AFCDFB;" d="M2710.213,1731.678c-4.877,0.609-9.849,0.918-14.896,0.918
			c-66.214,0-119.887-53.68-119.887-119.894h29.785C2605.216,1673.875,2651.026,1724.343,2710.213,1731.678z"/>
		<rect x="2556.876" y="1612.702" style="fill:#9FC1F4;" width="246.454" height="3.678"/>
	</g>
	<g>
		<g>
			<path style="fill:#77A4E5;" d="M2122.563,1726.703l-117.813-488.979l8.229-19.249l116.714,508.172
				c0.3,1.303-0.69,2.545-2.026,2.545h-1.946C2124.22,1729.191,2122.914,1728.163,2122.563,1726.703z"/>
		</g>
		<g>
			<g>
				<path style="fill:#77A4E5;" d="M1590.871,1729.191L1590.871,1729.191c-2.421,0-4.264-2.172-3.87-4.561l34.698-210.321h14.868
					l-41.379,211.328C1594.784,1727.702,1592.975,1729.191,1590.871,1729.191z"/>
			</g>
			<g>
				<path style="fill:#77A4E5;" d="M1923.733,1729.191L1923.733,1729.191c-2.421,0-4.264-2.172-3.87-4.561l34.698-210.321h14.868
					l-41.379,211.328C1927.646,1727.702,1925.837,1729.191,1923.733,1729.191z"/>
			</g>
			<polygon style="fill:#F5FBFF;" points="2004.442,1514.753 1590.036,1514.753 1675.893,976.498 2090.3,976.498 			"/>
			<rect x="1559.511" y="1510.646" style="fill:#77A4E5;" width="475.936" height="15.834"/>
			<g>
				<path style="fill:#BDD1F9;" d="M1840.006,1089.123c-0.314,4.263-0.944,8.447-1.855,12.526
					c-8.638,38.466-42.891,67.94-81.597,68.007c-42.827,0.073-74.891-35.862-71.621-80.27c3.27-44.406,40.634-80.46,83.461-80.533
					c8.977-0.016,17.481,1.552,25.286,4.457c3.515,1.303,6.892,2.871,10.098,4.685c6.932,3.935,13.103,9.004,18.307,14.997
					c2.898,3.335,5.496,6.961,7.764,10.824c1.318,2.238,2.521,4.557,3.599,6.954c3.011,6.657,5.089,13.887,6.095,21.522
					c0.507,3.822,0.734,7.759,0.685,11.767C1840.204,1085.729,1840.131,1087.417,1840.006,1089.123z"/>
				<path style="fill:#FFFFFF;" d="M1833.446,1050.771l-70.973,38.484c0,0,29.284-51.57,41.304-71.26
					c6.932,3.935,13.103,9.004,18.307,14.997c2.898,3.335,5.496,6.961,7.764,10.824
					C1831.166,1046.055,1832.368,1048.373,1833.446,1050.771z"/>
				<path style="fill:#F99746;" d="M1840.819,1041.037l-64.828,35.152c0,0,26.749-47.105,37.729-65.09
					c6.331,3.593,11.968,8.224,16.721,13.699c2.648,3.046,5.021,6.357,7.092,9.886
					C1838.736,1036.729,1839.835,1038.847,1840.819,1041.037z"/>
			</g>
			<g>
				<g>
					<path style="fill:#BDD1F9;" d="M1971.444,1473.836l-341.091-0.023l34.531-196.803l341.092,0.023L1971.444,1473.836z
						 M1633.109,1471.83l336.275,0.023l33.836-192.839l-336.275-0.023L1633.109,1471.83z"/>
				</g>
				<g>
					<path style="fill:#F99746;" d="M1951.104,1446.85l-302.509-0.021c0,0,53.66-28.775,68.384-27.268
						c14.724,1.509,35.875,13.158,49.479,13.611s28.336-40.391,43.479-38.465c15.142,1.925,20.842,38.052,28.685,34.523
						s31.386-5.057,44.945,0.003c13.559,5.061,33.319-16.079,45.242-15.417C1940.732,1414.478,1951.104,1446.85,1951.104,1446.85z"
						/>
					<g>
						<polygon style="fill:#F99746;" points="1721.336,1389.008 1663.558,1389.004 1664.096,1385.939 1721.874,1385.943 						"/>
						<polygon style="fill:#F99746;" points="1720.188,1395.553 1662.409,1395.549 1662.947,1392.484 1720.726,1392.488 						"/>
					</g>
				</g>
				<g>
					<path style="fill:#BDD1F9;" d="M1665.905,1348.179l302.509,0.021c0,0-43.561-28.783-58.813-27.276
						c-15.253,1.506-40.492,13.152-54.255,13.604c-13.764,0.451-14.161-40.394-29.979-38.471
						c-15.816,1.924-34.194,38.049-40.799,34.52c-6.604-3.53-29.61-5.062-44.945-0.004c-15.334,5.059-27.676-16.083-39.831-15.423
						C1687.637,1315.809,1665.905,1348.179,1665.905,1348.179z"/>
					<g>
						<polygon style="fill:#BDD1F9;" points="1737.658,1295.984 1679.88,1295.98 1680.418,1292.916 1738.196,1292.92 						"/>
						<polygon style="fill:#BDD1F9;" points="1736.51,1302.529 1678.731,1302.525 1679.27,1299.461 1737.048,1299.465 						"/>
					</g>
				</g>
			</g>
			<g>
				<polygon style="fill:#BDD1F9;" points="1685.517,1249.563 1672.249,1249.563 1683.778,1187.388 1697.046,1187.388 				"/>
				<polygon style="fill:#BDD1F9;" points="1703.591,1249.563 1690.323,1249.563 1699.255,1201.399 1712.522,1201.399 				"/>
				<polygon style="fill:#BDD1F9;" points="1721.666,1249.563 1708.398,1249.563 1717.712,1199.335 1730.979,1199.335 				"/>
				<polygon style="fill:#BDD1F9;" points="1739.74,1249.563 1726.473,1249.563 1733.558,1211.356 1746.825,1211.356 				"/>
				<polygon style="fill:#BDD1F9;" points="1757.815,1249.563 1744.547,1249.563 1752.147,1208.575 1765.416,1208.575 				"/>
				<polygon style="fill:#BDD1F9;" points="1775.89,1249.563 1762.622,1249.563 1768.517,1217.776 1781.784,1217.776 				"/>
			</g>
			<g>
				<polygon style="fill:#F99746;" points="1863.009,1249.563 1849.741,1249.563 1861.271,1187.388 1874.538,1187.388 				"/>
				<polygon style="fill:#F99746;" points="1881.084,1249.563 1867.815,1249.563 1876.747,1201.399 1890.015,1201.399 				"/>
				<polygon style="fill:#F99746;" points="1899.158,1249.563 1885.891,1249.563 1895.204,1199.335 1908.472,1199.335 				"/>
				<polygon style="fill:#F99746;" points="1917.232,1249.563 1903.965,1249.563 1911.05,1211.356 1924.317,1211.356 				"/>
				<polygon style="fill:#F99746;" points="1935.308,1249.563 1922.039,1249.563 1929.641,1208.575 1942.908,1208.575 				"/>
				<polygon style="fill:#F99746;" points="1953.382,1249.563 1940.114,1249.563 1946.009,1217.776 1959.276,1217.776 				"/>
			</g>
			<g>
				<g>
					<polygon style="fill:#BDD1F9;" points="1926.891,1046.602 1883.699,1046.602 1884.811,1040.686 1928.002,1040.686 					"/>
					<polygon style="fill:#BDD1F9;" points="1979.875,1046.602 1932.185,1046.602 1933.296,1040.686 1980.986,1040.686 					"/>
					<polygon style="fill:#BDD1F9;" points="2013.866,1046.602 1983.463,1046.602 1984.573,1040.686 2014.978,1040.686 					"/>
					<polygon style="fill:#BDD1F9;" points="2042.253,1046.602 2018.79,1046.602 2019.901,1040.686 2043.364,1040.686 					"/>
				</g>
				<g>
					<polygon style="fill:#BDD1F9;" points="1922.15,1071.847 1878.959,1071.847 1880.07,1065.93 1923.262,1065.93 					"/>
					<polygon style="fill:#BDD1F9;" points="1975.135,1071.847 1927.444,1071.847 1928.555,1065.93 1976.246,1065.93 					"/>
					<polygon style="fill:#BDD1F9;" points="2009.126,1071.847 1978.723,1071.847 1979.833,1065.93 2010.237,1065.93 					"/>
					<polygon style="fill:#BDD1F9;" points="2037.513,1071.847 2014.05,1071.847 2015.161,1065.93 2038.624,1065.93 					"/>
				</g>
				<g>
					<polygon style="fill:#BDD1F9;" points="1952.559,1032.797 1886.292,1032.797 1887.403,1026.88 1953.67,1026.88 					"/>
					<polygon style="fill:#BDD1F9;" points="1997.068,1032.797 1958.87,1032.797 1959.981,1026.88 1998.18,1026.88 					"/>
					<polygon style="fill:#BDD1F9;" points="2044.876,1032.797 2002.456,1032.797 2003.567,1026.88 2045.987,1026.88 					"/>
				</g>
				<g>
					<polygon style="fill:#BDD1F9;" points="1947.519,1059.639 1881.252,1059.639 1882.362,1053.722 1948.629,1053.722 					"/>
					<polygon style="fill:#BDD1F9;" points="1992.027,1059.639 1953.83,1059.639 1954.94,1053.722 1993.139,1053.722 					"/>
					<polygon style="fill:#BDD1F9;" points="2039.836,1059.639 1997.416,1059.639 1998.526,1053.722 2040.946,1053.722 					"/>
				</g>
				<g>
					<polygon style="fill:#BDD1F9;" points="1917.41,1097.091 1874.219,1097.091 1875.33,1091.174 1918.521,1091.174 					"/>
					<polygon style="fill:#BDD1F9;" points="1970.394,1097.091 1922.703,1097.091 1923.814,1091.174 1971.505,1091.174 					"/>
					<polygon style="fill:#BDD1F9;" points="2004.386,1097.091 1973.981,1097.091 1975.093,1091.174 2005.496,1091.174 					"/>
					<polygon style="fill:#BDD1F9;" points="2032.772,1097.091 2009.31,1097.091 2010.42,1091.174 2033.883,1091.174 					"/>
				</g>
				<g>
					<polygon style="fill:#BDD1F9;" points="1942.777,1084.883 1876.511,1084.883 1877.622,1078.967 1943.889,1078.967 					"/>
					<polygon style="fill:#BDD1F9;" points="1987.287,1084.883 1949.089,1084.883 1950.2,1078.967 1988.398,1078.967 					"/>
					<polygon style="fill:#BDD1F9;" points="2035.095,1084.883 1992.675,1084.883 1993.786,1078.967 2036.206,1078.967 					"/>
				</g>
				<g>
					<polygon style="fill:#BDD1F9;" points="1912.966,1120.758 1869.774,1120.758 1870.885,1114.841 1914.077,1114.841 					"/>
					<polygon style="fill:#BDD1F9;" points="1965.949,1120.758 1918.26,1120.758 1919.37,1114.841 1967.061,1114.841 					"/>
					<polygon style="fill:#BDD1F9;" points="1999.941,1120.758 1969.537,1120.758 1970.648,1114.841 2001.053,1114.841 					"/>
					<polygon style="fill:#BDD1F9;" points="2028.328,1120.758 2004.865,1120.758 2005.977,1114.841 2029.439,1114.841 					"/>
				</g>
				<g>
					<polygon style="fill:#BDD1F9;" points="1938.334,1108.55 1872.066,1108.55 1873.178,1102.633 1939.444,1102.633 					"/>
					<polygon style="fill:#BDD1F9;" points="1982.843,1108.55 1944.645,1108.55 1945.756,1102.633 1983.954,1102.633 					"/>
					<polygon style="fill:#BDD1F9;" points="2030.65,1108.55 1988.23,1108.55 1989.342,1102.633 2031.762,1102.633 					"/>
				</g>
			</g>
			<g>
				<polygon style="fill:#BDD1F9;" points="1814.675,1196.635 1793.534,1196.635 1794.078,1193.738 1815.219,1193.738 				"/>
				<polygon style="fill:#BDD1F9;" points="1840.608,1196.635 1817.266,1196.635 1817.81,1193.738 1841.152,1193.738 				"/>
				<polygon style="fill:#BDD1F9;" points="1812.354,1208.991 1791.214,1208.991 1791.757,1206.095 1812.898,1206.095 				"/>
				<polygon style="fill:#BDD1F9;" points="1838.288,1208.991 1814.945,1208.991 1815.489,1206.095 1838.832,1206.095 				"/>
				<polygon style="fill:#BDD1F9;" points="1827.238,1189.877 1794.803,1189.877 1795.347,1186.981 1827.782,1186.981 				"/>
				<polygon style="fill:#BDD1F9;" points="1849.024,1189.877 1830.327,1189.877 1830.871,1186.981 1849.568,1186.981 				"/>
				<polygon style="fill:#BDD1F9;" points="1824.771,1203.016 1792.336,1203.016 1792.879,1200.12 1825.314,1200.12 				"/>
				<polygon style="fill:#BDD1F9;" points="1846.557,1203.016 1827.86,1203.016 1828.404,1200.12 1847.101,1200.12 				"/>
			</g>
			<g>
				<polygon style="fill:#BDD1F9;" points="1984.023,1196.635 1962.882,1196.635 1963.426,1193.738 1984.567,1193.738 				"/>
				<polygon style="fill:#BDD1F9;" points="2009.957,1196.635 1986.614,1196.635 1987.158,1193.738 2010.501,1193.738 				"/>
				<polygon style="fill:#BDD1F9;" points="1981.703,1208.991 1960.563,1208.991 1961.105,1206.095 1982.247,1206.095 				"/>
				<polygon style="fill:#BDD1F9;" points="2007.637,1208.991 1984.294,1208.991 1984.838,1206.095 2008.181,1206.095 				"/>
				<polygon style="fill:#BDD1F9;" points="1996.587,1189.877 1964.151,1189.877 1964.695,1186.981 1997.131,1186.981 				"/>
				<polygon style="fill:#BDD1F9;" points="2018.372,1189.877 1999.676,1189.877 2000.22,1186.981 2018.916,1186.981 				"/>
				<polygon style="fill:#BDD1F9;" points="1994.119,1203.016 1961.684,1203.016 1962.228,1200.12 1994.663,1200.12 				"/>
				<polygon style="fill:#BDD1F9;" points="2015.905,1203.016 1997.209,1203.016 1997.752,1200.12 2016.449,1200.12 				"/>
			</g>
		</g>
	</g>
	<g>
		<g>
			<path style="fill:#FFB27D;" d="M2096.496,1721.212c-0.742,10.117-15.017,10.226-31.215,8.347
				c-16.199-1.88-11.893,2.22-34.573,2.535s-30.498-7.181-31.596-10.422c-0.979-2.875,9.945-5.296,21.631-8.141
				c1.471-0.354,2.945-0.725,4.42-1.097c13.177-3.35,21.902-13.212,33.177-21.823c10.679-8.157,24.45-37.68,24.45-37.68
				l30.984-1.398c0,0-13.049,26.462-17.949,37.871c-2.882,6.711-1.655,14.955-0.402,21.283
				C2096.094,1714.129,2096.763,1717.648,2096.496,1721.212z"/>
			<path style="fill:#233862;" d="M2065.281,1729.559c-16.199-1.88-11.893,2.22-34.573,2.535s-30.498-7.181-31.596-10.422
				c-0.979-2.875,9.945-5.296,21.631-8.141l0.14,0.214c0,0,14.604,7.839,33.281,5.961c15.223-1.525,30.757-7.88,41.259-9.019
				c0.671,3.441,1.34,6.961,1.073,10.524C2095.754,1731.329,2081.479,1731.438,2065.281,1729.559z"/>
		</g>
		<g>
			<path style="fill:#FFB27D;" d="M2310.48,1723.31c-0.732,10.118-15.008,10.241-31.208,8.378c-16.2-1.862-11.89,2.232-34.569,2.571
				c-22.681,0.338-30.506-7.149-31.606-10.39c-0.982-2.875,9.939-5.306,21.623-8.163c1.47-0.354,2.943-0.728,4.418-1.101
				c13.174-3.364,21.889-13.234,33.154-21.857c10.671-8.168,0.01-56.524,0.01-56.524l34.079-3.316c0,0-1.635,40.715-1.613,59.226
				c0.009,7.304,3.368,14.327,4.629,20.654C2310.07,1716.228,2310.742,1719.746,2310.48,1723.31z"/>
			<path style="fill:#233862;" d="M2279.272,1731.688c-16.2-1.862-11.89,2.232-34.569,2.571
				c-22.681,0.338-30.506-7.149-31.606-10.39c-0.982-2.875,9.939-5.306,21.623-8.163l0.139,0.214c0,0,14.611,7.823,33.288,5.927
				c15.221-1.541,30.748-7.911,41.25-9.06c0.674,3.44,1.346,6.959,1.084,10.522
				C2309.748,1733.428,2295.473,1733.551,2279.272,1731.688z"/>
		</g>
		<path style="fill:#A9453D;" d="M2211.026,887.551c-5.866-24.128,2.638-35.366,10.311-41.349
			c3.639-8.881,7.792-15.282,12.039-17.696c7.745-4.402,17.026-4.882,23.519-4.499c-1.673-1.725-4.96-2.354-4.96-2.354
			c4.025-0.598,13.011,3.395,13.011,3.395c55.996-21.577,64.798,60.873,63.621,80.029c-1.168,19.153-1.013,41.713,28.121,56.805
			c55.586,28.797-18.475,137.315-18.475,137.315c1.414-15.479-70.009-97.167-107.271-121.631
			c-9.07-13.354-12.295-36.945-12.536-38.802c1.565,18.705,4.767,29.198,7.626,35.106
			C2209.048,958.237,2206.532,920.703,2211.026,887.551z"/>
		<path style="fill:#FFB27D;" d="M2233.147,978.782c-0.187,0.084,17.991,9.523,31.665,5.783
			c12.861-3.507,21.266-20.183,21.088-20.221c-5.447-1.082-7.018-8.566-6.901-40.73l-2.463,0.485l-41.401,8.198
			c0,0,0.941,13.03,0.97,25.304C2236.133,967.907,2235.508,977.682,2233.147,978.782z"/>
		<path style="fill:#ED975D;" d="M2235.135,932.297c0,0,0.941,13.03,0.97,25.304c23.168-0.653,35.414-21.788,40.432-33.503
			L2235.135,932.297z"/>
		<path style="fill:#2A4E96;" d="M2066.684,1669.336c-2.031,6.363,2.533,12.922,9.205,13.233l16.174,0.756l17.114,0.524
			c4.28,0.131,8.37-1.735,11.077-5.056c13.66-16.758,55.708-72.612,81.213-153.765c0.719-2.276,1.474-4.58,2.276-6.911
			c16.844-49.116,51.764-110.767,70.166-166.569c2.929-8.889,5.559-17.255,7.919-25.173c0.755-2.537,1.492-5.027,2.191-7.48
			c13.562-47.12,17.487-78.057,21.106-111.111l-132.88,1.063C2172.246,1208.848,2144.271,1426.28,2066.684,1669.336z"/>
		<path style="fill:#FFFFFF;" d="M2190.849,1132.493c0.335,63.232-9.276,90.361-9.276,90.361s56.895,28.905,124.515,7.628
			c0.796-0.251,48.378-13.724,48.378-13.724c-1.133-2.56-10.533-44.868-11.636-47.216c-14.276-30.658-18.167-43.531-19.861-52.956
			c-3.141-17.597-3.21-35.804-1.645-52.977c4.126-45.458,16.397-83.194,16.397-83.194c-18.425-4.192-35.679-11.557-54.855-18.749
			c-4.41,5.493-17.895,11.24-29.592,10.977c-13.47-0.296-17.838-6.063-17.139-12.358c-14.354,7.987-25.807,15.532-25.807,15.532
			c-12.199,21.19-36.941,41.768-38.733,74.274C2171.152,1058.085,2190.839,1130.722,2190.849,1132.493z"/>
		<path style="fill:#5F9AA8;" d="M2305.127,1139.541c5.81,8.222,16.945,58.189,44.651,64.471
			c-14.276-35.612-25.116-51.228-26.811-62.177c-3.141-20.439-3.21-41.589-1.645-61.536c-9.274-16.256-16.196-27.401-16.196-27.401
			c-0.729-2.629-14.739-45.951-19.229-7.227C2281.418,1084.404,2298.639,1130.346,2305.127,1139.541z"/>
		<path style="fill:#FFB27D;" d="M2227.397,943.92c0,0,54.815,0.904,54.853-33.241c0.037-34.144,7.139-57.024-27.858-59.045
			c-34.996-2.021-41.811,11.001-44.596,22.395C2207.012,885.422,2213.139,942.805,2227.397,943.92z"/>
		<path style="fill:#A9453D;" d="M2229.426,850.798c0,0,15.009,40.058,38.041,45.981c23.033,5.923,33.023-0.248,33.023-0.248
			s-17.667-14.035-21.333-38.534C2279.157,857.997,2240.747,831.732,2229.426,850.798z"/>
		<path style="fill:#A9453D;" d="M2233.146,854.05c0,0-11.208,8.943-13.94,17.638c-2.733,8.695-3.962,26.594-9.179,25.986
			c0,0-11.308-27.228,1.399-42.63C2224.9,838.711,2233.146,854.05,2233.146,854.05z"/>
		<polygon style="fill:#FFB27D;" points="2141.147,1176.382 2115.257,1255.315 2130.024,1261.236 2172.831,1191.499 		"/>
		<path style="fill:#F99746;" d="M2210.949,971.169c0,0-30.526,12.115-39.361,31c-8.836,18.887-22.214,145.571-27.541,158.581
			c-5.328,13.01-9.334,23.31-9.334,23.31s15.392,12.969,30.871,13.924C2181.064,1198.938,2210.949,971.169,2210.949,971.169z"/>
		<path style="fill:#F99746;" d="M2236.135,960.286c0,0-31.714,78.347-32.646,94.203c-0.933,15.856-3.73,259.288-3.73,259.288
			s1.865,11.192-19.587,6.528c-21.452-4.663-27.048-9.326-27.048-9.326s20.519-150.163,14.923-202.394
			c-5.597-52.23,42.903-137.416,42.903-137.416L2236.135,960.286z"/>
		<path style="fill:#1E3D70;" d="M2092.063,1683.325l18.581,0.569c3.321,0.102,6.502-1.328,8.617-3.891
			c12.489-15.125,56.049-71.745,82.206-154.975c0.719-2.276,1.474-4.58,2.276-6.911c16.844-49.116,51.764-110.767,70.166-166.569
			c2.929-8.889,5.559-17.255,7.919-25.173c0.755-2.537,1.492-5.027,2.191-7.48l-19.568-14.849c0,0-58.75,95.135-76.938,184.663
			C2171.715,1566.478,2108.44,1660.055,2092.063,1683.325z"/>
		<path style="fill:#2A4E96;" d="M2262.409,1497.049c-0.318,41.188,1.635,132.991,6.647,177.867
			c0.459,4.107,3.932,7.206,8.065,7.206h13.864c5.844,0,10.216-0.043,13.12-0.085c2.513-0.036,4.659-1.841,5.144-4.307
			c13.788-70.161,23.656-128.451,30.88-178.816c6.044-42.158,11.416-78.3,15.548-109.414c4.16-31.311,7.051-57.528,8.087-79.68
			c0.158-3.488,0.279-6.883,0.345-10.176c0.065-3.311,0.084-6.528,0.056-9.653l-114.813-11.192
			C2250.797,1355.084,2262.596,1471.744,2262.409,1497.049z"/>
		<path style="fill:#1E3D70;" d="M2290.986,1682.122c5.25,0,9.312-0.034,12.188-0.072c3.055-0.04,5.665-2.227,6.253-5.224
			c13.695-69.758,23.51-127.764,30.702-177.912c6.044-42.158,11.416-78.3,15.548-109.414c4.16-31.311,7.051-57.528,8.087-79.68
			l-42.13,24.781c0,0,26.89,9.485,16.63,81.303S2305.266,1671.955,2290.986,1682.122z"/>
		<path style="fill:#F99746;" d="M2285.564,1309.113c0,0,8.087,29.221,36.067,25.49s67.77-20.52,67.77-20.52
			s-11.957-37.783-26.825-87.421c-18-60.093-40.282-137.563-50.784-186.426c-2.947-13.692-4.962-25.127-5.708-33.315l-23.215-45.04
			c0,0-34.612,77.684-36.478,97.271C2244.526,1078.738,2285.564,1309.113,2285.564,1309.113z"/>
		<path style="fill:#FFB27D;" d="M2313.504,1056.233l-30.639-94.352c0.084,0.039,38.696,11.49,58.12,21.303
			c0,0,12.141,15.652,19.652,51.763c0,0,7.937,86.695-9.784,118.406c0,0-55.962,11.192-145.5-19.586v-20.52
			c0,0,97.933,5.13,117.985,7.462L2313.504,1056.233z"/>
		<path style="fill:#ED7D2B;" d="M2286.805,1100.19c1.25,31.712,8.712,93.269,75.24,126.221c0.178,0.084,0.354,0.178,0.531,0.252
			c-18-60.093-40.282-137.563-50.784-186.426C2299.574,1058.499,2286.124,1082.73,2286.805,1100.19z"/>
		<path style="fill:#F99746;" d="M2282.865,961.882c0,0,56.795,4.002,70.475,34.469c13.68,30.468,18.032,131.82,0.622,161.667
			c0,0-23.97,6.826-66.364-1.102c-0.52-0.097-1.041-0.196-1.566-0.298c0,0-13.524-33.11-1.399-39.64c0,0,35.753,1.866,32.022-9.948
			S2282.865,961.882,2282.865,961.882z"/>
		<g>
			<path style="fill:#A9453D;" d="M2140.469,1125.926l1.672,5.377l93.194-28.99c0,0,1.243-1.417,0.63-3.297
				c-0.678-2.076-2.303-2.08-2.303-2.08L2140.469,1125.926z"/>
			<polygon style="fill:#A9453D;" points="2133.729,1131.008 2140.469,1125.926 2142.141,1131.303 			"/>
		</g>
		<path style="fill:#FFB27D;" d="M2118.936,1253.157c0,0-23.642,13.064-26.752,23.019c-3.111,9.955-0.974,30.796,2.779,30.485
			c3.753-0.312,9.353-22.397,12.463-23.952c3.11-1.556,7.466-6.219,7.466-2.799c0,3.421-3.11,9.642-1.556,10.575
			c1.556,0.933,6.532-8.706,9.954-10.575c3.422-1.867,4.859-17.249,8.185-21.379S2118.936,1253.157,2118.936,1253.157z"/>
		<path style="fill:#FFB27D;" d="M2205.354,1113.248c0,0-21.143-13.021-30.012-11.018c-8.87,2.003-31.473,18.374-20.601,21.919
			s19.677-0.174,23.858,2.4c4.181,2.575,7.268,7.282,26.754,7.218S2205.354,1113.248,2205.354,1113.248z"/>
	</g>
	<g>
		<g style="opacity:0.6;">
			<g>
				<path style="fill:#77A4E5;" d="M1181.408,1729.161h-0.349c-2.055,0-3.708-1.691-3.66-3.746l5.551-240.604l16.352-1.907
					l-13.944,242.528C1185.237,1727.525,1183.504,1729.161,1181.408,1729.161z"/>
			</g>
			<g>
				<path style="fill:#77A4E5;" d="M1086.118,1729.161h-0.349c-2.055,0-3.708-1.691-3.66-3.746l5.551-240.604l16.352-1.907
					l-13.944,242.528C1089.947,1727.525,1088.215,1729.161,1086.118,1729.161z"/>
			</g>
			<g>
				<path style="fill:#77A4E5;" d="M1349.063,1729.161h0.349c2.056,0,3.708-1.691,3.661-3.746l-5.551-240.604l-16.352-1.907
					l13.944,242.528C1345.234,1727.525,1346.967,1729.161,1349.063,1729.161z"/>
			</g>
			<path style="fill:#77A4E5;" d="M1075.283,1469.889v-164.873c0-29.011,23.518-52.529,52.529-52.529h118.787
				c29.011,0,52.529,23.519,52.529,52.529v171.174L1075.283,1469.889z"/>
			<path style="fill:#77A4E5;" d="M1320.411,1495.918h-229.355c-8.71,0-15.772-7.062-15.772-15.772v-10.257h245.127V1495.918z"/>
			<path style="fill:#77A4E5;" d="M1347.895,1495.918h-173.516c-6.441,0-11.663-5.222-11.663-11.662v-2.704
				c0-6.441,5.221-11.663,11.663-11.663h173.516c6.441,0,11.663,5.222,11.663,11.663v2.704
				C1359.558,1490.696,1354.336,1495.918,1347.895,1495.918z"/>
		</g>
		<g>
			<path style="fill:#FFB27D;" d="M1477.714,1633.224c1.658,8.287,13.47,6.904,26.667,3.68s10.061,0.608,28.843-1.471
				s24.472-9.083,25.045-11.875c0.513-2.479-8.768-3.353-18.723-4.499c-1.252-0.141-2.509-0.295-3.767-0.45
				c-11.239-1.41-19.47-8.663-29.678-14.619c-9.67-5.642-24.101-28.628-24.101-28.628l-25.759,2.041c0,0,13.517,20.53,18.745,29.456
				c3.075,5.251,2.912,12.192,2.528,17.554C1477.316,1627.326,1477.126,1630.305,1477.714,1633.224z"/>
			<path style="fill:#233862;" d="M1504.381,1636.903c13.197-3.225,10.061,0.608,28.843-1.471s24.472-9.083,25.045-11.875
				c0.513-2.479-8.768-3.353-18.723-4.499l-0.093,0.191c0,0-11.264,7.986-26.898,8.361c-12.743,0.31-26.24-3.342-35.04-3.199
				c-0.199,2.914-0.389,5.893,0.199,8.812C1479.372,1641.511,1491.184,1640.128,1504.381,1636.903z"/>
			<path style="fill:#FFB27D;" d="M1256.35,1670.292c-5.118,6.726,3.732,14.669,14.881,22.433s6.199,7.947,20.183,20.657
				s23,12.345,25.474,10.927c2.198-1.255-3.286-8.793-9.012-17.017c-0.723-1.032-1.438-2.077-2.154-3.123
				c-6.377-9.361-6.383-20.331-8.67-31.927c-2.166-10.984,15.772-51.353,15.772-51.353l-28.817-3.627c0,0-3.764,24.379-7,34.204
				c-1.903,5.779-9.907,9.589-14.181,12.848C1260.509,1666.093,1258.149,1667.921,1256.35,1670.292z"/>
			<path style="fill:#233862;" d="M1271.231,1692.725c11.149,7.764,6.199,7.947,20.183,20.657s23,12.345,25.474,10.927
				c2.198-1.255-3.286-8.793-9.012-17.017l-0.205,0.057c0,0-13.44-3.164-24.064-14.641c-8.662-9.352-14.853-21.889-20.781-28.394
				c-2.317,1.778-4.677,3.606-6.477,5.978C1251.231,1677.018,1260.082,1684.961,1271.231,1692.725z"/>
			<path style="fill:#163560;" d="M1374.032,1463.92l-26.318,70.819l-34.36,92.469c0,0-9.325,0.9-18.253-1.668
				c-8.221-2.376-17.654-8.593-17.654-8.593s9.541-99.286,27.339-156.279c4.561-14.63,9.673-26.463,15.313-33.123
				C1347.689,1394.938,1374.032,1463.92,1374.032,1463.92z"/>
			<path style="fill:#2A4E96;" d="M1347.273,1351.45c-17.242-5.562-69.199-2.244-118.598,7.426l-7.563-13.236l-106.701-8.333
				c0,0-35.21,78.082-15.934,127.834c2.833,7.312,8.463,12.002,18.059,12.156c0.004,0.004,1.554-0.005,1.559,0
				c0,0,63.506-0.037,84.127-0.037c53.064,0,112.301-36.477,119.965-38.009c12.542-2.509,17.56,22.577,30.103,48.917
				c12.543,26.341,117.903,116.649,117.903,116.649s16.193,0.161,22.883-2.348c7.193-2.697,9.826-6.202,9.826-6.202
				S1386.157,1363.993,1347.273,1351.45z"/>
			<path style="fill:#233862;" d="M1183.744,1022.665c-15.018-3.577-35.411,0.623-38.797,1.019
				c-40.521,4.729-49.58,67.674-46.566,85.277c5.555,32.447-10.029,41.586-28.625,67.537
				c-37.287,52.036-11.531,94.881,18.824,105.499c18.213,6.37,43.026-10.977,43.026-10.977c0.458,0.172,64.427-60.904,96.073-90.567
				C1280.87,1158.528,1222.016,1031.779,1183.744,1022.665z"/>
			<path style="fill:#FFB27D;" d="M1192.418,1171.069c0.188,0.063-16.497,10.965-30.098,8.67
				c-12.793-2.147-26.328-18.842-26.16-18.895c5.169-1.576,9.744-7.613,6.513-38.743l2.431,0.23l40.881,3.922
				c0,0,0.352,12.707,1.515,24.594C1188.473,1160.829,1190.026,1170.232,1192.418,1171.069z"/>
			<path style="fill:#ED975D;" d="M1185.986,1126.254c0,0,0.352,12.707,1.515,24.594c-22.495,1.615-36.402-17.66-42.396-28.516
				L1185.986,1126.254z"/>
			<path style="fill:#FFB27D;" d="M1194.604,1136.758c0,0-52.985,6.191-56.333-26.864c-3.348-33.056-12.441-54.52,21.247-59.87
				c33.688-5.352,41.549,6.596,45.35,17.357S1208.301,1134.295,1194.604,1136.758z"/>
			<path style="fill:#233862;" d="M1198.549,1050.404c0,0-25.587,36.629-47.313,44.597c-21.726,7.969-31.998,2.963-31.998,2.963
				s10.364-14.271,13.783-33.908c1.007-5.788,5.025-10.608,10.572-12.545C1159.17,1046.072,1189.206,1037.743,1198.549,1050.404z"/>
			<path style="fill:#233862;" d="M1177.402,1053.104c0,0,13.677,7.809,19.139,14.796c5.271,6.742,10.904,24.647,10.088,32.537
				c0,0,8.616-37.6-5.182-51.279C1186.817,1034.65,1177.402,1053.104,1177.402,1053.104z"/>
			<path style="fill:#FFFFFF;" d="M1233.16,1258.774c-1.599,107.025-0.439,84.661-12.146,94.816
				c-2.821,2.445-10.751,3.902-21.189,4.592c-32.817,2.179-90.506-3.229-92.701-9.293c-7.569-20.985-2.226-27.505-8.541-59.633
				c-0.658-3.417-1.474-7.115-2.43-11.144c-5.266-22.065-10.39-29.572,8.291-65.023c16.941-32.112,35.235-57.765,36.818-56.824
				c44.697,26.533,47.607,3.821,47.607,3.821S1233.943,1206.57,1233.16,1258.774z"/>
			<path style="fill:#2A4E96;" d="M1347.714,1534.739l-35.142,96.321c0,0-12.624,4.112-21.818,2.775
				c-9.366-1.363-14.503-6.475-14.503-6.475s10.736-109.7,28.534-166.693L1347.714,1534.739z"/>
			<path style="fill:#FFFFFF;" d="M1188.872,1160.08c0,0,45.992,7.798,51.393,27.6s44.896,128.921,44.896,128.921
				s-31.094,11.493-41.896,0.692c-10.801-10.802-37.583-100.21-37.583-100.21L1188.872,1160.08z"/>
			<path style="fill:#DFEBFD;" d="M1199.825,1358.183c-32.817,2.179-90.506-3.229-92.701-9.293
				c-7.569-20.985-2.226-27.505-8.541-59.633l15.393-35.046c0,0-2.181,40.107,12.457,53.163c14.622,13.055,59.93,25.2,67.045,36.108
				C1196.91,1348.717,1199.167,1353.967,1199.825,1358.183z"/>
			<g>
				<path style="fill:#FFB27D;" d="M1202.497,1335.344c0,0,9.773,8.431,12.555,9.111c2.782,0.68,4.363,0.049,4.363,0.049
					l-7.124-8.345L1202.497,1335.344z"/>
				<path style="fill:#FFB27D;" d="M1198.624,1325.41l24.748,6.387c0,0-0.642,1.763-3.442,2.197c-2.8,0.434-10.317-0.71-10.317-0.71
					L1198.624,1325.41z"/>
				<path style="fill:#FFB27D;" d="M1156.664,1339.051c0,0,35.327-15.717,41.96-13.641s23.638,11.082,26.306,14.873
					c2.667,3.791-13.927-0.472-19.11-0.796c-3.356-0.21-11.148,4.396-15.018,6.619c-16.282,9.35-27.585,8.519-27.585,8.519
					L1156.664,1339.051z"/>
			</g>
			<path style="fill:#FFFFFF;" d="M1141.263,1156.266c0,0-49.984,9.38-59.244,23.234c-20.203,30.227-63.209,155.47-39.125,172.265
				c27.124,18.913,123.445,4.947,123.445,4.947s3.206-14.982-1.254-22.229c-4.46-7.248-76.934-18.955-80.279-22.3
				c-3.345-3.345,33.045-51.713,29.169-60.97C1101.558,1221.558,1141.263,1156.266,1141.263,1156.266z"/>
			<g>
				<path style="fill:#FFB27D;" d="M1338.849,1333.711c0,0,34.978,9.447,38.574,14.877c3.596,5.43,10.64,22.027,10.34,26.36
					c-0.3,4.334-9.849-8.572-13.427-11.871c-2.316-2.137-10.706-3.392-14.832-4.062c-10.396-1.69-15.41-6.447-19.308-8.814
					c-2.614-1.588-5.787-1.293-5.787-1.293L1338.849,1333.711z"/>
				<path style="fill:#FFB27D;" d="M1374.368,1358.101c0,0,2.125,11.905,3.746,14.044s3.144,2.615,3.144,2.615l-0.249-10.278
					L1374.368,1358.101z"/>
				<path style="fill:#FFB27D;" d="M1377.423,1348.588l14.222,19.27c0,0-1.508,0.902-3.801-0.437
					c-2.293-1.339-7.083-6.613-7.083-6.613L1377.423,1348.588z"/>
				<path style="fill:#FFB27D;" d="M1340.196,1350.201c0,0,3.244,7.872,9.716,10.693c6.474,2.822,11.227,7.061,12.266,5.535
					c1.04-1.524-4.902-9.545-4.902-9.545L1340.196,1350.201z"/>
			</g>
			<path style="fill:#FFFFFF;" d="M1275.875,1290.798l73.563,46.509c0,0-7.729,10.337-10.305,11.281
				c-13.625,4.995-74.886,0.21-95.867-31.295L1275.875,1290.798z"/>
			<g>
				<path style="fill:#F9DDBF;" d="M1246.72,1341.345c4.34-0.006,47.52-2.993,47.52-2.993s-1.246,7.653,1.423,11.747l-42.078,8.051
					l-8.649-2.536L1246.72,1341.345z"/>
				<g>
					<path style="fill:#F99746;" d="M1174.7,1348.284l72.02-6.939c0,0-2.533,13.322,6.865,16.805l-79.398,5.807
						C1174.187,1363.956,1167.793,1354.948,1174.7,1348.284z"/>
					<path style="fill:#F99746;" d="M1294.118,1339.303l-48.672,3.745c0,0,0.365-1.681,1.273-1.703
						c0.909-0.021,48.351-3.468,48.351-3.468l-0.166,1.329L1294.118,1339.303z"/>
					<polygon style="fill:#F99746;" points="1253.585,1358.149 1296.446,1350.004 1296.055,1348.895 1250.37,1357.643 					"/>
				</g>
			</g>
		</g>
	</g>
	<g>
		<g>
			<g>
				<path style="fill:#77A4E5;" d="M754.77,1728.78h-0.387c-2.282,0-4.116-1.888-4.064-4.183l6.162-268.658l18.153-2.13
					l-15.48,270.808C759.021,1726.954,757.098,1728.78,754.77,1728.78z"/>
			</g>
			<g>
				<path style="fill:#77A4E5;" d="M648.989,1728.78h-0.388c-2.281,0-4.116-1.888-4.063-4.183l6.163-268.658l18.152-2.13
					l-15.48,270.808C653.24,1726.954,651.316,1728.78,648.989,1728.78z"/>
			</g>
			<g>
				<path style="fill:#77A4E5;" d="M940.885,1728.78h0.387c2.282,0,4.116-1.888,4.064-4.183l-6.163-268.658l-18.152-2.13
					l15.48,270.808C936.634,1726.954,938.557,1728.78,940.885,1728.78z"/>
			</g>
			<path style="fill:#77A4E5;" d="M636.961,1439.278v-184.098c0-32.394,26.107-58.653,58.313-58.653h131.865
				c32.205,0,58.313,26.26,58.313,58.653v191.132L636.961,1439.278z"/>
			<path style="fill:#77A4E5;" d="M909.077,1468.342H654.521c-9.698,0-17.56-7.861-17.56-17.56v-11.504h272.116V1468.342z"/>
			<path style="fill:#77A4E5;" d="M939.55,1468.342H747.005c-7.171,0-12.984-5.813-12.984-12.984v-3.095
				c0-7.171,5.813-12.984,12.984-12.984H939.55c7.171,0,12.984,5.813,12.984,12.984v3.095
				C952.535,1462.528,946.721,1468.342,939.55,1468.342z"/>
		</g>
		<g>
			<path style="fill:#F9DDBF;" d="M836.012,1128.53c0,0-11.037,9.389-13.435,33.739c-1.821,18.489,11.006,162.03,20.657,173.437
				c27.154,32.099,61.19,18.536,74.522,23.407l12.576-11.299c0,0-44.219-32.637-47.583-43.284
				C869.793,1263.541,877.824,1144.012,836.012,1128.53z"/>
			<path style="fill:#163560;" d="M828.078,1011.453c0,0,0.747-26.325-33.972-31.49c-34.719-5.165-44.312,2.952-50.215,11.806
				c-5.903,8.854-16.972,45.011-15.865,59.4c1.107,14.389,40.707,32.181,40.061,40.577
				C767.442,1100.142,828.078,1011.453,828.078,1011.453z"/>
			<path style="fill:#FFB27D;" d="M989.111,1706.067c-1.125,8.896,11.006,11.515,25.12,12.752
				c14.114,1.236,9.737,4.026,28.987,8.311c19.25,4.285,27.208-0.826,28.705-3.44c1.333-2.317-7.545-6.347-16.998-10.878
				c-1.19-0.566-2.38-1.148-3.571-1.731c-10.634-5.232-16.347-15.319-24.447-24.773c-7.673-8.955-14.265-36.967-14.265-36.967
				l-26.13-6.691c0,0,6.508,25.232,8.697,35.982c1.287,6.323-1.189,13.249-3.356,18.51
				C990.685,1700.003,989.504,1702.934,989.111,1706.067z"/>
			<path style="fill:#233862;" d="M1014.231,1718.819c14.114,1.236,9.737,4.026,28.987,8.311c19.25,4.285,27.208-0.826,28.705-3.44
				c1.333-2.317-7.545-6.347-16.998-10.878l-0.156,0.161c0,0-13.792,4.207-29.364-0.723c-12.693-4.014-24.811-12.266-33.552-15.109
				c-1.168,2.862-2.35,5.793-2.743,8.927C987.985,1714.963,1000.117,1717.582,1014.231,1718.819z"/>
			<path style="fill:#ED7D2B;" d="M793.479,1343.372c0,0,174.684,18.122,203.477,44.863
				c28.793,26.741,23.665,275.865,23.665,275.865c-4.483,4.651-7.789,4.543-14.872,3.986c-6.796-0.534-20.654-6.379-20.654-6.379
				s-37.411-122.327-37.878-150.651c-0.467-28.325-6.384-76.388-18.265-79.223c-11.882-2.834-153.301,13.022-168.805-31.646
				c-15.504-44.669,10.239-81.42,10.239-81.42L793.479,1343.372z"/>
			<path style="fill:#F9DDBF;" d="M711.884,1388.306c7.538,5.047,21.015,12.826,43.627,13.634
				c40.466,1.473,90.96-3.354,100.898-12.739c2.579-2.424,3.841-6.441,4.195-11.533c1.096-15.528-6.32-41.074-11.301-62.215
				c-3.232-13.735-5.435-25.601-3.63-31.667c5.49-18.461,22.546-56.083,24.018-68.445c1.472-12.364-13.282-78.607-33.681-86.81
				c-20.41-8.213-99.139,0-99.139,0c-30.759,6.243-32.054,71.822-21.838,127.64c0.266,1.439,0.531,2.867,0.808,4.283
				C726.911,1317.135,690.854,1374.216,711.884,1388.306z"/>
			<g>
				<path style="fill:#FFB27D;" d="M813.598,1140.594c-0.553,3.597-10.399,9.431-31.444,3.883
					c-20.166-5.315-22.587-11.885-22.583-16.22c0.005-5.133,8.765-12.05,8.651-43.635l2.418,0.476l40.658,8.052
					c0,0-0.925,12.795-0.953,24.849C810.318,1128.119,814.519,1134.607,813.598,1140.594z"/>
				<path style="fill:#ED975D;" d="M811.298,1093.149c0,0-0.925,12.795-0.953,24.849c-22.752-0.642-34.777-21.396-39.705-32.9
					L811.298,1093.149z"/>
				<path style="fill:#FFB27D;" d="M818.896,1104.563c0,0-53.829,0.889-53.866-32.643c-0.037-33.53-7.01-55.998,27.357-57.983
					c34.367-1.984,41.059,10.804,43.793,21.992C838.915,1047.117,832.897,1103.468,818.896,1104.563z"/>
				<path style="fill:#163560;" d="M816.904,1013.115c0,0-14.739,39.338-37.357,45.154c-22.619,5.816-32.43-0.243-32.43-0.243
					s17.35-13.782,20.95-37.842C768.067,1020.185,805.786,994.393,816.904,1013.115z"/>
				<path style="fill:#163560;" d="M813.251,1016.31c0,0,11.007,8.782,13.69,17.32c2.684,8.539,3.891,26.116,9.014,25.519
					c0,0,11.104-26.738-1.375-41.863C821.348,1001.246,813.251,1016.31,813.251,1016.31z"/>
			</g>
			<path style="fill:#FFB27D;" d="M857.917,1713.378c-0.129,8.969,12.216,10.173,26.377,9.775
				c14.161-0.397,10.122,2.879,29.725,4.917c19.603,2.039,26.941-3.956,28.138-6.726c1.067-2.456-8.202-5.437-18.098-8.85
				c-1.245-0.425-2.493-0.867-3.741-1.309c-11.148-3.974-17.946-13.337-27.045-21.798c-8.62-8.013,10.406-46.78,10.406-46.78
				l-24.939-12.343c0,0-4.73,27.679-10.82,51.89c-1.573,6.256-6.702,16.561-8.27,22.037
				C858.806,1707.171,857.958,1710.219,857.917,1713.378z"/>
			<path style="fill:#F2CCAA;" d="M712.958,1381.644c7.538,5.047,19.94,19.488,42.553,20.296
				c37.322-8.488,79.814-18.373,105.094-24.272c1.096-15.528-6.32-41.074-11.301-62.215c-29.475,8.998-73.339-21.661-88.082-33.78
				c-15.496-12.729-15.009-55.143-15.009-55.143l-31.179,29.641c0.266,1.439,0.531,2.867,0.808,4.283
				C726.911,1317.135,691.929,1367.554,712.958,1381.644z"/>
			<path style="fill:#233862;" d="M884.294,1723.153c14.161-0.397,10.122,2.879,29.725,4.917
				c19.603,2.039,26.941-3.956,28.138-6.726c1.067-2.456-8.202-5.437-18.098-8.85l-0.137,0.178c0,0-13.236,5.77-29.256,2.665
				c-13.058-2.524-26.015-9.328-35.017-11.146c-0.843,2.979-1.69,6.026-1.732,9.186
				C857.788,1722.347,870.133,1723.551,884.294,1723.153z"/>
			<path style="fill:#F99746;" d="M755.787,1354.026c44.351-1.263,176.814,9.31,202.262,28.496
				c31.322,23.615-58.16,279.003-58.16,279.003s-10.389,1.006-13.681,0.634c-14.211-1.606-19.999-5.938-19.999-5.938
				s0.345-150.315,10.801-179.067c9.661-26.567,15.581-35.966,3.478-37.553s-163.161,17.684-175.769-27.92
				c-9.849-35.622,4.702-68.589,4.702-68.589S714.872,1355.191,755.787,1354.026z"/>
			<path style="fill:#F9DDBF;" d="M736.873,1128.527c0,0-30.807,2.615-33.205,26.966c-1.821,18.489-15.221,149.637-5.571,161.044
				c27.155,32.098,117.703,38.9,131.035,43.771l3.667-15.179c0,0-96.663-48.7-95.188-59.769
				C739.086,1274.293,766.42,1124.146,736.873,1128.527z"/>
			<path style="fill:#163560;" d="M760.658,993.198c0,0,2.21-14.046-17.271-17.671c-19.481-3.625-19.845,37.752-21.932,47.729
				c-2.087,9.977,3.116,15.951,10.545,16.559C739.43,1040.422,760.658,993.198,760.658,993.198z"/>
			<g>
				<path style="fill:#FFB27D;" d="M833.848,1344.462c0,0,27.529-7.79,34.087-5.969c6.558,1.821,29.024,16.698,25.865,20.737
					c-3.159,4.04-22.951-2.419-32.059-1.195c-9.107,1.224-16.15,5.717-22.708,4.745c-6.557-0.972-13.414-3.55-13.414-3.55
					L833.848,1344.462z"/>
				<path style="fill:#FFB27D;" d="M833.848,1344.462c0,0,13.469-6.92,17.3-10.858c0.483-0.496,1.301-0.393,1.673,0.193
					c1.026,1.619,1.987,4.745-2.737,7.854C843.284,1346.125,833.848,1344.462,833.848,1344.462z"/>
			</g>
			<g>
				<path style="fill:#FFB27D;" d="M930.331,1347.814c0,0,28.567,1.564,34.179,5.415c5.611,3.851,22.035,25.213,17.736,28.009
					c-4.299,2.797-20.924-9.735-29.936-11.534c-9.012-1.798-17.132,0.166-23.019-2.881s-11.536-7.71-11.536-7.71L930.331,1347.814z"
					/>
			</g>
		</g>
	</g>
	<g>
		<g>
			<path style="fill:#1B3051;" d="M734.081,1731.127H617.845c-5.59-6.822-3.531-31.997-2.685-40.217
				c0.174-1.655,0.294-2.62,0.294-2.62s39.692-31.748,45.144-7.438c0.166,0.764,0.368,1.508,0.588,2.243
				c6.868,22.738,37.679,33.072,55.47,35.95C728.224,1720.921,732.5,1726.934,734.081,1731.127z"/>
			<path style="fill:#233862;" d="M416.917,1353.436c4.197,0,199.105,36.596,231.345,76.504
				c16.105,19.937,18.5,250.184,18.5,250.184s-19.926,24.705-62.96,10.36c0,0-31.552-157.531-29.222-205.312
				c0.645-13.212-133.172-1.912-157.664-8.251c-24.492-6.339-84.335-59.618-71.149-85.575
				C358.954,1365.39,416.917,1353.436,416.917,1353.436z"/>
			<path style="fill:#FFB27D;" d="M558.044,1342.619c0,0,12.474,10.764,25.265,13.806c7.296,1.735,14.363,3.712,18.567,5.642
				c11.575,5.313,33.53,29.026,31.487,31.385c-6.546,7.557-32.915-12.127-37.959-10.736c-5.044,1.39,8.275,12.83,2.991,15.938
				c-2.76,1.624-7.959-8.261-12.823-9.651c-6.581-1.883-10.949-11.82-12.918-12.499c-3.836-1.32-19.852-15.683-19.852-15.683
				L558.044,1342.619z"/>
			<path style="fill:#1E3C68;" d="M785.452,1731.127H669.216c-5.59-6.822-3.531-31.997-2.685-40.217
				c0.174-1.655,0.294-2.62,0.294-2.62s39.692-31.748,45.145-7.438c0.165,0.764,0.368,1.508,0.588,2.243
				c6.869,22.738,37.679,33.072,55.47,35.95C779.595,1720.921,783.871,1726.934,785.452,1731.127z"/>
			<path style="fill:#2B478B;" d="M474.353,1353.436c4.196,0,199.105,36.596,231.345,76.504
				c16.106,19.937,18.5,250.184,18.5,250.184s-19.926,24.705-62.959,10.36c0,0-31.552-157.531-29.222-205.312
				c0.644-13.212-133.172-1.912-157.664-8.251c-24.493-6.339-84.335-59.618-71.149-85.575
				C416.39,1365.39,474.353,1353.436,474.353,1353.436z"/>
			<path style="fill:#FFB27D;" d="M462.155,1116.578c-14.021-1.158-28.723-4.895-41.429-9.018
				c-15.883-5.154-28.686-12.687-20.436-27.203c7.604-13.38,19.909-43.269,19.078-68.027l29.555,23.817l20.076,16.177
				c0,0-0.082,9.537-2.276,26.251c-0.402,3.047-0.871,6.336-1.424,9.852c-0.447,2.839,0.858,5.675,3.301,7.19
				c0.152,0.094,0.303,0.188,0.454,0.282C479.03,1102.169,473.898,1117.548,462.155,1116.578z"/>
			<path style="fill:#ED975D;" d="M468.999,1048.388c0,0,1.027,3.463-0.737,16.25c-17.897-2.92-34.63-17.195-34.63-17.195
				c9.112-2.502,12.428-12.349,19.215-11.43L468.999,1048.388z"/>
			<path style="fill:#FFB27D;" d="M485.555,1051.304c0,0-68.847,11.438-75.31-31.546c-6.463-42.984-19.701-70.458,23.982-79.578
				c43.684-9.12,54.71,5.995,60.357,19.818C500.231,973.82,503.297,1047.221,485.555,1051.304z"/>
			<path style="fill:#2B478B;" d="M504.71,940.976c2.957,10.351-4.956,22.958-18.237,27.109
				c-19.715,6.162-15.359,30.345-24.232,30.017c-8.872-0.329-12.451-13.901-20.375-3.057c-6.759,9.249,5.626,20.215,4.774,25.287
				c-1.463,8.708-15.103,26.524-27.396,25.631c-12.292-0.894-35.293-59.312-30.693-77.384c4.601-18.073,23.002-37.131,40.418-39.76
				c17.415-2.628,41.601,4.891,47.187,4.891C481.742,933.708,503.112,935.385,504.71,940.976z"/>
			<path style="fill:#FFFFFF;" d="M521.785,1340.548c-1.151,9.922-3.24,16.669-6.523,18.864
				c-10.264,6.874-23.874,15.422-39.061,23.884c-53.854,30.034-127.585,59.013-142.58,8.26
				c-17.617-59.608-6.043-171.537,11.233-241.058c9.944-40.052,37.452-82.076,56.049-82.033c31.685,0.054,77.237,8.42,95.632,53.79
				c7.12,17.575,17.585,78.483,22.925,134.277C522.648,1289.774,524.013,1321.193,521.785,1340.548z"/>
			<path style="fill:#DFEBFD;" d="M397.71,1068.846l7.175-16.162c0,0,63.611,6.476,74.404,43.026
				C479.289,1095.71,430.118,1069.63,397.71,1068.846z"/>
			<path style="fill:#DFEBFD;" d="M521.785,1340.548c-1.151,9.922-3.24,16.669-6.523,18.864
				c-10.264,6.874-23.874,15.422-39.061,23.884c-15.848-9.635-48.386-32.623-55.996-59.716c-9.944-35.426-2.973-79.017-2.973-79.017
				L521.785,1340.548z"/>
			<path style="fill:#FFFFFF;" d="M410.614,1123.359c0,0,5.517,152.254,14.175,182.355c14.764,51.333,149.419,69.614,149.419,69.614
				s7.943-9.001,4.391-23.926c0,0-80.502-63.452-82.856-75.53c-2.354-12.079,17.54-93.938-5.197-123.705
				C467.81,1122.4,425.89,1096.609,410.614,1123.359z"/>
		</g>
		<g>
			<g>
				<path style="fill:#77A4E5;" d="M241.796,1729.68l-0.443-0.009c-3.626-0.066-6.426-3.03-6.085-6.439l24.19-241.592l21.109,1.884
					l-34.736,242.891C245.56,1728.313,243.825,1729.717,241.796,1729.68z"/>
			</g>
			<g>
				<path style="fill:#77A4E5;" d="M366.31,1729.68l-0.443-0.009c-3.626-0.066-6.427-3.03-6.085-6.439l24.19-241.592l21.108,1.884
					l-34.735,242.891C370.073,1728.313,368.338,1729.717,366.31,1729.68z"/>
			</g>
			<g>
				<path style="fill:#77A4E5;" d="M600.063,1729.68l0.444-0.009c3.626-0.066,6.426-3.03,6.085-6.439l-24.19-241.592l-21.109,1.884
					l34.736,242.891C596.3,1728.313,598.036,1729.717,600.063,1729.68z"/>
			</g>
			<path style="fill:#77A4E5;" d="M248.633,1447.415l-22.96-201.78c-3.011-29.078,6.72-57.551,48.682-59.754l73.821-4.497
				c43.753-1.806,63.507,34.609,69.046,62.644l43.825,221.807L248.633,1447.415z"/>
			<path style="fill:#77A4E5;" d="M260.969,1485.172h327.64c6.583,0,11.969-5.386,11.969-11.969v-14.737
				c0-6.583-5.386-11.969-11.969-11.969H249.001v26.706C249.001,1479.786,254.387,1485.172,260.969,1485.172z"/>
			<path style="fill:#77A4E5;" d="M258.296,1485.172h193.456c5.112,0,9.295-4.183,9.295-9.295v-20.085
				c0-5.112-4.183-9.295-9.295-9.295H249.001v29.38C249.001,1480.989,253.184,1485.172,258.296,1485.172z"/>
		</g>
	</g>
	<path style="fill:#2E3552;" d="M3066.382,1740.054H149.884c-2.265,0-4.119-1.853-4.119-4.118v-3.746
		c0-2.265,1.854-4.118,4.119-4.118h2916.498c2.265,0,4.118,1.854,4.118,4.118v3.746
		C3070.5,1738.201,3068.646,1740.054,3066.382,1740.054z"/>
	<g>
		<path style="fill:#77A4E5;" d="M767.813,834.478H654.392c-5.207,0-9.467-4.26-9.467-9.467V715.54c0-5.207,4.26-9.467,9.467-9.467
			h113.421c5.207,0,9.467,4.26,9.467,9.467v109.472C777.28,830.218,773.02,834.478,767.813,834.478z"/>
		<path style="fill:#DFEBFD;" d="M762.899,828.916H659.305c-4.756,0-8.646-3.891-8.646-8.647v-99.986
			c0-4.756,3.891-8.647,8.646-8.647h103.594c4.756,0,8.647,3.891,8.647,8.647v99.986
			C771.546,825.024,767.655,828.916,762.899,828.916z"/>
		<g>
			<g>
				<circle style="fill:#77A4E5;" cx="711.102" cy="723.354" r="2.742"/>
				<path style="fill:#77A4E5;" d="M730.483,727.229c0.736-1.323,2.405-1.8,3.729-1.065c1.324,0.735,1.8,2.405,1.064,3.729
					c-0.735,1.323-2.404,1.8-3.728,1.064C730.225,730.223,729.748,728.553,730.483,727.229z"/>
				<path style="fill:#77A4E5;" d="M749.437,742.288c1.272-0.821,2.969-0.455,3.79,0.817c0.821,1.272,0.454,2.969-0.817,3.791
					c-1.272,0.821-2.969,0.455-3.791-0.818C747.798,744.806,748.165,743.108,749.437,742.288z"/>
				<path style="fill:#77A4E5;" d="M758.825,765.594c1.514,0,2.742,1.227,2.742,2.742c0,1.514-1.227,2.742-2.742,2.742
					c-1.515,0-2.742-1.227-2.742-2.742C756.083,766.821,757.31,765.594,758.825,765.594z"/>
				<circle style="fill:#77A4E5;" cx="752.093" cy="794.58" r="2.742"/>
				<path style="fill:#77A4E5;" d="M736.815,809.902c1.071,1.071,1.071,2.807,0,3.878s-2.807,1.071-3.877,0
					c-1.07-1.071-1.07-2.807,0-3.878C734.008,808.832,735.744,808.832,736.815,809.902z"/>
				<circle style="fill:#77A4E5;" cx="711.102" cy="818.8" r="2.742"/>
			</g>
			<g>
				<path style="fill:#77A4E5;" d="M691.634,727.229c-0.735-1.323-2.405-1.8-3.729-1.065c-1.323,0.735-1.8,2.405-1.065,3.729
					c0.735,1.323,2.405,1.8,3.729,1.064C691.893,730.223,692.369,728.553,691.634,727.229z"/>
				<path style="fill:#77A4E5;" d="M672.681,742.288c-1.272-0.821-2.969-0.455-3.79,0.817c-0.821,1.272-0.455,2.969,0.817,3.791
					c1.272,0.821,2.969,0.455,3.79-0.818C674.319,744.806,673.953,743.108,672.681,742.288z"/>
				<path style="fill:#77A4E5;" d="M663.292,765.594c-1.514,0-2.742,1.227-2.742,2.742c0,1.514,1.227,2.742,2.742,2.742
					c1.514,0,2.742-1.227,2.742-2.742C666.034,766.821,664.807,765.594,663.292,765.594z"/>
				<circle style="fill:#77A4E5;" cx="670.025" cy="794.58" r="2.742"/>
				<path style="fill:#77A4E5;" d="M685.302,809.902c-1.071,1.071-1.071,2.807,0,3.878s2.807,1.071,3.878,0s1.071-2.807,0-3.878
					C688.109,808.832,686.373,808.832,685.302,809.902z"/>
			</g>
		</g>
		<g>
			<path style="fill:#77A4E5;" d="M710.363,768.335c0-1.514,1.227-2.742,2.742-2.742c1.514,0,2.742,1.227,2.742,2.742
				c0,1.514-1.228,2.742-2.742,2.742C711.591,771.077,710.363,769.85,710.363,768.335z"/>
			<g>
				<rect x="712.73" y="734.084" style="fill:#77A4E5;" width="0.749" height="34.251"/>
			</g>
			<g>
				
					<rect x="710.296" y="760.037" transform="matrix(0.7866 -0.6175 0.6175 0.7866 -315.9454 608.1252)" style="fill:#77A4E5;" width="23.084" height="2.246"/>
			</g>
		</g>
	</g>
</g>
</svg>
