<svg width="725" height="210" viewBox="0 0 725 210" fill="none" xmlns="http://www.w3.org/2000/svg">
<path d="M652.69 204.86H659.59V181.15H652.69V204.86Z" fill="#F5F5F5"/>
<path d="M682.303 181.07C682.303 181.07 681.963 180.85 682.713 179.87C682.802 179.749 682.862 179.609 682.89 179.461C682.917 179.313 682.911 179.161 682.872 179.016C682.832 178.871 682.761 178.737 682.662 178.623C682.564 178.509 682.441 178.42 682.303 178.36C679.043 180.24 674.493 178.36 674.493 178.36C674.493 178.36 679.863 176.71 680.493 175.12C681.003 173.94 680.113 173.81 679.623 173.82C680.173 173.82 681.363 173.57 681.723 172.94C682.193 172.11 680.333 171.13 680.333 171.13C680.428 170.932 680.478 170.715 680.478 170.495C680.478 170.275 680.428 170.058 680.333 169.86C680.023 169.03 673.023 167.86 673.023 167.86C673.62 167.902 674.214 167.749 674.717 167.424C675.22 167.1 675.605 166.621 675.813 166.06C675.813 166.06 679.273 166.13 680.093 164.78C680.913 163.43 679.543 163.04 677.243 161.92C674.943 160.8 669.833 156.57 669.833 156.57C669.833 156.57 673.023 156.27 673.913 155.52C674.803 154.77 673.973 154.61 673.973 154.61C677.783 154.99 676.493 152.96 676.493 152.96C673.475 152.053 670.77 150.321 668.683 147.96C669.987 147.673 671.214 147.111 672.283 146.31C673.503 145.18 671.283 144.88 671.283 144.88C671.283 144.88 675.763 144.28 673.183 142.62C671.183 141.36 668.083 139.67 667.103 139.16C668.264 139.352 669.451 139.325 670.603 139.08C673.453 137.8 670.603 135.92 670.603 135.92C667.273 134.04 662.383 129.3 662.383 129.3C662.383 129.3 664.833 130.57 666.053 130.2C667.273 129.83 664.693 128.32 664.693 128.32C664.693 128.32 665.983 128.69 666.523 128.32C667.063 127.95 665.103 126.21 665.103 126.21C662.173 124.31 658.563 119.31 657.103 117.21C655.593 119.35 651.983 124.35 649.053 126.21C649.053 126.21 647.053 127.94 647.633 128.32C648.213 128.7 649.463 128.32 649.463 128.32C649.463 128.32 646.883 129.82 648.103 130.2C649.323 130.58 651.773 129.3 651.773 129.3C651.773 129.3 646.883 134.04 643.553 135.92C643.553 135.92 640.703 137.8 643.553 139.08C644.704 139.325 645.891 139.352 647.053 139.16C646.053 139.67 642.933 141.36 640.973 142.62C638.393 144.28 642.873 144.88 642.873 144.88C642.873 144.88 640.633 145.18 641.873 146.31C642.941 147.111 644.169 147.673 645.473 147.96C643.385 150.321 640.681 152.053 637.663 152.96C637.663 152.96 636.373 154.96 640.183 154.61C640.183 154.61 639.363 154.76 640.243 155.52C641.123 156.28 644.323 156.57 644.323 156.57C644.323 156.57 639.233 160.79 636.923 161.92C634.613 163.05 633.253 163.42 634.063 164.78C634.873 166.14 638.343 166.06 638.343 166.06C638.551 166.621 638.935 167.1 639.438 167.424C639.941 167.749 640.536 167.902 641.133 167.86C641.133 167.86 634.133 169.07 633.833 169.86C633.734 170.057 633.683 170.275 633.683 170.495C633.683 170.715 633.734 170.933 633.833 171.13C633.833 171.13 631.963 172.13 632.433 172.94C632.803 173.57 633.983 173.77 634.533 173.82C634.043 173.82 633.153 173.94 633.663 175.12C634.343 176.71 639.663 178.36 639.663 178.36C639.663 178.36 635.113 180.24 631.853 178.36C631.715 178.42 631.592 178.509 631.493 178.623C631.395 178.737 631.323 178.871 631.284 179.016C631.244 179.161 631.238 179.313 631.266 179.461C631.293 179.609 631.354 179.749 631.443 179.87C632.193 180.87 631.853 181.07 631.853 181.07C631.853 181.07 630.153 179.79 630.853 181.75C631.553 183.71 635.543 184.91 635.543 184.91C635.543 184.91 633.293 185.29 633.973 186.49C634.653 187.69 637.513 189.13 640.633 189.43C643.107 189.511 645.579 189.232 647.973 188.6C647.973 188.6 645.113 190.1 647.083 190.93C649.053 191.76 651.293 189.88 651.293 189.88C651.293 189.88 650.893 191.81 652.523 191.14C653.622 190.661 654.635 190.006 655.523 189.2C655.523 189.2 656.033 192.04 657.053 191.36C658.053 192.04 658.583 189.2 658.583 189.2C659.471 190.004 660.485 190.66 661.583 191.14C663.213 191.81 662.803 189.88 662.803 189.88C662.803 189.88 665.043 191.76 667.013 190.93C668.983 190.1 666.133 188.6 666.133 188.6C668.523 189.232 670.992 189.512 673.463 189.43C676.593 189.13 679.463 187.7 680.123 186.49C680.783 185.28 678.563 184.91 678.563 184.91C678.563 184.91 682.493 183.71 683.243 181.75C683.993 179.79 682.303 181.07 682.303 181.07Z" fill="#F5F5F5"/>
<path d="M57.5531 204.86H64.4531V181.15H57.5531V204.86Z" fill="#F5F5F5"/>
<path d="M87.1595 181.07C87.1595 181.07 86.8195 180.85 87.5695 179.87C87.6585 179.749 87.719 179.609 87.7466 179.461C87.7741 179.314 87.7679 179.161 87.7285 179.016C87.6891 178.871 87.6175 178.737 87.519 178.623C87.4205 178.51 87.2976 178.42 87.1595 178.36C83.8995 180.24 79.3495 178.36 79.3495 178.36C79.3495 178.36 84.7095 176.71 85.3495 175.12C85.8595 173.94 84.9695 173.81 84.4795 173.82C85.0295 173.82 86.2095 173.57 86.5795 172.94C87.0495 172.11 85.1795 171.13 85.1795 171.13C85.2781 170.933 85.3294 170.716 85.3294 170.495C85.3294 170.275 85.2781 170.057 85.1795 169.86C84.8795 169.03 77.8795 167.86 77.8795 167.86C78.4766 167.902 79.0712 167.749 79.5741 167.424C80.0771 167.1 80.4614 166.621 80.6695 166.06C80.6695 166.06 84.1295 166.13 84.9495 164.78C85.7695 163.43 84.3995 163.04 82.0895 161.92C79.7795 160.8 74.6895 156.57 74.6895 156.57C74.6895 156.57 77.8795 156.27 78.7595 155.52C79.6395 154.77 78.8295 154.61 78.8295 154.61C82.6395 154.99 81.3495 152.96 81.3495 152.96C78.3316 152.053 75.6268 150.321 73.5395 147.96C74.8436 147.673 76.0711 147.111 77.1395 146.31C78.3595 145.18 76.1395 144.88 76.1395 144.88C76.1395 144.88 80.6195 144.28 78.0395 142.62C76.0395 141.36 72.9395 139.67 71.9595 139.16C73.121 139.352 74.3081 139.325 75.4595 139.08C78.3095 137.8 75.4595 135.92 75.4595 135.92C72.1295 134.04 67.2395 129.3 67.2395 129.3C67.2395 129.3 69.6795 130.57 70.9095 130.2C72.1395 129.83 69.5495 128.32 69.5495 128.32C69.5495 128.32 70.8395 128.69 71.3795 128.32C71.9195 127.95 69.9995 126.12 69.9995 126.12C67.0695 124.22 63.4595 119.22 61.9995 117.12C60.4895 119.26 56.8795 124.26 53.9495 126.12C53.9495 126.12 51.9495 127.85 52.5295 128.23C53.1095 128.61 54.3595 128.23 54.3595 128.23C54.3595 128.23 51.7795 129.73 52.9995 130.11C54.2195 130.49 56.6695 129.21 56.6695 129.21C56.6695 129.21 51.7795 133.95 48.4495 135.83C48.4495 135.83 45.5995 137.71 48.4495 138.99C49.601 139.235 50.7881 139.262 51.9495 139.07C50.9495 139.58 47.8295 141.27 45.8695 142.53C43.2895 144.19 47.7695 144.79 47.7695 144.79C47.7695 144.79 45.5295 145.09 46.7695 146.22C47.838 147.021 49.0655 147.583 50.3695 147.87C48.2823 150.231 45.5775 151.963 42.5595 152.87C42.5595 152.87 41.2695 154.87 45.0695 154.52C45.0695 154.52 44.2595 154.67 45.1395 155.43C46.0195 156.19 49.2195 156.48 49.2195 156.48C49.2195 156.48 44.1195 160.7 41.8095 161.83C39.4995 162.96 38.1495 163.33 38.9595 164.69C39.7695 166.05 43.1495 166 43.1495 166C43.3577 166.561 43.742 167.04 44.245 167.364C44.7479 167.689 45.3424 167.842 45.9395 167.8C45.9395 167.8 38.9395 169.01 38.6295 169.8C38.5339 169.998 38.4842 170.215 38.4842 170.435C38.4842 170.655 38.5339 170.872 38.6295 171.07C38.6295 171.07 36.7695 172.07 37.2395 172.88C37.5995 173.51 38.7895 173.71 39.3395 173.76C38.8495 173.76 37.9595 173.88 38.4595 175.06C39.1395 176.65 44.4595 178.3 44.4595 178.3C44.4595 178.3 39.9095 180.18 36.6495 178.3C36.5115 178.36 36.3886 178.45 36.2901 178.563C36.1916 178.677 36.12 178.811 36.0806 178.956C36.0412 179.101 36.035 179.254 36.0625 179.401C36.09 179.549 36.1505 179.689 36.2395 179.81C36.9895 180.81 36.6495 181.01 36.6495 181.01C36.6495 181.01 34.9495 179.73 35.6495 181.69C36.3495 183.65 40.3295 184.85 40.3295 184.85C40.3295 184.85 38.0895 185.23 38.7695 186.43C39.4495 187.63 42.2995 189.07 45.4295 189.37C47.9003 189.452 50.3697 189.172 52.7595 188.54C52.7595 188.54 49.9995 190.1 51.9995 190.93C53.9995 191.76 56.2095 189.88 56.2095 189.88C56.2095 189.88 55.7995 191.81 57.4295 191.14C58.5277 190.66 59.5408 190.005 60.4295 189.2C60.4295 189.2 60.9395 192.04 61.9595 191.36C62.9595 192.04 63.4895 189.2 63.4895 189.2C64.3771 190.006 65.3905 190.661 66.4895 191.14C68.1195 191.81 67.7195 189.88 67.7195 189.88C67.7195 189.88 69.9595 191.76 71.9295 190.93C73.8995 190.1 70.9995 188.6 70.9995 188.6C73.3929 189.232 75.8655 189.512 78.3395 189.43C81.4595 189.13 84.3395 187.7 84.9995 186.49C85.6595 185.28 83.4295 184.91 83.4295 184.91C83.4295 184.91 87.3695 183.71 88.1195 181.75C88.8695 179.79 87.1595 181.07 87.1595 181.07Z" fill="#F5F5F5"/>
<path d="M686.422 204.86H694.832V175.94H686.422V204.86Z" fill="#EBEBEB"/>
<path d="M722.53 175.84C722.53 175.84 722.12 175.57 723.03 174.38C723.151 174.237 723.235 174.066 723.275 173.883C723.316 173.7 723.311 173.51 723.262 173.329C723.213 173.149 723.12 172.982 722.993 172.845C722.866 172.707 722.707 172.603 722.53 172.54C718.53 174.83 713 172.54 713 172.54C713 172.54 719.55 170.54 720.38 168.59C720.99 167.15 719.9 166.99 719.31 167C719.98 166.93 721.43 166.7 721.87 165.93C722.45 164.93 720.17 163.72 720.17 163.72C720.288 163.477 720.349 163.211 720.349 162.94C720.349 162.67 720.288 162.404 720.17 162.16C719.8 161.16 711.26 159.68 711.26 159.68C711.988 159.73 712.713 159.542 713.326 159.146C713.939 158.749 714.407 158.165 714.66 157.48C714.66 157.48 718.88 157.57 719.88 155.92C720.88 154.27 719.22 153.81 716.4 152.43C713.58 151.05 707.4 145.91 707.4 145.91C707.4 145.91 711.29 145.54 712.4 144.63C713.51 143.72 712.48 143.52 712.48 143.52C717.12 143.98 715.55 141.52 715.55 141.52C711.863 140.397 708.563 138.267 706.02 135.37C707.61 135.025 709.107 134.343 710.41 133.37C711.9 132 709.17 131.63 709.17 131.63C709.17 131.63 714.64 130.89 711.49 128.87C709.1 127.34 705.27 125.27 704.08 124.65C705.38 125.13 708.34 124.56 708.34 124.56C711.82 123 708.34 120.7 708.34 120.7C704.28 118.41 698.34 112.62 698.34 112.62C698.34 112.62 701.34 114.18 702.81 113.72C704.28 113.26 701.15 111.43 701.15 111.43C701.15 111.43 702.73 111.89 703.39 111.43C704.05 110.97 701.65 108.86 701.65 108.86C698.08 106.54 693.65 100.45 691.84 97.8604C689.99 100.48 685.59 106.57 682.02 108.86C682.02 108.86 679.62 110.97 680.28 111.43C680.94 111.89 682.52 111.43 682.52 111.43C682.52 111.43 679.37 113.26 680.86 113.72C682.35 114.18 685.33 112.62 685.33 112.62C685.33 112.62 679.33 118.41 675.33 120.7C675.33 120.7 671.85 123 675.33 124.56C675.33 124.56 678.33 125.13 679.59 124.65C678.4 125.27 674.59 127.34 672.18 128.87C669.04 130.87 674.5 131.63 674.5 131.63C674.5 131.63 671.77 132 673.26 133.37C674.564 134.343 676.061 135.025 677.65 135.37C675.074 138.281 671.73 140.406 668 141.5C668 141.5 666.43 143.98 671.07 143.5C671.07 143.5 670.07 143.69 671.15 144.61C672.23 145.53 676.15 145.89 676.15 145.89C676.15 145.89 669.94 151.03 667.15 152.41C664.36 153.79 662.68 154.25 663.67 155.9C664.66 157.55 668.89 157.46 668.89 157.46C669.143 158.145 669.611 158.729 670.224 159.126C670.837 159.522 671.562 159.71 672.29 159.66C672.29 159.66 663.76 161.13 663.38 162.14C663.262 162.384 663.201 162.65 663.201 162.92C663.201 163.191 663.262 163.457 663.38 163.7C663.38 163.7 661.11 164.9 661.69 165.91C662.13 166.68 663.57 166.91 664.24 166.98C663.65 166.98 662.56 167.13 663.18 168.57C664 170.5 670.55 172.52 670.55 172.52C670.55 172.52 665 174.81 661.02 172.52C660.843 172.582 660.683 172.686 660.555 172.824C660.428 172.962 660.336 173.129 660.287 173.31C660.239 173.492 660.236 173.683 660.278 173.866C660.32 174.049 660.407 174.219 660.53 174.36C661.44 175.55 661.02 175.82 661.02 175.82C661.02 175.82 658.95 174.26 659.86 176.65C660.77 179.04 665.58 180.51 665.58 180.51C665.58 180.51 662.85 180.97 663.67 182.43C664.49 183.89 667.98 185.65 671.79 186.02C674.823 186.125 677.854 185.788 680.79 185.02C680.79 185.02 677.31 186.85 679.71 187.86C682.11 188.87 684.85 186.58 684.85 186.58C684.85 186.58 684.35 188.93 686.34 188.12C687.673 187.532 688.903 186.732 689.98 185.75C689.98 185.75 690.6 189.21 691.85 188.38C693.09 189.21 693.71 185.75 693.71 185.75C694.79 186.729 696.018 187.529 697.35 188.12C699.35 188.93 698.84 186.58 698.84 186.58C698.84 186.58 701.58 188.87 703.98 187.86C706.38 186.85 702.9 185.02 702.9 185.02C705.836 185.788 708.868 186.125 711.9 186.02C715.71 185.65 719.19 183.9 720.02 182.43C720.85 180.96 718.11 180.51 718.11 180.51C718.11 180.51 722.92 179.04 723.83 176.65C724.74 174.26 722.53 175.84 722.53 175.84Z" fill="#EBEBEB"/>
<path d="M703.86 120.94L703.73 120.88C703.778 120.889 703.822 120.91 703.86 120.94Z" fill="#EBEBEB"/>
<path d="M26.672 204.86H35.082V175.94H26.672L26.672 204.86Z" fill="#EBEBEB"/>
<path d="M62.7812 175.84C62.7812 175.84 62.3612 175.57 63.2812 174.38C63.4018 174.237 63.4859 174.066 63.5263 173.883C63.5666 173.7 63.562 173.51 63.5129 173.329C63.4637 173.149 63.3715 172.982 63.2441 172.845C63.1167 172.707 62.9578 172.603 62.7812 172.54C58.7812 174.83 53.2512 172.54 53.2512 172.54C53.2512 172.54 59.8012 170.54 60.6212 168.59C61.2412 167.15 60.1512 166.99 59.5612 167C60.2312 166.93 61.6812 166.7 62.1212 165.93C62.7012 164.93 60.4212 163.72 60.4212 163.72C60.5389 163.477 60.6001 163.211 60.6001 162.94C60.6001 162.67 60.5389 162.404 60.4212 162.16C60.0512 161.16 51.5112 159.68 51.5112 159.68C52.2395 159.73 52.9643 159.542 53.5771 159.146C54.19 158.749 54.658 158.165 54.9112 157.48C54.9112 157.48 59.1312 157.57 60.1312 155.92C61.1312 154.27 59.4712 153.81 56.6512 152.43C53.8312 151.05 47.6512 145.91 47.6512 145.91C47.6512 145.91 51.5412 145.54 52.6512 144.63C53.7612 143.72 52.7312 143.52 52.7312 143.52C57.3712 143.98 55.8012 141.52 55.8012 141.52C52.1128 140.4 48.8116 138.27 46.2712 135.37C47.8607 135.025 49.3578 134.343 50.6612 133.37C52.1512 132 49.4212 131.63 49.4212 131.63C49.4212 131.63 54.8912 130.89 51.7412 128.87C49.3512 127.34 45.5212 125.27 44.3312 124.65C45.6312 125.13 48.5912 124.56 48.5912 124.56C52.0712 123 48.5912 120.7 48.5912 120.7C44.5312 118.41 38.5912 112.62 38.5912 112.62C38.5912 112.62 41.5912 114.18 43.0612 113.72C44.5312 113.26 41.4012 111.43 41.4012 111.43C41.4012 111.43 42.9812 111.89 43.6412 111.43C44.3012 110.97 41.9012 108.86 41.9012 108.86C38.3312 106.54 33.9012 100.45 32.0912 97.8604C30.2412 100.48 25.8412 106.57 22.2712 108.86C22.2712 108.86 19.8712 110.97 20.5312 111.43C21.1912 111.89 22.7712 111.43 22.7712 111.43C22.7712 111.43 19.6212 113.26 21.1112 113.72C22.6012 114.18 25.5812 112.62 25.5812 112.62C25.5812 112.62 19.5812 118.41 15.5812 120.7C15.5812 120.7 12.1012 123 15.5812 124.56C15.5812 124.56 18.5812 125.13 19.8412 124.65C18.6512 125.27 14.8412 127.34 12.4312 128.87C9.2812 130.87 14.7512 131.63 14.7512 131.63C14.7512 131.63 12.0212 132 13.5112 133.37C14.8146 134.343 16.3117 135.025 17.9012 135.37C15.3608 138.27 12.0596 140.4 8.3712 141.52C8.3712 141.52 6.8012 144 11.4412 143.52C11.4412 143.52 10.4412 143.71 11.5212 144.63C12.6012 145.55 16.5212 145.91 16.5212 145.91C16.5212 145.91 10.3112 151.05 7.5212 152.43C4.7312 153.81 3.0512 154.27 4.0412 155.92C5.0312 157.57 9.2612 157.48 9.2612 157.48C9.51435 158.165 9.98237 158.749 10.5952 159.146C11.2081 159.542 11.9329 159.73 12.6612 159.68C12.6612 159.68 4.1212 161.15 3.7512 162.16C3.63347 162.404 3.57231 162.67 3.57231 162.94C3.57231 163.211 3.63347 163.477 3.7512 163.72C3.7512 163.72 1.4712 164.92 2.0512 165.93C2.5012 166.7 3.9412 166.93 4.6112 167C4.0212 167 2.9312 167.15 3.5512 168.59C4.3712 170.52 10.9212 172.54 10.9212 172.54C10.9212 172.54 5.3712 174.83 1.3912 172.54C1.21456 172.603 1.05573 172.707 0.928304 172.845C0.800876 172.982 0.708643 173.149 0.659498 173.329C0.610352 173.51 0.605759 173.7 0.64611 173.883C0.686461 174.066 0.770556 174.237 0.891197 174.38C1.8112 175.57 1.3912 175.84 1.3912 175.84C1.3912 175.84 -0.678804 174.28 0.231196 176.67C1.1412 179.06 5.9512 180.53 5.9512 180.53C5.9512 180.53 3.2112 180.99 4.0412 182.45C4.8712 183.91 8.1912 185.67 12.0012 186C15.0338 186.105 18.0656 185.768 21.0012 185C21.0012 185 17.5212 186.83 19.9212 187.84C22.3212 188.85 25.0012 186.59 25.0012 186.59C25.0012 186.59 24.5012 188.94 26.4912 188.13C27.8245 187.542 29.0537 186.742 30.1312 185.76C30.1312 185.76 30.7512 189.22 32.0012 188.39C33.2412 189.22 33.8612 185.76 33.8612 185.76C34.9387 186.742 36.1679 187.542 37.5012 188.13C39.5012 188.94 38.9912 186.59 38.9912 186.59C38.9912 186.59 41.7312 188.88 44.1312 187.87C46.5312 186.86 43.0612 185 43.0612 185C45.9968 185.768 49.0286 186.105 52.0612 186C55.8712 185.63 59.3512 183.88 60.1812 182.41C61.0112 180.94 58.2712 180.49 58.2712 180.49C58.2712 180.49 63.0812 179.02 63.9912 176.63C64.9012 174.24 62.7812 175.84 62.7812 175.84Z" fill="#EBEBEB"/>
<path d="M44.1105 120.94L43.9805 120.88C44.0279 120.889 44.0724 120.91 44.1105 120.94Z" fill="#EBEBEB"/>
<path d="M231.492 52.4907C230.74 50.1952 229.68 48.0121 228.342 46.0007C227.666 44.99 226.792 44.1269 225.772 43.4635C224.753 42.8001 223.61 42.3501 222.412 42.1407C221.208 41.9684 219.981 42.1985 218.922 42.7952C217.862 43.392 217.029 44.3219 216.552 45.4407C216.202 40.2707 215.472 34.9607 212.882 30.4407C210.292 25.9207 205.462 22.4407 200.282 22.7407C195.402 23.0407 191.232 26.6607 188.902 30.9607C186.572 35.2607 185.792 40.1907 185.002 45.0007C183.152 42.7307 179.252 43.4407 177.322 45.6407C175.392 47.8407 174.902 50.9207 174.492 53.8207H232.712L231.492 52.4907Z" fill="#EBEBEB"/>
<path d="M544.93 55.6703C544.181 53.361 543.121 51.1642 541.78 49.1403C541.104 48.1297 540.229 47.2666 539.21 46.6031C538.191 45.9397 537.048 45.4897 535.85 45.2803C534.646 45.108 533.419 45.3381 532.359 45.9349C531.3 46.5316 530.467 47.4616 529.99 48.5803C529.65 43.4103 528.91 38.1003 526.32 33.5803C523.73 29.0603 518.9 25.5803 513.73 25.8803C508.85 26.1803 504.67 29.8003 502.35 34.1003C500.03 38.4003 499.23 43.3403 498.47 48.1703C496.62 45.9003 492.71 46.6103 490.78 48.8103C488.85 51.0103 488.37 54.1203 488 57.0003H546.22L544.93 55.6703Z" fill="#EBEBEB"/>
<path d="M271.172 26.3503C270.808 25.2391 270.3 24.1801 269.662 23.2003C269.334 22.7154 268.912 22.3016 268.42 21.9837C267.929 21.6658 267.378 21.4504 266.802 21.3503C266.225 21.2711 265.639 21.3839 265.133 21.6712C264.626 21.9586 264.229 22.4046 264.002 22.9403C263.97 20.4345 263.368 17.9688 262.242 15.7303C261.661 14.623 260.791 13.694 259.723 13.0424C258.656 12.3908 257.432 12.041 256.182 12.0303C255.007 12.1777 253.888 12.6187 252.929 13.3126C251.969 14.0064 251.2 14.9307 250.692 16.0003C249.688 18.1341 249.055 20.4237 248.822 22.7703C247.932 21.6803 246.052 22.0203 245.122 23.0803C244.303 24.23 243.831 25.5904 243.762 27.0003H271.762L271.172 26.3503Z" fill="#F5F5F5"/>
<path d="M703.93 62.1107C703.567 61.0097 703.055 59.9634 702.409 59.0007C702.084 58.5161 701.663 58.1024 701.174 57.7845C700.684 57.4666 700.135 57.251 699.56 57.1507C698.981 57.0644 698.39 57.1727 697.879 57.4587C697.369 57.7447 696.968 58.1921 696.74 58.7307C696.703 56.2287 696.102 53.7673 694.979 51.5307C693.729 49.3707 691.409 47.6707 688.919 47.8207C687.745 47.9789 686.629 48.4276 685.672 49.1261C684.716 49.8245 683.948 50.7507 683.44 51.8207C682.441 53.9564 681.808 56.2451 681.57 58.5907C680.69 57.5007 678.81 57.8407 677.88 58.9007C677.054 60.0509 676.582 61.4165 676.52 62.8307H704.52L703.93 62.1107Z" fill="#F5F5F5"/>
<path d="M706.09 204.86C706.09 205.01 550.23 205.12 358.02 205.12C165.81 205.12 9.91016 205 9.91016 204.86C9.91016 204.72 165.73 204.6 358.02 204.6C550.31 204.6 706.09 204.72 706.09 204.86Z" fill="#263238"/>
<path d="M68.2812 204.78H146.281L146.281 59.9903H68.2812L68.2812 204.78Z" fill="#E0E0E0"/>
<path d="M145.323 204.78L277.363 204.78V99.0803L145.323 99.0803V204.78Z" fill="#E0E0E0"/>
<path d="M146.233 204.861C146.093 204.861 145.973 173.001 145.973 133.711C145.973 94.4208 146.093 62.5508 146.233 62.5508C146.373 62.5508 146.493 94.4108 146.493 133.711C146.493 173.011 146.383 204.861 146.233 204.861Z" fill="#263238"/>
<path d="M68.2833 204.771L277.363 204.771V157.161L68.2833 157.161V204.771Z" fill="#999CBB"/>
<path d="M148.743 53.6305L107.323 32.3105L66.1133 53.6305H148.743Z" fill="#5EAFFF"/>
<path d="M66.1122 58.4004L148.742 58.4004V53.6304L66.1122 53.6304V58.4004Z" fill="#E0E0E0"/>
<path d="M67.1205 59.9902L147.48 59.9902V58.4002L67.1205 58.4002V59.9902Z" fill="#E0E0E0"/>
<path d="M66.0039 58.4006C66.0039 58.2606 84.5139 58.1406 107.354 58.1406C130.194 58.1406 148.714 58.2606 148.714 58.4006C148.714 58.5406 130.204 58.6606 107.354 58.6606C84.5039 58.6606 66.0039 58.5406 66.0039 58.4006Z" fill="#263238"/>
<path d="M67.0508 60.0002C67.0508 59.8602 85.0508 59.7402 107.261 59.7402C129.471 59.7402 147.471 59.8602 147.471 60.0002C147.471 60.1402 129.471 60.2602 107.261 60.2602C85.0508 60.2602 67.0508 60.1402 67.0508 60.0002Z" fill="#263238"/>
<path d="M113.334 105.801H130.094V76.9908H113.334V105.801Z" fill="white"/>
<path d="M115.184 104.16H128.324V79.0902H115.184V104.16Z" fill="#455A64"/>
<path d="M122.002 104.28C121.862 104.28 121.742 98.63 121.742 91.66C121.742 84.69 121.882 79 122.002 79C122.122 79 122.262 84.65 122.262 91.62C122.262 98.59 122.162 104.28 122.002 104.28Z" fill="#263238"/>
<path d="M115.191 86.6607C117.368 86.3976 119.561 86.3107 121.751 86.4007C123.945 86.3105 126.142 86.3974 128.321 86.6607C126.141 86.9179 123.945 87.0048 121.751 86.9207C119.561 87.0046 117.368 86.9177 115.191 86.6607Z" fill="#263238"/>
<path d="M115.191 95.5103C117.368 95.2472 119.561 95.1603 121.751 95.2503C123.945 95.1601 126.142 95.247 128.321 95.5103C126.141 95.7675 123.945 95.8544 121.751 95.7703C119.561 95.8542 117.368 95.7673 115.191 95.5103Z" fill="#263238"/>
<path d="M217.111 140.57H233.871V111.76H217.111V140.57Z" fill="white"/>
<path d="M218.981 138.94H232.121V113.87H218.981V138.94Z" fill="#455A64"/>
<path d="M225.811 139.051C225.661 139.051 225.551 133.401 225.551 126.431C225.551 119.461 225.661 113.811 225.811 113.811C225.961 113.811 226.071 119.461 226.071 126.431C226.071 133.401 226.001 139.051 225.811 139.051Z" fill="#263238"/>
<path d="M219.004 121.431C221.184 121.174 223.38 121.087 225.574 121.171C227.767 121.087 229.964 121.173 232.144 121.431C229.964 121.694 227.767 121.781 225.574 121.691C223.38 121.78 221.183 121.694 219.004 121.431Z" fill="#263238"/>
<path d="M219.004 130.28C221.184 130.024 223.38 129.937 225.574 130.02C227.767 129.936 229.964 130.023 232.144 130.28C229.964 130.538 227.767 130.624 225.574 130.54C223.38 130.624 221.184 130.537 219.004 130.28Z" fill="#263238"/>
<path d="M247.713 140.57H264.473V111.76H247.713V140.57Z" fill="white"/>
<path d="M249.563 138.94H262.703V113.87H249.563V138.94Z" fill="#455A64"/>
<path d="M256.401 139.051C256.261 139.051 256.141 133.401 256.141 126.431C256.141 119.461 256.261 113.811 256.401 113.811C256.541 113.811 256.661 119.461 256.661 126.431C256.661 133.401 256.541 139.051 256.401 139.051Z" fill="#263238"/>
<path d="M249.574 121.431C251.754 121.173 253.951 121.087 256.144 121.171C258.334 121.087 260.528 121.174 262.704 121.431C260.528 121.694 258.334 121.781 256.144 121.691C253.951 121.781 251.754 121.694 249.574 121.431Z" fill="#263238"/>
<path d="M249.574 130.28C251.754 130.023 253.951 129.936 256.144 130.02C258.334 129.936 260.528 130.023 262.704 130.28C260.528 130.537 258.334 130.624 256.144 130.54C253.951 130.624 251.754 130.538 249.574 130.28Z" fill="#263238"/>
<path d="M189.611 140.24H206.371V111.43H189.611V140.24Z" fill="white"/>
<path d="M191.473 138.61H204.613V113.54H191.473V138.61Z" fill="#455A64"/>
<path d="M198.313 138.711C198.163 138.711 198.043 133.061 198.043 126.091C198.043 119.121 198.163 113.471 198.313 113.471C198.463 113.471 198.573 119.121 198.573 126.091C198.573 133.061 198.453 138.711 198.313 138.711Z" fill="#263238"/>
<path d="M191.473 121.091C193.653 120.834 195.849 120.747 198.043 120.831C200.236 120.747 202.433 120.834 204.613 121.091C202.434 121.361 200.236 121.451 198.043 121.361C195.849 121.451 193.652 121.361 191.473 121.091Z" fill="#263238"/>
<path d="M191.473 129.94C193.653 129.683 195.849 129.596 198.043 129.68C200.236 129.596 202.433 129.683 204.613 129.94C202.433 130.204 200.236 130.291 198.043 130.2C195.849 130.291 193.652 130.204 191.473 129.94Z" fill="#263238"/>
<path d="M162.123 139.91H178.883V111.1H162.123V139.91Z" fill="white"/>
<path d="M163.973 138.261H177.113V113.191H163.973V138.261Z" fill="#455A64"/>
<path d="M170.803 138.381C170.663 138.381 170.543 132.731 170.543 125.761C170.543 118.791 170.663 113.141 170.803 113.141C170.943 113.141 171.063 118.791 171.063 125.761C171.063 132.731 171.003 138.381 170.803 138.381Z" fill="#263238"/>
<path d="M164.004 120.76C166.183 120.497 168.38 120.41 170.574 120.5C172.767 120.41 174.964 120.497 177.144 120.76C174.964 121.018 172.767 121.104 170.574 121.02C168.38 121.104 166.184 121.018 164.004 120.76Z" fill="#263238"/>
<path d="M164.004 129.611C166.183 129.348 168.38 129.261 170.574 129.351C172.767 129.261 174.964 129.348 177.144 129.611C174.964 129.868 172.767 129.955 170.574 129.871C168.38 129.955 166.184 129.868 164.004 129.611Z" fill="#263238"/>
<path d="M83.7439 105.801H100.504V76.9908H83.7439V105.801Z" fill="white"/>
<path d="M85.5905 104.16H98.7305V79.0902H85.5905V104.16Z" fill="#455A64"/>
<path d="M92.4319 104.28C92.2919 104.28 92.1719 98.63 92.1719 91.66C92.1719 84.69 92.2919 79.04 92.4319 79.04C92.5719 79.04 92.6919 84.69 92.6919 91.66C92.6919 98.63 92.5719 104.28 92.4319 104.28Z" fill="#263238"/>
<path d="M85.6016 86.6607C87.781 86.3974 89.9781 86.3105 92.1716 86.4007C94.3617 86.3107 96.5555 86.3976 98.7316 86.6607C96.555 86.9177 94.3617 87.0046 92.1716 86.9207C89.9781 87.0048 87.7815 86.9179 85.6016 86.6607Z" fill="#263238"/>
<path d="M85.6016 95.5103C87.781 95.247 89.9781 95.1601 92.1716 95.2503C94.3617 95.1603 96.5555 95.2472 98.7316 95.5103C96.555 95.7673 94.3617 95.8542 92.1716 95.7703C89.9781 95.8544 87.7815 95.7675 85.6016 95.5103Z" fill="#263238"/>
<path d="M113.334 142.69H130.094V113.88H113.334V142.69Z" fill="white"/>
<path d="M115.184 141.061H128.324V115.991H115.184V141.061Z" fill="#455A64"/>
<path d="M122.002 141.16C121.862 141.16 121.742 135.51 121.742 128.54C121.742 121.57 121.862 115.92 122.002 115.92C122.142 115.92 122.262 121.57 122.262 128.54C122.262 135.51 122.162 141.16 122.002 141.16Z" fill="#263238"/>
<path d="M115.191 123.54C117.368 123.283 119.561 123.196 121.751 123.28C123.945 123.196 126.141 123.283 128.321 123.54C126.142 123.803 123.945 123.89 121.751 123.8C119.561 123.89 117.368 123.803 115.191 123.54Z" fill="#263238"/>
<path d="M115.191 132.391C117.368 132.134 119.561 132.047 121.751 132.131C123.945 132.047 126.141 132.133 128.321 132.391C126.142 132.654 123.945 132.741 121.751 132.651C119.561 132.741 117.368 132.654 115.191 132.391Z" fill="#263238"/>
<path d="M83.7439 142.69H100.504V113.88H83.7439V142.69Z" fill="white"/>
<path d="M85.5905 141.061H98.7305V115.991H85.5905V141.061Z" fill="#455A64"/>
<path d="M92.4319 141.16C92.2919 141.16 92.1719 135.51 92.1719 128.54C92.1719 121.57 92.2919 115.92 92.4319 115.92C92.5719 115.92 92.6919 121.57 92.6919 128.54C92.6919 135.51 92.5719 141.16 92.4319 141.16Z" fill="#263238"/>
<path d="M85.6016 123.54C87.7815 123.283 89.9781 123.196 92.1716 123.28C94.3617 123.196 96.555 123.283 98.7316 123.54C96.5555 123.803 94.3617 123.89 92.1716 123.8C89.9781 123.89 87.781 123.803 85.6016 123.54Z" fill="#263238"/>
<path d="M85.6016 132.391C87.7815 132.133 89.9781 132.047 92.1716 132.131C94.3617 132.047 96.555 132.134 98.7316 132.391C96.5555 132.654 94.3617 132.741 92.1716 132.651C89.9781 132.741 87.781 132.654 85.6016 132.391Z" fill="#263238"/>
<path d="M65.8927 154.061L277.723 154.061V149.181L65.8927 149.181V154.061Z" fill="#E0E0E0"/>
<path d="M67.1526 157.17L277.723 157.17V153.9L67.1526 153.9V157.17Z" fill="#E0E0E0"/>
<path d="M277.722 154.29C277.722 154.44 230.512 154.55 172.282 154.55C114.052 154.55 66.832 154.44 66.832 154.29C66.832 154.14 114.002 154 172.282 154C230.562 154 277.722 154.15 277.722 154.29Z" fill="#263238"/>
<path d="M277.722 157.17C277.722 157.31 230.512 157.43 172.282 157.43C114.052 157.43 66.832 157.31 66.832 157.17C66.832 157.03 114.032 156.91 172.282 156.91C230.532 156.91 277.722 157 277.722 157.17Z" fill="#263238"/>
<path d="M277.722 149.191C277.722 149.331 230.512 149.451 172.282 149.451C114.052 149.451 66.832 149.331 66.832 149.191C66.832 149.051 114.032 148.931 172.282 148.931C230.532 148.931 277.722 149.001 277.722 149.191Z" fill="#263238"/>
<path d="M220.152 199.73H202.542V170.25C202.542 168.115 203.39 166.068 204.9 164.558C206.41 163.049 208.457 162.2 210.592 162.2H212.102C213.159 162.2 214.206 162.409 215.183 162.813C216.16 163.218 217.047 163.811 217.795 164.558C218.542 165.306 219.135 166.193 219.54 167.17C219.944 168.147 220.152 169.193 220.152 170.25V199.73Z" fill="white"/>
<path d="M217.684 197.03H205.064V170.68C205.064 169.923 205.213 169.172 205.503 168.472C205.793 167.772 206.218 167.136 206.754 166.6C207.289 166.064 207.925 165.639 208.626 165.349C209.326 165.06 210.076 164.91 210.834 164.91H211.884C213.414 164.91 214.882 165.518 215.964 166.6C217.046 167.682 217.654 169.15 217.654 170.68V197.03H217.684Z" fill="#455A64"/>
<path d="M211.342 197.001C211.202 197.001 211.082 189.811 211.082 180.941C211.082 172.071 211.202 164.881 211.342 164.881C211.482 164.881 211.602 172.071 211.602 180.941C211.602 189.811 211.492 197.001 211.342 197.001Z" fill="#263238"/>
<path d="M205.113 174.921C207.199 174.664 209.303 174.577 211.403 174.661C213.504 174.577 215.607 174.664 217.693 174.921C215.607 175.178 213.504 175.265 211.403 175.181C209.303 175.265 207.199 175.178 205.113 174.921Z" fill="#263238"/>
<path d="M205.113 185.441C207.199 185.178 209.303 185.091 211.403 185.181C213.504 185.091 215.608 185.178 217.693 185.441C215.607 185.698 213.504 185.785 211.403 185.701C209.303 185.785 207.199 185.698 205.113 185.441Z" fill="#263238"/>
<path d="M253.691 199.73H236.081V170.25C236.081 168.115 236.93 166.068 238.439 164.558C239.949 163.049 241.996 162.2 244.131 162.2H245.641C247.776 162.2 249.824 163.049 251.334 164.558C252.843 166.068 253.691 168.115 253.691 170.25V199.73Z" fill="white"/>
<path d="M251.191 197.03H238.571V170.68C238.571 169.15 239.179 167.682 240.261 166.6C241.343 165.518 242.811 164.91 244.341 164.91H245.421C246.952 164.91 248.419 165.518 249.501 166.6C250.584 167.682 251.191 169.15 251.191 170.68V197.03Z" fill="#455A64"/>
<path d="M244.881 197.001C244.741 197.001 244.621 189.811 244.621 180.941C244.621 172.071 244.741 164.881 244.881 164.881C245.021 164.881 245.141 172.071 245.141 180.941C245.141 189.811 245.001 197.001 244.881 197.001Z" fill="#263238"/>
<path d="M238.652 174.921C240.739 174.664 242.842 174.577 244.942 174.661C247.043 174.577 249.146 174.664 251.232 174.921C249.146 175.178 247.043 175.265 244.942 175.181C242.842 175.265 240.739 175.178 238.652 174.921Z" fill="#263238"/>
<path d="M238.652 185.441C240.738 185.178 242.842 185.091 244.942 185.181C247.043 185.091 249.147 185.178 251.232 185.441C249.146 185.698 247.043 185.785 244.942 185.701C242.842 185.785 240.739 185.698 238.652 185.441Z" fill="#263238"/>
<path d="M180.684 199.73H163.074V170.25C163.074 168.115 163.922 166.068 165.431 164.558C166.941 163.049 168.989 162.2 171.124 162.2H172.634C174.769 162.2 176.816 163.049 178.326 164.558C179.835 166.068 180.684 168.115 180.684 170.25V199.73Z" fill="white"/>
<path d="M178.211 197.42H165.591V171.07C165.591 170.312 165.74 169.562 166.03 168.862C166.32 168.162 166.745 167.526 167.281 166.99C167.817 166.454 168.453 166.029 169.153 165.739C169.853 165.449 170.603 165.3 171.361 165.3H172.441C173.199 165.3 173.949 165.449 174.649 165.739C175.349 166.029 175.985 166.454 176.521 166.99C177.057 167.526 177.482 168.162 177.772 168.862C178.062 169.562 178.211 170.312 178.211 171.07V197.42Z" fill="#455A64"/>
<path d="M171.842 197.001C171.692 197.001 171.582 189.811 171.582 180.941C171.582 172.071 171.692 164.881 171.842 164.881C171.992 164.881 172.102 172.071 172.102 180.941C172.102 189.811 172.002 197.001 171.842 197.001Z" fill="#263238"/>
<path d="M165.613 174.92C167.696 174.663 169.796 174.576 171.893 174.66C173.994 174.576 176.097 174.663 178.183 174.92C176.097 175.177 173.994 175.264 171.893 175.18C169.796 175.264 167.696 175.177 165.613 174.92Z" fill="#263238"/>
<path d="M165.613 185.44C167.696 185.177 169.796 185.09 171.893 185.18C173.994 185.09 176.098 185.177 178.183 185.44C176.097 185.697 173.994 185.784 171.893 185.7C169.796 185.784 167.696 185.697 165.613 185.44Z" fill="#263238"/>
<path d="M95.6641 199.73H78.0541V170.25C78.0541 168.115 78.9022 166.068 80.4118 164.558C81.9215 163.049 83.9691 162.2 86.1041 162.2H87.5941C88.6529 162.198 89.7018 162.404 90.6808 162.807C91.6598 163.211 92.5496 163.803 93.2992 164.551C94.0488 165.299 94.6436 166.187 95.0494 167.165C95.4552 168.143 95.6641 169.192 95.6641 170.25V199.73Z" fill="white"/>
<path d="M93.1931 197.42H80.5731V171.07C80.5731 170.312 80.7224 169.562 81.0123 168.862C81.3023 168.162 81.7273 167.526 82.2631 166.99C82.7989 166.454 83.435 166.029 84.135 165.739C84.8351 165.449 85.5854 165.3 86.3431 165.3H87.4331C88.1909 165.3 88.9412 165.449 89.6412 165.739C90.3413 166.029 90.9773 166.454 91.5131 166.99C92.0489 167.526 92.4739 168.162 92.7639 168.862C93.0539 169.562 93.2031 170.312 93.2031 171.07V197.42H93.1931Z" fill="#455A64"/>
<path d="M86.8342 197.001C86.6842 197.001 86.5742 189.811 86.5742 180.941C86.5742 172.071 86.6842 164.881 86.8342 164.881C86.9842 164.881 87.0942 172.071 87.0942 180.941C87.0942 189.811 87.0042 197.001 86.8342 197.001Z" fill="#263238"/>
<path d="M80.6016 174.92C82.6877 174.663 84.7913 174.576 86.8916 174.66C88.9885 174.576 91.0888 174.663 93.1716 174.92C91.0888 175.177 88.9885 175.264 86.8916 175.18C84.7913 175.264 82.6877 175.177 80.6016 174.92Z" fill="#263238"/>
<path d="M80.6016 185.44C82.6872 185.177 84.7913 185.09 86.8916 185.18C88.9885 185.09 91.0893 185.177 93.1716 185.44C91.0888 185.697 88.9885 185.784 86.8916 185.7C84.7913 185.784 82.6877 185.697 80.6016 185.44Z" fill="#263238"/>
<path d="M130.563 199.73H112.953V170.25C112.953 168.115 113.801 166.068 115.311 164.558C116.821 163.049 118.868 162.2 121.003 162.2H122.563C124.698 162.2 126.746 163.049 128.255 164.558C129.765 166.068 130.613 168.115 130.613 170.25V199.73H130.563Z" fill="white"/>
<path d="M128.141 197.42H115.521V171.07C115.521 170.312 115.67 169.562 115.96 168.862C116.25 168.162 116.675 167.526 117.211 166.99C117.746 166.454 118.382 166.029 119.083 165.739C119.783 165.449 120.533 165.3 121.291 165.3H122.371C123.128 165.3 123.879 165.449 124.579 165.739C125.279 166.029 125.915 166.454 126.451 166.99C126.986 167.526 127.411 168.162 127.701 168.862C127.991 169.562 128.141 170.312 128.141 171.07V197.42Z" fill="#455A64"/>
<path d="M121.783 197.001C121.633 197.001 121.523 189.811 121.523 180.941C121.523 172.071 121.633 164.881 121.783 164.881C121.933 164.881 122.003 172.101 122.003 181.001C122.003 189.901 121.923 197.001 121.783 197.001Z" fill="#263238"/>
<path d="M115.551 174.92C117.637 174.663 119.741 174.576 121.841 174.66C123.938 174.576 126.038 174.663 128.121 174.92C126.038 175.177 123.938 175.264 121.841 175.18C119.741 175.264 117.637 175.177 115.551 174.92Z" fill="#263238"/>
<path d="M115.551 185.44C117.636 185.177 119.741 185.09 121.841 185.18C123.938 185.09 126.038 185.177 128.121 185.44C126.038 185.697 123.938 185.784 121.841 185.7C119.741 185.784 117.637 185.697 115.551 185.44Z" fill="#263238"/>
<path d="M652.242 59.9902H574.242V204.78H652.242V59.9902Z" fill="#E0E0E0"/>
<path d="M575.204 99.0801H443.164V204.78H575.204V99.0801Z" fill="#E0E0E0"/>
<path d="M574.291 204.861C574.151 204.861 574.031 173.001 574.031 133.711C574.031 94.4208 574.151 62.5508 574.291 62.5508C574.431 62.5508 574.551 94.4108 574.551 133.711C574.551 173.011 574.441 204.861 574.291 204.861Z" fill="#263238"/>
<path d="M652.244 157.17H443.164V204.78H652.244V157.17Z" fill="#999CBB"/>
<path d="M313.893 122.44C313.884 122.341 313.884 122.24 313.893 122.14C313.893 121.92 313.893 121.65 313.893 121.3C313.893 120.53 313.893 119.46 313.893 118.1C313.893 115.31 313.843 111.33 313.803 106.44C313.763 101.55 313.743 95.7004 313.713 89.2304C313.619 87.6093 313.009 86.0607 311.973 84.8104C310.881 83.5103 309.391 82.6069 307.733 82.2404C306.871 82.0905 305.996 82.0368 305.123 82.0804C304.238 82.0413 303.352 82.1494 302.503 82.4004C300.772 82.9207 299.282 84.0411 298.303 85.5604C297.83 86.2911 297.491 87.1005 297.303 87.9504C297.14 88.8037 297.073 89.6724 297.103 90.5404V95.7504C297.103 99.1604 297.103 102.46 297.103 105.61C297.103 111.91 297.103 117.61 297.043 122.44L296.863 122.25L309.333 122.36H312.773H313.673H313.993C313.9 122.377 313.805 122.377 313.713 122.36H312.843L309.453 122.41L296.863 122.51H296.673V122.32C296.673 117.48 296.673 111.79 296.613 105.49C296.613 102.34 296.613 99.0404 296.613 95.6304V90.4204C296.467 88.5754 296.916 86.7322 297.893 85.1604C298.947 83.5382 300.541 82.3409 302.393 81.7804C303.29 81.5248 304.221 81.4101 305.153 81.4404C306.064 81.4044 306.976 81.4681 307.873 81.6304C309.64 82.0154 311.227 82.9799 312.383 84.3704C313.491 85.7029 314.137 87.3593 314.223 89.0904C314.223 95.6504 314.223 101.53 314.173 106.46C314.123 111.39 314.103 115.32 314.083 118.11C314.083 119.45 314.083 120.5 314.083 121.25C314.083 121.58 314.083 121.85 314.083 122.06C314.045 122.198 313.98 122.327 313.893 122.44Z" fill="#455A64"/>
<path d="M442.273 59.96H273.293V177.49H442.273V59.96Z" fill="#E0E0E0"/>
<path opacity="0.2" d="M442.273 59.96H273.293V177.49H442.273V59.96Z" fill="black"/>
<path d="M447.642 61.3105H268.672V66.6805H447.642V61.3105Z" fill="#E0E0E0"/>
<path d="M447.261 55.9404H269.371V57.7504H447.261V55.9404Z" fill="#E0E0E0"/>
<path d="M449.002 51.7402H268.672V55.9402H449.002V51.7402Z" fill="#E0E0E0"/>
<path d="M445.324 55.9404H270.824V61.3404H445.324V55.9404Z" fill="#E0E0E0"/>
<path d="M269.363 51.7403H449.003L358.233 9.03027L269.363 51.7403Z" fill="#E0E0E0"/>
<path d="M445.124 66.6807H270.824V69.4207H445.124V66.6807Z" fill="#E0E0E0"/>
<path d="M283.833 69.4102H273.293V177.48H283.833V69.4102Z" fill="#E0E0E0"/>
<path d="M283.832 177.481C283.832 177.481 283.832 177.291 283.832 176.921C283.832 176.551 283.832 175.991 283.832 175.291C283.832 173.851 283.832 171.761 283.832 169.061C283.832 163.641 283.832 155.821 283.752 146.061C283.752 126.631 283.692 99.6507 283.642 69.3807L283.902 69.6307H273.302L273.562 69.3707C273.492 117.561 273.432 159.001 273.402 177.431L273.302 177.331L281.102 177.391H283.102H283.802C283.802 177.391 283.592 177.391 283.142 177.391H281.142L273.282 177.451H273.172V177.341C273.172 158.911 273.082 117.471 273.012 69.2807V69.0107H284.072V69.2707C284.072 99.6207 283.992 126.661 283.962 146.141C283.962 155.831 283.902 163.641 283.892 169.041C283.892 171.711 283.892 173.791 283.892 175.211C283.892 175.901 283.892 176.431 283.892 176.801C283.887 177.028 283.867 177.256 283.832 177.481Z" fill="#263238"/>
<path d="M315.743 69.4102H305.203V177.48H315.743V69.4102Z" fill="#E0E0E0"/>
<path d="M315.742 177.481C315.742 177.481 315.742 177.291 315.742 176.921C315.742 176.551 315.742 175.991 315.742 175.291C315.742 173.851 315.742 171.761 315.742 169.061C315.742 163.641 315.692 155.821 315.662 146.061C315.662 126.631 315.592 99.6507 315.552 69.3807L315.812 69.6307H305.202L305.462 69.3707C305.392 117.561 305.332 159.001 305.312 177.431L305.202 177.331L313.002 177.391H315.002H315.712C315.712 177.391 315.492 177.391 315.042 177.391H313.042L305.182 177.451H305.072V177.341C305.072 158.911 304.992 117.471 304.922 69.2807V69.0107H316.002V69.2707C315.952 99.6207 315.912 126.661 315.892 146.141C315.892 155.831 315.832 163.641 315.812 169.041C315.812 171.711 315.812 173.791 315.812 175.211C315.812 175.901 315.812 176.431 315.812 176.801C315.812 177.171 315.742 177.481 315.742 177.481Z" fill="#263238"/>
<path d="M414.513 69.4102H403.973V177.48H414.513V69.4102Z" fill="#E0E0E0"/>
<path d="M414.513 177.481C414.513 177.481 414.513 177.291 414.513 176.921C414.513 176.551 414.513 175.991 414.513 175.291C414.513 173.851 414.513 171.761 414.513 169.061C414.513 163.641 414.463 155.821 414.433 146.061C414.433 126.631 414.363 99.6507 414.323 69.3807L414.583 69.6307H404.003L404.263 69.3707C404.193 117.561 404.133 159.001 404.113 177.431L404.003 177.331L411.803 177.391H413.803H414.513C414.513 177.391 414.293 177.391 413.843 177.391H411.843L403.983 177.451H403.873V177.341C403.873 158.911 403.793 117.471 403.723 69.2807V69.0107H414.783V69.2707C414.783 99.6207 414.693 126.661 414.673 146.141C414.673 155.831 414.613 163.641 414.593 169.041C414.593 171.711 414.593 173.791 414.593 175.211C414.593 175.901 414.593 176.431 414.593 176.801C414.593 177.171 414.513 177.481 414.513 177.481Z" fill="#263238"/>
<path d="M443.353 69.4102H432.812V177.48H443.353V69.4102Z" fill="#E0E0E0"/>
<path d="M443.351 177.481C443.351 177.481 443.351 177.291 443.351 176.921C443.351 176.551 443.351 175.991 443.351 175.291C443.351 173.851 443.351 171.761 443.351 169.061C443.351 163.641 443.351 155.821 443.271 146.061C443.271 126.631 443.211 99.6507 443.161 69.3807L443.421 69.6307H432.811L433.071 69.3707C433.011 117.561 432.951 159.001 432.921 177.431L432.811 177.331L440.621 177.391H442.621H443.321C443.321 177.391 443.101 177.391 442.661 177.391H440.661L432.791 177.451H432.691V177.341C432.691 158.911 432.601 117.471 432.531 69.2807V69.0107H443.591V69.2707C443.591 99.6207 443.511 126.661 443.481 146.141C443.481 155.831 443.421 163.641 443.401 169.041C443.401 171.711 443.401 173.791 443.401 175.211C443.401 175.901 443.401 176.431 443.401 176.801C443.401 177.171 443.351 177.481 443.351 177.481Z" fill="#263238"/>
<path d="M340.001 126.211H322.891V93.4208C322.889 92.3922 323.091 91.3734 323.484 90.4229C323.877 89.4723 324.454 88.6086 325.181 87.8812C325.908 87.1539 326.772 86.5772 327.723 86.1842C328.673 85.7911 329.692 85.5895 330.721 85.5908H332.191C333.219 85.5895 334.238 85.7911 335.189 86.1842C336.139 86.5772 337.003 87.1539 337.73 87.8812C338.458 88.6086 339.034 89.4723 339.427 90.4229C339.82 91.3734 340.022 92.3922 340.021 93.4208L340.001 126.211Z" fill="#455A64"/>
<path d="M340.002 126.21C340.002 126.21 340.002 126.1 340.002 125.91C340.002 125.72 340.002 125.41 340.002 125.07C340.002 124.3 340.002 123.23 340.002 121.87C340.002 119.08 339.942 115.1 339.902 110.21C339.862 105.32 339.852 99.47 339.812 93C339.728 91.3737 339.117 89.8189 338.072 88.57C336.982 87.2754 335.495 86.3758 333.842 86.01C332.978 85.8616 332.099 85.8046 331.222 85.84C330.341 85.8106 329.461 85.9186 328.612 86.16C326.88 86.6878 325.389 87.8104 324.402 89.33C323.927 90.0595 323.588 90.8693 323.402 91.72C323.229 92.5718 323.162 93.4417 323.202 94.31C323.202 96.07 323.202 97.81 323.202 99.51C323.202 102.93 323.202 106.23 323.202 109.38C323.202 115.67 323.202 121.38 323.152 126.21L322.962 126.02L335.442 126.12H338.872H339.772C339.879 126.111 339.986 126.111 340.092 126.12C339.999 126.13 339.906 126.13 339.812 126.12H338.942L335.552 126.17L322.962 126.27H322.772V126.08C322.772 121.24 322.772 115.54 322.722 109.25C322.722 106.1 322.722 102.8 322.722 99.38V94.18C322.575 92.3335 323.028 90.4889 324.012 88.92C325.058 87.2935 326.65 86.0947 328.502 85.54C329.398 85.2802 330.33 85.1654 331.262 85.2C332.173 85.1652 333.085 85.2255 333.982 85.38C335.75 85.7748 337.339 86.7414 338.502 88.13C339.603 89.4663 340.244 91.1211 340.332 92.85C340.332 99.41 340.332 105.28 340.282 110.22C340.232 115.16 340.212 119.08 340.192 121.87C340.192 123.2 340.192 124.26 340.192 125.01C340.192 125.34 340.192 125.61 340.192 125.82C340.192 126.03 340.002 126.22 340.002 126.21Z" fill="#263238"/>
<path d="M331.463 125.92C331.313 125.92 331.203 116.92 331.203 105.92C331.203 94.9199 331.313 85.9199 331.463 85.9199C331.613 85.9199 331.723 94.9199 331.723 105.92C331.723 116.92 331.603 125.92 331.463 125.92Z" fill="#263238"/>
<path d="M340.001 94.8308C337.156 95.0883 334.297 95.1751 331.441 95.0908C328.582 95.1753 325.72 95.0884 322.871 94.8308C325.72 94.5671 328.582 94.4803 331.441 94.5708C334.297 94.4804 337.156 94.5672 340.001 94.8308Z" fill="#263238"/>
<path d="M340.001 104.89C337.156 105.148 334.297 105.235 331.441 105.15C328.582 105.235 325.72 105.148 322.871 104.89C325.72 104.627 328.582 104.54 331.441 104.63C334.297 104.54 337.156 104.627 340.001 104.89Z" fill="#263238"/>
<path d="M340.001 115.001C337.156 115.258 334.297 115.345 331.441 115.261C328.582 115.345 325.72 115.258 322.871 115.001C325.72 114.737 328.582 114.65 331.441 114.741C334.297 114.65 337.156 114.737 340.001 115.001Z" fill="#263238"/>
<path d="M369.263 126.211H352.133V93.4208C352.132 92.3922 352.333 91.3734 352.726 90.4229C353.119 89.4723 353.696 88.6086 354.423 87.8812C355.151 87.1539 356.014 86.5772 356.965 86.1842C357.915 85.7911 358.934 85.5895 359.963 85.5908H361.433C363.509 85.5908 365.501 86.4158 366.969 87.8842C368.438 89.3526 369.263 91.3442 369.263 93.4208V126.211Z" fill="#455A64"/>
<path d="M369.262 126.21C369.255 126.11 369.255 126.01 369.262 125.91V125.07C369.262 124.3 369.262 123.23 369.262 121.87C369.262 119.08 369.212 115.1 369.172 110.21C369.132 105.32 369.002 99.47 369.002 93C368.913 91.3354 368.276 89.747 367.191 88.4813C366.106 87.2156 364.634 86.3434 363.002 86C362.141 85.8516 361.266 85.7946 360.392 85.83C359.508 85.8006 358.624 85.9086 357.772 86.15C356.042 86.6776 354.554 87.8006 353.572 89.32C353.097 90.0498 352.759 90.8595 352.572 91.71C352.409 92.5632 352.342 93.4319 352.372 94.3V99.5C352.372 102.92 352.372 106.22 352.372 109.37C352.372 115.66 352.372 121.37 352.312 126.2L352.132 126.01L364.602 126.11H368.042H368.942H369.262C369.169 126.12 369.075 126.12 368.982 126.11H368.112L364.722 126.16L352.132 126.26H351.942V126.07C351.942 121.23 351.942 115.53 351.882 109.24C351.882 106.09 351.882 102.79 351.882 99.37V94.17C351.737 92.325 352.185 90.4818 353.162 88.91C354.213 87.2848 355.809 86.0866 357.662 85.53C358.558 85.2691 359.49 85.1543 360.422 85.19C361.333 85.1556 362.244 85.216 363.142 85.37C364.908 85.7627 366.495 86.7298 367.652 88.12C368.761 89.4525 369.407 91.1089 369.492 92.84C369.492 99.4 369.492 105.27 369.442 110.21C369.392 115.15 369.372 119.07 369.352 121.86C369.352 123.19 369.352 124.25 369.352 125C369.352 125.33 369.352 125.6 369.352 125.81C369.348 125.948 369.317 126.084 369.262 126.21Z" fill="#263238"/>
<path d="M360.694 125.92C360.554 125.92 360.434 116.92 360.434 105.92C360.434 94.9199 360.554 85.9199 360.694 85.9199C360.834 85.9199 360.954 94.9199 360.954 105.92C360.954 116.92 360.844 125.92 360.694 125.92Z" fill="#263238"/>
<path d="M369.263 94.8307C366.414 95.088 363.552 95.1749 360.693 95.0907C357.837 95.1751 354.978 95.0882 352.133 94.8307C354.978 94.5672 357.837 94.4803 360.693 94.5707C363.552 94.4805 366.414 94.5674 369.263 94.8307Z" fill="#263238"/>
<path d="M369.263 104.89C366.414 105.148 363.552 105.234 360.693 105.15C357.837 105.235 354.978 105.148 352.133 104.89C354.978 104.627 357.837 104.54 360.693 104.63C363.552 104.54 366.414 104.627 369.263 104.89Z" fill="#263238"/>
<path d="M369.263 115.001C366.414 115.258 363.552 115.345 360.693 115.261C357.837 115.345 354.978 115.258 352.133 115.001C354.978 114.737 357.837 114.65 360.693 114.741C363.552 114.65 366.414 114.737 369.263 115.001Z" fill="#263238"/>
<path d="M398.503 126.211H381.363V93.4208C381.363 91.3442 382.188 89.3526 383.657 87.8842C385.125 86.4158 387.117 85.5908 389.193 85.5908H390.673C392.75 85.5908 394.742 86.4158 396.21 87.8842C397.678 89.3526 398.503 91.3442 398.503 93.4208V126.211Z" fill="#455A64"/>
<path d="M398.503 126.211C398.496 126.111 398.496 126.011 398.503 125.911C398.503 125.691 398.503 125.411 398.503 125.071C398.503 124.301 398.503 123.231 398.503 121.871C398.503 119.081 398.453 115.101 398.413 110.211C398.373 105.321 398.353 99.4709 398.323 93.0009C398.233 91.3363 397.597 89.7478 396.512 88.4821C395.427 87.2164 393.954 86.3442 392.323 86.0009C391.462 85.8524 390.587 85.7955 389.713 85.8309C388.828 85.8008 387.944 85.9088 387.093 86.1509C385.363 86.6784 383.875 87.8014 382.893 89.3209C382.418 90.0506 382.079 90.8604 381.893 91.7109C381.72 92.5627 381.653 93.4326 381.693 94.3009V99.5009C381.693 102.921 381.693 106.221 381.693 109.371C381.693 115.661 381.693 121.371 381.643 126.201L381.453 126.011L393.933 126.111H397.363H398.273H398.593H398.313H397.443L394.053 126.161L381.453 126.261H381.263V126.071C381.263 121.231 381.263 115.531 381.213 109.241C381.213 106.091 381.213 102.791 381.213 99.3709C381.213 97.6709 381.213 95.9309 381.213 94.1709C381.071 92.3248 381.523 90.4818 382.503 88.9109C383.55 87.2863 385.142 86.088 386.993 85.5309C387.892 85.2704 388.828 85.1556 389.763 85.1909C390.674 85.1568 391.585 85.2171 392.483 85.3709C394.249 85.7636 395.835 86.7307 396.993 88.1209C398.096 89.4567 398.741 91.1111 398.833 92.8409C398.833 99.4009 398.833 105.271 398.783 110.211C398.733 115.151 398.713 119.071 398.693 121.861C398.693 123.191 398.693 124.251 398.693 125.001C398.693 125.331 398.693 125.601 398.693 125.811C398.693 126.021 398.503 126.221 398.503 126.211Z" fill="#263238"/>
<path d="M389.932 125.92C389.792 125.92 389.672 116.92 389.672 105.92C389.672 94.9199 389.792 85.9199 389.932 85.9199C390.072 85.9199 390.192 94.9199 390.192 105.92C390.192 116.92 390.072 125.92 389.932 125.92Z" fill="#263238"/>
<path d="M398.503 94.8306C395.654 95.0879 392.793 95.1747 389.933 95.0906C387.074 95.1747 384.212 95.0879 381.363 94.8306C384.212 94.5673 387.074 94.4804 389.933 94.5706C392.793 94.4804 395.655 94.5673 398.503 94.8306Z" fill="#263238"/>
<path d="M398.503 104.89C395.654 105.147 392.793 105.234 389.933 105.15C387.074 105.234 384.212 105.147 381.363 104.89C384.212 104.627 387.074 104.54 389.933 104.63C392.793 104.54 395.655 104.627 398.503 104.89Z" fill="#263238"/>
<path d="M398.503 115.001C395.654 115.258 392.793 115.345 389.933 115.261C387.074 115.345 384.212 115.258 381.363 115.001C384.212 114.737 387.074 114.65 389.933 114.741C392.793 114.65 395.655 114.737 398.503 115.001Z" fill="#263238"/>
<path d="M340.033 149.03H326.613V175.64H340.033V149.03Z" fill="#263238"/>
<path d="M366.311 149.03H352.891V175.64H366.311V149.03Z" fill="#263238"/>
<path d="M392.592 149.03H379.172V175.64H392.592V149.03Z" fill="#263238"/>
<path d="M446.814 175.641H269.844V181.251H446.814V175.641Z" fill="#E0E0E0"/>
<path d="M448.191 181.16H265.961V186.77H448.191V181.16Z" fill="#F5F5F5"/>
<path d="M455.132 192.381H257.762V197.991H455.132V192.381Z" fill="#F5F5F5"/>
<path d="M461.47 203.54H250.48V209.15H461.47V203.54Z" fill="#F5F5F5"/>
<path d="M451.414 186.771H261.594V192.381H451.414V186.771Z" fill="#E0E0E0"/>
<path d="M457.982 197.98H254.262V203.59H457.982V197.98Z" fill="#E0E0E0"/>
<path d="M445.291 69.4104C445.291 69.5604 406.531 69.6804 358.721 69.6804C310.911 69.6804 272.141 69.5604 272.141 69.4104C272.141 69.2604 310.901 69.1504 358.721 69.1504C406.541 69.1504 445.291 69.2704 445.291 69.4104Z" fill="#263238"/>
<path d="M447.653 66.6301C447.653 66.7801 407.733 66.8901 358.513 66.8901C309.293 66.8901 269.363 66.7801 269.363 66.6301C269.363 66.4801 309.273 66.3701 358.513 66.3701C407.753 66.3701 447.653 66.4901 447.653 66.6301Z" fill="#263238"/>
<path d="M447.864 61.24C447.864 61.39 407.954 61.5 358.724 61.5C309.494 61.5 269.574 61.39 269.574 61.24C269.574 61.09 309.484 61 358.724 61C407.964 61 447.864 61.1 447.864 61.24Z" fill="#263238"/>
<path d="M447.864 57.7707C447.864 57.9107 407.954 58.0307 358.724 58.0307C309.494 58.0307 269.574 57.9107 269.574 57.7707C269.574 57.6307 309.484 57.5107 358.724 57.5107C407.964 57.5107 447.864 57.6307 447.864 57.7707Z" fill="#263238"/>
<path d="M446.931 56.0002C446.931 56.1402 407.011 56.2602 357.791 56.2602C308.571 56.2602 268.641 56.1402 268.641 56.0002C268.641 55.8602 308.551 55.7402 357.791 55.7402C407.031 55.7402 446.931 55.8602 446.931 56.0002Z" fill="#263238"/>
<path d="M444.001 175.42C444.001 175.57 405.131 175.68 357.201 175.68C309.271 175.68 270.391 175.57 270.391 175.42C270.391 175.27 309.251 175.16 357.201 175.16C405.151 175.16 444.001 175.28 444.001 175.42Z" fill="#263238"/>
<path d="M444.001 181C444.001 181.15 405.131 181.26 357.201 181.26C309.271 181.26 270.391 181.15 270.391 181C270.391 180.85 309.251 180.74 357.201 180.74C405.151 180.74 444.001 180.83 444.001 181Z" fill="#263238"/>
<path d="M444.004 186.52C444.004 186.66 403.254 186.84 353.004 186.91C302.754 186.98 262.004 186.91 262.004 186.77C262.004 186.63 302.754 186.45 353.004 186.38C403.254 186.31 444.004 186.38 444.004 186.52Z" fill="#263238"/>
<path d="M443.462 192.38C443.462 192.52 401.892 192.64 350.622 192.64C299.352 192.64 257.762 192.52 257.762 192.38C257.762 192.24 299.332 192.11 350.622 192.11C401.912 192.11 443.462 192.23 443.462 192.38Z" fill="#263238"/>
<path d="M444.004 198C444.004 198.15 401.654 198.26 349.424 198.26C297.194 198.26 254.824 198.15 254.824 198C254.824 197.85 297.174 197.74 349.424 197.74C401.674 197.74 444.004 197.84 444.004 198Z" fill="#263238"/>
<path d="M444.001 203.59C444.001 203.73 400.671 203.85 347.221 203.85C293.771 203.85 250.441 203.73 250.441 203.59C250.441 203.45 293.761 203.33 347.221 203.33C400.681 203.33 444.001 203.44 444.001 203.59Z" fill="#263238"/>
<path d="M444.001 209.151C444.001 209.291 405.131 209.411 357.201 209.411C309.271 209.411 270.391 209.291 270.391 209.151C270.391 209.011 309.251 208.881 357.201 208.881C405.151 208.881 444.001 209.001 444.001 209.151Z" fill="#263238"/>
<path d="M571.781 53.6305L613.211 32.3105L654.421 53.6305H571.781Z" fill="#5EAFFF"/>
<path d="M654.411 53.6309H571.781V58.4009H654.411V53.6309Z" fill="#E0E0E0"/>
<path d="M653.411 58.4004H573.051V59.9904H653.411V58.4004Z" fill="#E0E0E0"/>
<path d="M654.503 58.4006C654.503 58.5406 635.983 58.6606 613.143 58.6606C590.303 58.6606 571.793 58.5406 571.793 58.4006C571.793 58.2606 590.303 58.1406 613.143 58.1406C635.983 58.1406 654.503 58.2606 654.503 58.4006Z" fill="#263238"/>
<path d="M653.481 60.0002C653.481 60.1502 635.481 60.2602 613.271 60.2602C591.061 60.2602 573.051 60.1502 573.051 60.0002C573.051 59.8502 591.051 59.7402 613.271 59.7402C635.491 59.7402 653.481 59.8502 653.481 60.0002Z" fill="#263238"/>
<path d="M607.201 76.9902H590.441V105.8H607.201V76.9902Z" fill="white"/>
<path d="M605.343 79.1006H592.203V104.171H605.343V79.1006Z" fill="#455A64"/>
<path d="M598.514 104.28C598.364 104.28 598.254 98.63 598.254 91.66C598.254 84.69 598.364 79.04 598.514 79.04C598.664 79.04 598.774 84.69 598.774 91.66C598.774 98.63 598.654 104.28 598.514 104.28Z" fill="#263238"/>
<path d="M605.343 86.6604C600.97 87.0071 596.576 87.0071 592.203 86.6604C596.576 86.3137 600.97 86.3137 605.343 86.6604Z" fill="#263238"/>
<path d="M605.343 95.51C600.97 95.8567 596.576 95.8567 592.203 95.51C596.576 95.1633 600.97 95.1633 605.343 95.51Z" fill="#263238"/>
<path d="M475.912 112.101H459.152V140.911H475.912V112.101Z" fill="white"/>
<path d="M474.054 114.21H460.914V139.28H474.054V114.21Z" fill="#455A64"/>
<path d="M467.221 139.39C467.071 139.39 466.961 133.74 466.961 126.77C466.961 119.8 467.071 114.15 467.221 114.15C467.371 114.15 467.481 119.8 467.481 126.77C467.481 133.74 467.361 139.39 467.221 139.39Z" fill="#263238"/>
<path d="M474.054 121.771C469.681 122.117 465.287 122.117 460.914 121.771C465.287 121.424 469.681 121.424 474.054 121.771Z" fill="#263238"/>
<path d="M474.054 130.62C469.681 130.967 465.287 130.967 460.914 130.62C465.287 130.274 469.681 130.274 474.054 130.62Z" fill="#263238"/>
<path d="M503.412 111.771H486.652V140.581H503.412V111.771Z" fill="white"/>
<path d="M501.554 113.87H488.414V138.94H501.554V113.87Z" fill="#455A64"/>
<path d="M494.721 139.051C494.571 139.051 494.461 133.401 494.461 126.431C494.461 119.461 494.571 113.811 494.721 113.811C494.871 113.811 494.981 119.461 494.981 126.431C494.981 133.401 494.861 139.051 494.721 139.051Z" fill="#263238"/>
<path d="M501.554 121.43C497.181 121.777 492.787 121.777 488.414 121.43C492.787 121.083 497.181 121.083 501.554 121.43Z" fill="#263238"/>
<path d="M501.554 130.281C497.181 130.627 492.787 130.627 488.414 130.281C492.787 129.934 497.181 129.934 501.554 130.281Z" fill="#263238"/>
<path d="M530.912 111.431H514.152V140.241H530.912V111.431Z" fill="white"/>
<path d="M529.062 113.53H515.922V138.6H529.062V113.53Z" fill="#455A64"/>
<path d="M522.221 138.711C522.081 138.711 521.961 133.061 521.961 126.091C521.961 119.121 522.081 113.471 522.221 113.471C522.361 113.471 522.481 119.121 522.481 126.091C522.481 133.061 522.361 138.711 522.221 138.711Z" fill="#263238"/>
<path d="M529.052 121.09C524.683 121.45 520.291 121.45 515.922 121.09C520.292 120.743 524.682 120.743 529.052 121.09Z" fill="#263238"/>
<path d="M529.052 129.941C524.682 130.287 520.292 130.287 515.922 129.941C520.292 129.594 524.682 129.594 529.052 129.941Z" fill="#263238"/>
<path d="M558.412 111.091H541.652V139.901H558.412V111.091Z" fill="white"/>
<path d="M556.562 113.2H543.422V138.27H556.562V113.2Z" fill="#455A64"/>
<path d="M549.721 138.381C549.581 138.381 549.461 132.731 549.461 125.761C549.461 118.791 549.581 113.141 549.721 113.141C549.861 113.141 549.981 118.791 549.981 125.761C549.981 132.731 549.871 138.381 549.721 138.381Z" fill="#263238"/>
<path d="M556.552 120.76C552.182 121.107 547.792 121.107 543.422 120.76C547.792 120.413 552.182 120.413 556.552 120.76Z" fill="#263238"/>
<path d="M556.552 129.611C552.182 129.957 547.792 129.957 543.422 129.611C547.792 129.264 552.182 129.264 556.552 129.611Z" fill="#263238"/>
<path d="M636.791 76.9902H620.031V105.8H636.791V76.9902Z" fill="white"/>
<path d="M634.933 79.1006H621.793V104.171H634.933V79.1006Z" fill="#455A64"/>
<path d="M628.102 104.28C627.952 104.28 627.832 98.63 627.832 91.66C627.832 84.69 628.002 79 628.102 79C628.202 79 628.362 84.65 628.362 91.62C628.362 98.59 628.242 104.28 628.102 104.28Z" fill="#263238"/>
<path d="M634.933 86.6604C630.56 87.0071 626.166 87.0071 621.793 86.6604C626.166 86.3137 630.56 86.3137 634.933 86.6604Z" fill="#263238"/>
<path d="M634.933 95.51C630.56 95.8567 626.166 95.8567 621.793 95.51C626.166 95.1633 630.56 95.1633 634.933 95.51Z" fill="#263238"/>
<path d="M607.201 113.881H590.441V142.691H607.201V113.881Z" fill="white"/>
<path d="M605.343 115.98H592.203V141.05H605.343V115.98Z" fill="#455A64"/>
<path d="M598.514 141.16C598.364 141.16 598.254 135.51 598.254 128.54C598.254 121.57 598.364 115.92 598.514 115.92C598.664 115.92 598.774 121.57 598.774 128.54C598.774 135.51 598.654 141.16 598.514 141.16Z" fill="#263238"/>
<path d="M605.343 123.54C600.97 123.887 596.576 123.887 592.203 123.54C596.576 123.194 600.97 123.194 605.343 123.54Z" fill="#263238"/>
<path d="M605.343 132.391C600.97 132.738 596.576 132.738 592.203 132.391C596.576 132.044 600.97 132.044 605.343 132.391Z" fill="#263238"/>
<path d="M636.791 113.881H620.031V142.691H636.791V113.881Z" fill="white"/>
<path d="M634.933 115.98H621.793V141.05H634.933V115.98Z" fill="#455A64"/>
<path d="M628.102 141.16C627.952 141.16 627.832 135.51 627.832 128.54C627.832 121.57 627.952 115.92 628.102 115.92C628.252 115.92 628.362 121.57 628.362 128.54C628.362 135.51 628.242 141.16 628.102 141.16Z" fill="#263238"/>
<path d="M634.933 123.54C630.56 123.887 626.166 123.887 621.793 123.54C626.166 123.194 630.56 123.194 634.933 123.54Z" fill="#263238"/>
<path d="M634.933 132.391C630.56 132.738 626.166 132.738 621.793 132.391C626.166 132.044 630.56 132.044 634.933 132.391Z" fill="#263238"/>
<path d="M654.631 149.19H442.801V154.07H654.631V149.19Z" fill="#E0E0E0"/>
<path d="M653.371 153.9H442.801V157.17H653.371V153.9Z" fill="#E0E0E0"/>
<path d="M442.801 154.29C442.801 154.15 490.021 154.03 548.241 154.03C606.461 154.03 653.701 154.15 653.701 154.29C653.701 154.43 606.491 154.55 548.241 154.55C489.991 154.55 442.801 154.44 442.801 154.29Z" fill="#263238"/>
<path d="M442.801 157.17C442.801 157.02 490.021 156.91 548.241 156.91C606.461 156.91 653.701 157.02 653.701 157.17C653.701 157.32 606.491 157.43 548.241 157.43C489.991 157.43 442.801 157.31 442.801 157.17Z" fill="#263238"/>
<path d="M442.801 149.191C442.801 149.041 490.021 148.931 548.241 148.931C606.461 148.931 653.701 149.041 653.701 149.191C653.701 149.341 606.491 149.451 548.241 149.451C489.991 149.451 442.801 149.331 442.801 149.191Z" fill="#263238"/>
<path d="M475.152 162.21H476.662C478.797 162.21 480.844 163.058 482.354 164.568C483.863 166.077 484.712 168.125 484.712 170.26V199.74H467.102V170.26C467.102 169.203 467.31 168.156 467.714 167.179C468.119 166.203 468.712 165.315 469.459 164.568C470.207 163.82 471.094 163.227 472.071 162.823C473.048 162.418 474.094 162.21 475.152 162.21Z" fill="white"/>
<path d="M475.372 164.91H476.452C477.982 164.91 479.449 165.518 480.532 166.6C481.614 167.682 482.222 169.15 482.222 170.68V197H469.602V170.68C469.602 169.15 470.209 167.682 471.292 166.6C472.374 165.518 473.841 164.91 475.372 164.91Z" fill="#455A64"/>
<path d="M475.912 197.001C475.762 197.001 475.652 189.811 475.652 180.941C475.652 172.071 475.762 164.881 475.912 164.881C476.062 164.881 476.172 172.071 476.172 180.941C476.172 189.811 476.052 197.001 475.912 197.001Z" fill="#263238"/>
<path d="M482.143 174.92C477.956 175.267 473.749 175.267 469.562 174.92C473.749 174.573 477.956 174.573 482.143 174.92Z" fill="#263238"/>
<path d="M482.143 185.441C477.956 185.787 473.749 185.787 469.562 185.441C473.749 185.094 477.956 185.094 482.143 185.441Z" fill="#263238"/>
<path d="M514.741 162.21H516.251C518.386 162.21 520.434 163.058 521.944 164.568C523.453 166.077 524.301 168.125 524.301 170.26V199.74H506.691V170.26C506.691 168.125 507.54 166.077 509.049 164.568C510.559 163.058 512.606 162.21 514.741 162.21Z" fill="white"/>
<path d="M515.004 164.91H516.004C517.534 164.91 519.002 165.518 520.084 166.6C521.166 167.682 521.774 169.15 521.774 170.68V197H509.184V170.68C509.184 169.15 509.792 167.682 510.874 166.6C511.956 165.518 513.423 164.91 514.954 164.91H515.004Z" fill="#455A64"/>
<path d="M515.502 197.001C515.352 197.001 515.242 189.811 515.242 180.941C515.242 172.071 515.352 164.881 515.502 164.881C515.652 164.881 515.762 172.071 515.762 180.941C515.762 189.811 515.642 197.001 515.502 197.001Z" fill="#263238"/>
<path d="M521.732 174.92C517.546 175.267 513.339 175.267 509.152 174.92C513.339 174.573 517.546 174.573 521.732 174.92Z" fill="#263238"/>
<path d="M521.732 185.441C517.546 185.787 513.339 185.787 509.152 185.441C513.339 185.094 517.546 185.094 521.732 185.441Z" fill="#263238"/>
<path d="M551.472 162.21H553.002C555.137 162.21 557.184 163.058 558.694 164.568C560.204 166.077 561.052 168.125 561.052 170.26V199.74H543.422V170.26C543.422 168.125 544.27 166.077 545.78 164.568C547.289 163.058 549.337 162.21 551.472 162.21Z" fill="white"/>
<path d="M551.633 165.311H552.713C554.244 165.311 555.711 165.918 556.793 167.001C557.875 168.083 558.483 169.55 558.483 171.081V197.431H545.863V171.081C545.863 169.55 546.471 168.083 547.553 167.001C548.635 165.918 550.103 165.311 551.633 165.311Z" fill="#455A64"/>
<path d="M552.233 197.001C552.083 197.001 551.973 189.811 551.973 180.941C551.973 172.071 552.083 164.881 552.233 164.881C552.383 164.881 552.493 172.071 552.493 180.941C552.493 189.811 552.373 197.001 552.233 197.001Z" fill="#263238"/>
<path d="M558.463 174.92C554.277 175.267 550.069 175.267 545.883 174.92C550.069 174.573 554.277 174.573 558.463 174.92Z" fill="#263238"/>
<path d="M558.463 185.441C554.277 185.787 550.069 185.787 545.883 185.441C550.069 185.094 554.277 185.094 558.463 185.441Z" fill="#263238"/>
<path d="M632.941 162.21H634.451C636.586 162.21 638.633 163.058 640.143 164.568C641.652 166.077 642.501 168.125 642.501 170.26V199.74H624.891V170.26C624.891 168.125 625.739 166.077 627.248 164.568C628.758 163.058 630.806 162.21 632.941 162.21Z" fill="white"/>
<path d="M633.102 165.311H634.182C635.712 165.311 637.18 165.918 638.262 167.001C639.344 168.083 639.952 169.55 639.952 171.081V197.431H627.332V171.081C627.332 169.55 627.94 168.083 629.022 167.001C630.104 165.918 631.572 165.311 633.102 165.311Z" fill="#455A64"/>
<path d="M633.701 197.001C633.551 197.001 633.441 189.811 633.441 180.941C633.441 172.071 633.551 164.881 633.701 164.881C633.851 164.881 634.001 172.101 634.001 181.001C634.001 189.901 633.841 197.001 633.701 197.001Z" fill="#263238"/>
<path d="M639.932 174.92C635.745 175.267 631.538 175.267 627.352 174.92C631.538 174.573 635.745 174.573 639.932 174.92Z" fill="#263238"/>
<path d="M639.932 185.441C635.745 185.787 631.538 185.787 627.352 185.441C631.538 185.094 635.745 185.094 639.932 185.441Z" fill="#263238"/>
<path d="M598.064 162.21H599.574C601.709 162.21 603.756 163.058 605.266 164.568C606.776 166.077 607.624 168.125 607.624 170.26V199.74H590.004V170.26C590.004 169.202 590.212 168.154 590.618 167.177C591.023 166.2 591.617 165.312 592.365 164.564C593.114 163.817 594.002 163.224 594.98 162.82C595.958 162.416 597.006 162.209 598.064 162.21Z" fill="white"/>
<path d="M598.223 165.311H599.303C600.833 165.311 602.301 165.918 603.383 167.001C604.465 168.083 605.073 169.55 605.073 171.081V197.431H592.453V171.081C592.453 169.55 593.061 168.083 594.143 167.001C595.225 165.918 596.693 165.311 598.223 165.311Z" fill="#455A64"/>
<path d="M598.823 197.001C598.673 197.001 598.562 189.811 598.562 180.941C598.562 172.071 598.673 164.881 598.823 164.881C598.973 164.881 599.083 172.071 599.083 180.941C599.083 189.811 599.003 197.001 598.823 197.001Z" fill="#263238"/>
<path d="M605.053 174.92C600.867 175.267 596.659 175.267 592.473 174.92C596.659 174.573 600.867 174.573 605.053 174.92Z" fill="#263238"/>
<path d="M605.053 185.441C600.867 185.787 596.659 185.787 592.473 185.441C596.659 185.094 600.867 185.094 605.053 185.441Z" fill="#263238"/>
<path d="M576.251 92.7207H440.691V97.4907H576.251V92.7207Z" fill="#E0E0E0"/>
<path d="M574.603 97.4805H442.773V99.0705H574.603V97.4805Z" fill="#E0E0E0"/>
<path d="M576.252 92.7202H575.542H573.482H565.602L536.602 92.8002L440.662 92.9102L440.922 92.6502C440.922 94.1502 440.922 95.7802 440.922 97.4102L440.652 97.1502C506.202 97.1502 561.242 97.2402 576.212 97.3502L576.142 97.4102C576.142 95.8002 576.142 94.6202 576.142 93.8202C576.142 93.0202 576.142 92.6502 576.142 92.6502C576.142 92.6502 576.142 93.0102 576.142 93.7902C576.142 94.5702 576.142 95.7902 576.142 97.4102V97.4802H576.082C561.082 97.5902 506.082 97.6802 440.522 97.6802H440.262V97.4102V92.4102H440.522L536.652 92.5102L565.562 92.5901H573.382H575.382L576.252 92.7202Z" fill="#263238"/>
<path d="M442.771 97.4805C442.784 97.6135 442.784 97.7474 442.771 97.8805C442.771 98.1705 442.771 98.5705 442.771 99.0805L442.711 99.0205C449.231 98.9105 476.291 98.8205 508.711 98.8205C541.131 98.8205 568.161 98.9105 574.711 99.0205L574.651 99.0805C574.651 98.5705 574.651 98.1805 574.651 97.8805C574.639 97.7474 574.639 97.6135 574.651 97.4805C574.684 97.6117 574.704 97.7456 574.711 97.8805C574.711 98.1705 574.771 98.5605 574.811 99.0705V99.1305H574.751C568.231 99.2505 541.171 99.3405 508.751 99.3405C476.331 99.3405 449.301 99.2505 442.751 99.1305H442.691C442.691 98.6205 442.691 98.2205 442.691 97.9305C442.702 97.778 442.729 97.6271 442.771 97.4805Z" fill="#263238"/>
<path d="M576.251 92.7209H440.691L443.331 80.6309H574.041L576.251 92.7209Z" fill="#5EAFFF"/>
<path d="M268.68 51.7404L264.23 47.2204L358.31 0.900391L453.68 47.7004L449 51.7404L358.23 9.03039L268.68 51.7404Z" fill="#5EAFFF"/>
<path opacity="0.2" d="M269.363 51.7403H449.003L358.233 9.03027L269.363 51.7403Z" fill="black"/>
<path d="M357.782 45.7307C365.022 45.7307 370.892 39.8612 370.892 32.6207C370.892 25.3803 365.022 19.5107 357.782 19.5107C350.541 19.5107 344.672 25.3803 344.672 32.6207C344.672 39.8612 350.541 45.7307 357.782 45.7307Z" fill="#E0E0E0"/>
<path d="M144.282 97.4805L279.832 97.4805V92.7105L144.282 92.7105V97.4805Z" fill="#E0E0E0"/>
<path d="M145.932 99.0801L277.762 99.0801V97.4901L145.932 97.4901V99.0801Z" fill="#E0E0E0"/>
<path d="M144.281 92.72H144.951H146.951H154.771L183.671 92.64L279.801 92.54H280.061V97.54V97.81H279.801C214.251 97.81 159.211 97.72 144.251 97.61H144.181V97.54C144.181 95.91 144.181 94.72 144.181 93.92C144.181 93.12 144.181 92.78 144.181 92.78C144.181 92.78 144.181 93.17 144.181 93.95C144.181 94.73 144.181 95.95 144.181 97.54L144.121 97.48C159.121 97.37 214.121 97.28 279.671 97.28L279.411 97.54V92.78L279.671 93.04L183.741 92.93L154.741 92.85H146.861H145.001L144.281 92.72Z" fill="#263238"/>
<path d="M277.753 97.4807C277.765 97.6137 277.765 97.7476 277.753 97.8807C277.753 98.174 277.753 98.574 277.753 99.0807H277.693C271.183 99.2007 244.113 99.2907 211.693 99.2907C179.273 99.2907 152.243 99.2007 145.693 99.0807H145.633V99.0207L145.743 97.8307C145.729 97.6977 145.729 97.5636 145.743 97.4307C145.756 97.5637 145.756 97.6976 145.743 97.8307C145.743 98.1307 145.743 98.5207 145.743 99.0307L145.693 98.9707C152.213 98.8607 179.273 98.7707 211.693 98.7707C244.113 98.7707 271.143 98.8607 277.693 98.9707L277.643 99.0307C277.643 98.5173 277.643 98.1173 277.643 97.8307C277.673 97.712 277.709 97.5951 277.753 97.4807Z" fill="#263238"/>
<path d="M144.281 92.7209H279.831L277.191 80.6309H146.481L144.281 92.7209Z" fill="#5EAFFF"/>
</svg>
