<svg xmlns="http://www.w3.org/2000/svg" viewBox="0 0 750 500"><g id="freepik--background-simple--inject-31"><path d="M733.12,155.7c-9-45.07-28.13-85.22-63.25-109.49-46.94-32.43-109-37.8-167.84-20-33.53,10.13-65.2,29-96.18,48.33C378.32,91.67,333,96.43,300.76,94.57c-41.66-2.42-108.37-41-182.63-27.79S2.92,182.82,7.57,249s72.19,71.29,86.28,126.45,93.23,107,207.63,85,174.1-35.17,226.63-6.53,130,41.5,176.61-58.52c18.67-40,30.28-83.12,33.54-125.72C741.12,232.37,740.47,192.4,733.12,155.7Z" style="fill:#92C7E3"></path><path d="M733.12,155.7c-9-45.07-28.13-85.22-63.25-109.49-46.94-32.43-109-37.8-167.84-20-33.53,10.13-65.2,29-96.18,48.33-27.53,17.18-67.21,20.92-105.09,20.08-41.73-.93-108.37-41-182.63-27.79S2.92,182.82,7.57,249s72.19,71.29,86.28,126.45,93.23,107,207.63,85,174.1-35.17,226.63-6.53,130,41.5,176.61-58.52c18.67-40,30.28-83.12,33.54-125.72C741.12,232.37,740.47,192.4,733.12,155.7Z" style="fill:#fff;opacity:0.8"></path></g><g id="freepik--Clouds--inject-31"><g style="opacity:0.5"><path d="M549.36,124.23H309.55L342,117.59c.88-1,6.43-7.2,15.17-7.87a18.32,18.32,0,0,1,10.48,2.4c2.32,1.16,3.5,1.67,4.9.55a18.23,18.23,0,0,0,3.15-4.27c2.9-4.67,6.86-11.06,15.53-13.61,6-1.77,10.42-.3,14,.88s5.82,2,7.81-1.37c9.58-16,23.69-25.78,37.74-26.24,12-.39,22.86,6,31.45,18.36h0c2.81,4,6,8.15,11.78,9.79,4.24,1.22,8.65.16,13.32-1,6.17-1.47,12.54-3,19.49.28,12.13,5.71,21.9,27.09,22.31,28Zm-230-1H547.8c-1.82-3.8-10.9-21.82-21.48-26.79-6.64-3.13-12.84-1.65-18.84-.21-4.8,1.14-9.33,2.23-13.82.94C487.59,95.44,484.11,91,481.33,87h0c-8.38-12.11-18.95-18.3-30.6-17.93-13.71.45-27.51,10.08-36.91,25.76-2.41,4-5.31,3-9,1.8-3.4-1.14-7.64-2.55-13.36-.87-8.3,2.44-12.15,8.65-15,13.18a18.59,18.59,0,0,1-3.37,4.52c-2,1.57-3.74.68-6-.44a17.38,17.38,0,0,0-10-2.3c-8.92.69-14.54,7.58-14.59,7.64l-.11.15Z"></path><path d="M408.59,120l-1-.25c0-.09.61-2.27,4.59-4.66a5.48,5.48,0,0,1,4.53-.93,2.32,2.32,0,0,0,2.1-.33c.83-.55,1.13-1.52,1.51-2.75a12.12,12.12,0,0,1,4.08-6.44c2.87-2.39,6.18-2,8.83-1.62,1.84.23,3.43.44,4.54-.22s1-1.5,1-3.58a23,23,0,0,1,3.91-13.4,17.12,17.12,0,0,1,12.79-7.58,15.2,15.2,0,0,1,12.69,4.28c1.53,1.59,2.94,3.32,4.32,5,2.58,3.16,5.25,6.43,8.72,8.75l-.56.83c-3.59-2.4-6.31-5.73-8.94-9-1.36-1.67-2.76-3.39-4.26-5a14.22,14.22,0,0,0-11.87-4,16.29,16.29,0,0,0-12,7.11,22.11,22.11,0,0,0-3.76,12.88c0,2.07,0,3.56-1.53,4.44s-3.24.59-5.18.34c-2.59-.34-5.52-.71-8.06,1.4a11.25,11.25,0,0,0-3.76,6c-.43,1.35-.8,2.52-1.92,3.27a3.25,3.25,0,0,1-2.84.48,4.53,4.53,0,0,0-3.83.81C409.15,118.09,408.6,120,408.59,120Z"></path></g><g style="opacity:0.5"><path d="M163.22,92.22H44.45l18-3.7A11.59,11.59,0,0,1,70,84.7a9,9,0,0,1,5.2,1.18c1.14.58,1.56.73,2.09.3a8.6,8.6,0,0,0,1.46-2c1.42-2.29,3.37-5.42,7.65-6.68a10.56,10.56,0,0,1,6.89.43c1.86.62,2.65.82,3.47-.55,4.68-7.79,11.57-12.58,18.45-12.8,5.86-.18,11.21,2.91,15.41,9,1.62,2.34,3.11,3.93,5.54,4.62,2,.57,4.09.07,6.31-.46,2.88-.69,6.14-1.47,9.58.15,5.94,2.79,10.7,13.21,10.9,13.65Zm-108.92-1H161.65c-1.19-2.4-5.32-10.21-10.08-12.45-3.12-1.47-6.07-.76-8.92-.08-2.35.56-4.57,1.09-6.81.46-3-.87-4.73-3.05-6.1-5-4-5.77-9-8.74-14.55-8.54-6.53.21-13.12,4.81-17.62,12.31-1.27,2.11-2.91,1.56-4.64,1a9.71,9.71,0,0,0-6.3-.41c-3.92,1.15-5.74,4.1-7.08,6.25A9,9,0,0,1,77.87,87c-1.08.86-2.1.35-3.17-.18A8.07,8.07,0,0,0,70,85.69a10.65,10.65,0,0,0-6.86,3.6l-.12.14Z"></path><path d="M95.08,90l-1-.25c0-.12.35-1.23,2.33-2.41a2.91,2.91,0,0,1,2.37-.48.87.87,0,0,0,.82-.13c.31-.2.44-.56.63-1.18a6.16,6.16,0,0,1,2-3.23c1.47-1.23,3.13-1,4.46-.85a3.55,3.55,0,0,0,2-.07c.33-.19.36-.53.37-1.51a11.26,11.26,0,0,1,1.93-6.6,8.46,8.46,0,0,1,6.36-3.78,7.56,7.56,0,0,1,6.34,2.14c.75.77,1.44,1.62,2.1,2.43a19.87,19.87,0,0,0,4.16,4.18l-.56.83a20.62,20.62,0,0,1-4.37-4.38c-.65-.8-1.33-1.62-2-2.37a6.62,6.62,0,0,0-5.51-1.84A7.58,7.58,0,0,0,112,73.81a10.43,10.43,0,0,0-1.77,6.08c0,1,0,1.87-.87,2.37a4.16,4.16,0,0,1-2.66.19c-1.26-.16-2.56-.33-3.7.62a5.22,5.22,0,0,0-1.74,2.77,2.89,2.89,0,0,1-1,1.72,1.89,1.89,0,0,1-1.57.27,2,2,0,0,0-1.67.36C95.35,89.15,95.08,90,95.08,90Z"></path></g></g><g id="freepik--Building--inject-31"><g style="opacity:0.5"><path d="M314.89,227.66H159.51a.5.5,0,0,1-.5-.5V165.09a.5.5,0,0,1,.5-.5H314.89a.5.5,0,0,1,.5.5v62.07A.5.5,0,0,1,314.89,227.66Zm-154.88-1H314.39V165.59H160Z"></path><path d="M314.89,209H159.51a.51.51,0,0,1-.5-.5v-43.4a.5.5,0,0,1,.5-.5H314.89a.5.5,0,0,1,.5.5v43.4A.51.51,0,0,1,314.89,209ZM160,208H314.39v-42.4H160Z"></path><path d="M174.15,367.28H161.71a.5.5,0,0,1-.5-.5V227.16a.5.5,0,0,1,.5-.5h12.44a.5.5,0,0,1,.5.5V366.78A.5.5,0,0,1,174.15,367.28Zm-11.94-1h11.44V227.66H162.21Z"></path><path d="M175.42,373H160.5a.5.5,0,0,1-.5-.5v-5.64a.5.5,0,0,1,.5-.5h14.92a.5.5,0,0,1,.5.5v5.64A.5.5,0,0,1,175.42,373ZM161,372h13.92v-4.64H161Z"></path><path d="M177.32,378.55H158.6a.5.5,0,0,1-.5-.5v-5.64a.5.5,0,0,1,.5-.5h18.72a.5.5,0,0,1,.5.5v5.64A.5.5,0,0,1,177.32,378.55Zm-18.22-1h17.72v-4.64H159.1Z"></path><path d="M208.22,367.28H195.78a.5.5,0,0,1-.5-.5V227.16a.5.5,0,0,1,.5-.5h12.44a.5.5,0,0,1,.5.5V366.78A.5.5,0,0,1,208.22,367.28Zm-11.94-1h11.44V227.66H196.28Z"></path><path d="M209.49,373H194.57a.5.5,0,0,1-.5-.5v-5.64a.5.5,0,0,1,.5-.5h14.92a.5.5,0,0,1,.5.5v5.64A.5.5,0,0,1,209.49,373Zm-14.42-1H209v-4.64H195.07Z"></path><path d="M211.39,378.55H192.67a.5.5,0,0,1-.5-.5v-5.64a.5.5,0,0,1,.5-.5h18.72a.5.5,0,0,1,.5.5v5.64A.5.5,0,0,1,211.39,378.55Zm-18.22-1h17.72v-4.64H193.17Z"></path><path d="M242.29,367.28H229.85a.5.5,0,0,1-.5-.5V227.16a.5.5,0,0,1,.5-.5h12.44a.5.5,0,0,1,.5.5V366.78A.5.5,0,0,1,242.29,367.28Zm-11.94-1h11.44V227.66H230.35Z"></path><path d="M243.56,373H228.64a.5.5,0,0,1-.5-.5v-5.64a.5.5,0,0,1,.5-.5h14.92a.5.5,0,0,1,.5.5v5.64A.5.5,0,0,1,243.56,373Zm-14.42-1h13.92v-4.64H229.14Z"></path><path d="M245.46,378.55H226.74a.5.5,0,0,1-.5-.5v-5.64a.5.5,0,0,1,.5-.5h18.72a.5.5,0,0,1,.5.5v5.64A.5.5,0,0,1,245.46,378.55Zm-18.22-1H245v-4.64H227.24Z"></path><path d="M276.36,367.28H263.92a.5.5,0,0,1-.5-.5V227.16a.5.5,0,0,1,.5-.5h12.44a.5.5,0,0,1,.5.5V366.78A.5.5,0,0,1,276.36,367.28Zm-11.94-1h11.44V227.66H264.42Z"></path><path d="M277.63,373H262.71a.5.5,0,0,1-.5-.5v-5.64a.5.5,0,0,1,.5-.5h14.92a.5.5,0,0,1,.5.5v5.64A.5.5,0,0,1,277.63,373Zm-14.42-1h13.92v-4.64H263.21Z"></path><path d="M279.53,378.55H260.81a.5.5,0,0,1-.5-.5v-5.64a.5.5,0,0,1,.5-.5h18.72a.5.5,0,0,1,.5.5v5.64A.5.5,0,0,1,279.53,378.55Zm-18.22-1H279v-4.64H261.31Z"></path><path d="M310.43,367.28H298a.5.5,0,0,1-.5-.5V227.16a.5.5,0,0,1,.5-.5h12.44a.5.5,0,0,1,.5.5V366.78A.5.5,0,0,1,310.43,367.28Zm-11.94-1h11.44V227.66H298.49Z"></path><path d="M311.7,373H296.78a.5.5,0,0,1-.5-.5v-5.64a.5.5,0,0,1,.5-.5H311.7a.5.5,0,0,1,.5.5v5.64A.5.5,0,0,1,311.7,373Zm-14.42-1H311.2v-4.64H297.28Z"></path><path d="M313.6,378.55H294.88a.5.5,0,0,1-.5-.5v-5.64a.5.5,0,0,1,.5-.5H313.6a.5.5,0,0,1,.5.5v5.64A.5.5,0,0,1,313.6,378.55Zm-18.22-1H313.1v-4.64H295.38Z"></path><path d="M159.51,198.46H33a.5.5,0,0,1-.5-.5V165.09a.5.5,0,0,1,.5-.5H159.51a.5.5,0,0,1,.5.5V198A.5.5,0,0,1,159.51,198.46Zm-126-1H159V165.59H33.47Z"></path><path d="M441.39,198.46H314.85a.5.5,0,0,1-.5-.5V165.09a.5.5,0,0,1,.5-.5H441.39a.5.5,0,0,1,.5.5V198A.5.5,0,0,1,441.39,198.46Zm-126-1H440.89V165.59H315.35Z"></path><path d="M151.37,378.54H34.16a.5.5,0,0,1-.5-.5V202.84a.5.5,0,0,1,1,0v174.7H151.37a.5.5,0,1,1,0,1Z"></path><path d="M440.86,378.54H158.6a.5.5,0,1,1,0-1H440.36V202.84a.5.5,0,0,1,.5-.5.5.5,0,0,1,.5.5V378A.5.5,0,0,1,440.86,378.54Z"></path><path d="M433.23,246.5H412a.5.5,0,0,1-.5-.5V207.1a.5.5,0,0,1,.5-.5h21.27a.5.5,0,0,1,.5.5V246A.5.5,0,0,1,433.23,246.5Zm-20.77-1h20.27V207.6H412.46Z"></path><path d="M430.72,229H414.47a.5.5,0,0,1-.5-.5V209.38a.5.5,0,0,1,.5-.5h16.25a.5.5,0,0,1,.5.5v19.08A.5.5,0,0,1,430.72,229ZM415,228h15.25V209.88H415Z"></path><path d="M430.72,244.22H414.47a.5.5,0,0,1-.5-.5V231.19a.5.5,0,0,1,.5-.5h16.25a.5.5,0,0,1,.5.5v12.53A.5.5,0,0,1,430.72,244.22Zm-15.75-1h15.25V231.69H415Z"></path><path d="M391.57,246.5H370.31a.5.5,0,0,1-.5-.5V207.1a.5.5,0,0,1,.5-.5h21.26a.5.5,0,0,1,.5.5V246A.5.5,0,0,1,391.57,246.5Zm-20.76-1h20.26V207.6H370.81Z"></path><path d="M389.07,229H372.81a.5.5,0,0,1-.5-.5V209.38a.5.5,0,0,1,.5-.5h16.26a.5.5,0,0,1,.5.5v19.08A.5.5,0,0,1,389.07,229Zm-15.76-1h15.26V209.88H373.31Z"></path><path d="M389.07,244.22H372.81a.5.5,0,0,1-.5-.5V231.19a.5.5,0,0,1,.5-.5h16.26a.5.5,0,0,1,.5.5v12.53A.5.5,0,0,1,389.07,244.22Zm-15.76-1h15.26V231.69H373.31Z"></path><path d="M349.91,246.5H328.65a.5.5,0,0,1-.5-.5V207.1a.5.5,0,0,1,.5-.5h21.26a.5.5,0,0,1,.5.5V246A.5.5,0,0,1,349.91,246.5Zm-20.76-1h20.26V207.6H329.15Z"></path><path d="M347.41,229H331.15a.5.5,0,0,1-.5-.5V209.38a.5.5,0,0,1,.5-.5h16.26a.5.5,0,0,1,.5.5v19.08A.5.5,0,0,1,347.41,229Zm-15.76-1h15.26V209.88H331.65Z"></path><path d="M347.41,244.22H331.15a.5.5,0,0,1-.5-.5V231.19a.5.5,0,0,1,.5-.5h16.26a.5.5,0,0,1,.5.5v12.53A.5.5,0,0,1,347.41,244.22Zm-15.76-1h15.26V231.69H331.65Z"></path><path d="M187.69,201.94h-16a.5.5,0,0,1-.5-.5V172.22a.5.5,0,0,1,.5-.5h16a.51.51,0,0,1,.5.5v29.22A.51.51,0,0,1,187.69,201.94Zm-15.47-1h15V172.72h-15Z"></path><path d="M185.81,188.76H173.6a.5.5,0,0,1-.5-.5V173.94a.5.5,0,0,1,.5-.5h12.21a.5.5,0,0,1,.5.5v14.32A.5.5,0,0,1,185.81,188.76Zm-11.71-1h11.21V174.44H174.1Z"></path><path d="M185.81,200.23H173.6a.5.5,0,0,1-.5-.5v-9.42a.5.5,0,0,1,.5-.5h12.21a.5.5,0,0,1,.5.5v9.42A.51.51,0,0,1,185.81,200.23Zm-11.71-1h11.21v-8.42H174.1Z"></path><path d="M243,201.94H227a.5.5,0,0,1-.5-.5V172.22a.5.5,0,0,1,.5-.5h16a.5.5,0,0,1,.5.5v29.22A.5.5,0,0,1,243,201.94Zm-15.46-1h15V172.72h-15Z"></path><path d="M241.12,188.76H228.91a.5.5,0,0,1-.5-.5V173.94a.5.5,0,0,1,.5-.5h12.21a.5.5,0,0,1,.5.5v14.32A.5.5,0,0,1,241.12,188.76Zm-11.71-1h11.21V174.44H229.41Z"></path><path d="M241.12,200.23H228.91a.5.5,0,0,1-.5-.5v-9.42a.5.5,0,0,1,.5-.5h12.21a.5.5,0,0,1,.5.5v9.42A.51.51,0,0,1,241.12,200.23Zm-11.71-1h11.21v-8.42H229.41Z"></path><path d="M298.3,201.94h-16a.5.5,0,0,1-.5-.5V172.22a.5.5,0,0,1,.5-.5h16a.5.5,0,0,1,.5.5v29.22A.5.5,0,0,1,298.3,201.94Zm-15.46-1h15V172.72h-15Z"></path><path d="M296.42,188.76H284.21a.5.5,0,0,1-.5-.5V173.94a.5.5,0,0,1,.5-.5h12.21a.5.5,0,0,1,.5.5v14.32A.5.5,0,0,1,296.42,188.76Zm-11.71-1h11.21V174.44H284.71Z"></path><path d="M296.42,200.23H284.21a.51.51,0,0,1-.5-.5v-9.42a.5.5,0,0,1,.5-.5h12.21a.5.5,0,0,1,.5.5v9.42A.5.5,0,0,1,296.42,200.23Zm-11.71-1h11.21v-8.42H284.71Z"></path><path d="M150.28,246.5H129a.5.5,0,0,1-.5-.5V207.1a.5.5,0,0,1,.5-.5h21.26a.5.5,0,0,1,.5.5V246A.5.5,0,0,1,150.28,246.5Zm-20.76-1h20.26V207.6H129.52Z"></path><path d="M147.78,229H131.52a.5.5,0,0,1-.5-.5V209.38a.5.5,0,0,1,.5-.5h16.26a.5.5,0,0,1,.5.5v19.08A.5.5,0,0,1,147.78,229ZM132,228h15.26V209.88H132Z"></path><path d="M147.78,244.22H131.52a.5.5,0,0,1-.5-.5V231.19a.5.5,0,0,1,.5-.5h16.26a.5.5,0,0,1,.5.5v12.53A.5.5,0,0,1,147.78,244.22Zm-15.76-1h15.26V231.69H132Z"></path><path d="M108.62,246.5H87.36a.5.5,0,0,1-.5-.5V207.1a.5.5,0,0,1,.5-.5h21.26a.5.5,0,0,1,.5.5V246A.5.5,0,0,1,108.62,246.5Zm-20.76-1h20.26V207.6H87.86Z"></path><path d="M106.12,229H89.86a.5.5,0,0,1-.5-.5V209.38a.5.5,0,0,1,.5-.5h16.26a.5.5,0,0,1,.5.5v19.08A.5.5,0,0,1,106.12,229Zm-15.76-1h15.26V209.88H90.36Z"></path><path d="M106.12,244.22H89.86a.5.5,0,0,1-.5-.5V231.19a.5.5,0,0,1,.5-.5h16.26a.5.5,0,0,1,.5.5v12.53A.5.5,0,0,1,106.12,244.22Zm-15.76-1h15.26V231.69H90.36Z"></path><path d="M67,246.5H45.71a.5.5,0,0,1-.5-.5V207.1a.5.5,0,0,1,.5-.5H67a.5.5,0,0,1,.5.5V246A.5.5,0,0,1,67,246.5Zm-20.76-1H66.47V207.6H46.21Z"></path><path d="M64.47,229H48.21a.5.5,0,0,1-.5-.5V209.38a.5.5,0,0,1,.5-.5H64.47a.5.5,0,0,1,.5.5v19.08A.5.5,0,0,1,64.47,229Zm-15.76-1H64V209.88H48.71Z"></path><path d="M64.47,244.22H48.21a.5.5,0,0,1-.5-.5V231.19a.5.5,0,0,1,.5-.5H64.47a.5.5,0,0,1,.5.5v12.53A.5.5,0,0,1,64.47,244.22Zm-15.76-1H64V231.69H48.71Z"></path><path d="M433.23,297.75H412a.5.5,0,0,1-.5-.5V258.34a.51.51,0,0,1,.5-.5h21.27a.51.51,0,0,1,.5.5v38.91A.5.5,0,0,1,433.23,297.75Zm-20.77-1h20.27V258.84H412.46Z"></path><path d="M430.72,280.21H414.47a.5.5,0,0,1-.5-.5V260.62a.5.5,0,0,1,.5-.5h16.25a.5.5,0,0,1,.5.5v19.09A.5.5,0,0,1,430.72,280.21Zm-15.75-1h15.25V261.12H415Z"></path><path d="M430.72,295.47H414.47a.5.5,0,0,1-.5-.5V282.43a.5.5,0,0,1,.5-.5h16.25a.5.5,0,0,1,.5.5V295A.5.5,0,0,1,430.72,295.47Zm-15.75-1h15.25V282.93H415Z"></path><path d="M391.57,297.75H370.31a.5.5,0,0,1-.5-.5V258.34a.5.5,0,0,1,.5-.5h21.26a.5.5,0,0,1,.5.5v38.91A.5.5,0,0,1,391.57,297.75Zm-20.76-1h20.26V258.84H370.81Z"></path><path d="M389.07,280.21H372.81a.5.5,0,0,1-.5-.5V260.62a.5.5,0,0,1,.5-.5h16.26a.51.51,0,0,1,.5.5v19.09A.51.51,0,0,1,389.07,280.21Zm-15.76-1h15.26V261.12H373.31Z"></path><path d="M389.07,295.47H372.81a.5.5,0,0,1-.5-.5V282.43a.5.5,0,0,1,.5-.5h16.26a.5.5,0,0,1,.5.5V295A.5.5,0,0,1,389.07,295.47Zm-15.76-1h15.26V282.93H373.31Z"></path><path d="M349.91,297.75H328.65a.5.5,0,0,1-.5-.5V258.34a.5.5,0,0,1,.5-.5h21.26a.5.5,0,0,1,.5.5v38.91A.5.5,0,0,1,349.91,297.75Zm-20.76-1h20.26V258.84H329.15Z"></path><path d="M347.41,280.21H331.15a.5.5,0,0,1-.5-.5V260.62a.5.5,0,0,1,.5-.5h16.26a.5.5,0,0,1,.5.5v19.09A.5.5,0,0,1,347.41,280.21Zm-15.76-1h15.26V261.12H331.65Z"></path><path d="M347.41,295.47H331.15a.5.5,0,0,1-.5-.5V282.43a.5.5,0,0,1,.5-.5h16.26a.5.5,0,0,1,.5.5V295A.5.5,0,0,1,347.41,295.47Zm-15.76-1h15.26V282.93H331.65Z"></path><path d="M559.26,307.21H538a.5.5,0,0,1-.5-.5v-38.9a.5.5,0,0,1,.5-.5h21.26a.5.5,0,0,1,.5.5v38.9A.5.5,0,0,1,559.26,307.21Zm-20.76-1h20.26v-37.9H538.5Z"></path><path d="M556.76,289.67H540.5a.51.51,0,0,1-.5-.5V270.09a.5.5,0,0,1,.5-.5h16.26a.5.5,0,0,1,.5.5v19.08A.5.5,0,0,1,556.76,289.67Zm-15.76-1h15.26V270.59H541Z"></path><path d="M556.76,304.93H540.5a.5.5,0,0,1-.5-.5V291.89a.51.51,0,0,1,.5-.5h16.26a.5.5,0,0,1,.5.5v12.54A.5.5,0,0,1,556.76,304.93Zm-15.76-1h15.26V292.39H541Z"></path><path d="M517.61,307.21H496.34a.5.5,0,0,1-.5-.5v-38.9a.5.5,0,0,1,.5-.5h21.27a.5.5,0,0,1,.5.5v38.9A.5.5,0,0,1,517.61,307.21Zm-20.77-1h20.27v-37.9H496.84Z"></path><path d="M515.1,289.67H498.85a.5.5,0,0,1-.5-.5V270.09a.5.5,0,0,1,.5-.5H515.1a.5.5,0,0,1,.5.5v19.08A.5.5,0,0,1,515.1,289.67Zm-15.75-1H514.6V270.59H499.35Z"></path><path d="M515.1,304.93H498.85a.5.5,0,0,1-.5-.5V291.89a.5.5,0,0,1,.5-.5H515.1a.5.5,0,0,1,.5.5v12.54A.5.5,0,0,1,515.1,304.93Zm-15.75-1H514.6V292.39H499.35Z"></path><path d="M476,307.21H454.69a.5.5,0,0,1-.5-.5v-38.9a.5.5,0,0,1,.5-.5H476a.5.5,0,0,1,.5.5v38.9A.5.5,0,0,1,476,307.21Zm-20.76-1h20.26v-37.9H455.19Z"></path><path d="M473.45,289.67H457.19a.5.5,0,0,1-.5-.5V270.09a.5.5,0,0,1,.5-.5h16.26a.5.5,0,0,1,.5.5v19.08A.51.51,0,0,1,473.45,289.67Zm-15.76-1H473V270.59H457.69Z"></path><path d="M473.45,304.93H457.19a.5.5,0,0,1-.5-.5V291.89a.5.5,0,0,1,.5-.5h16.26a.51.51,0,0,1,.5.5v12.54A.5.5,0,0,1,473.45,304.93Zm-15.76-1H473V292.39H457.69Z"></path><path d="M25.89,307.21H4.63a.5.5,0,0,1-.5-.5v-38.9a.5.5,0,0,1,.5-.5H25.89a.5.5,0,0,1,.5.5v38.9A.5.5,0,0,1,25.89,307.21Zm-20.76-1H25.39v-37.9H5.13Z"></path><path d="M23.39,289.67H7.13a.51.51,0,0,1-.5-.5V270.09a.5.5,0,0,1,.5-.5H23.39a.5.5,0,0,1,.5.5v19.08A.5.5,0,0,1,23.39,289.67Zm-15.76-1H22.89V270.59H7.63Z"></path><path d="M23.39,304.93H7.13a.5.5,0,0,1-.5-.5V291.89a.51.51,0,0,1,.5-.5H23.39a.5.5,0,0,1,.5.5v12.54A.5.5,0,0,1,23.39,304.93Zm-15.76-1H22.89V292.39H7.63Z"></path><path d="M559.26,358.46H538a.5.5,0,0,1-.5-.5V319.05a.51.51,0,0,1,.5-.5h21.26a.5.5,0,0,1,.5.5V358A.5.5,0,0,1,559.26,358.46Zm-20.76-1h20.26V319.55H538.5Z"></path><path d="M556.76,340.91H540.5a.5.5,0,0,1-.5-.5V321.33a.51.51,0,0,1,.5-.5h16.26a.5.5,0,0,1,.5.5v19.08A.5.5,0,0,1,556.76,340.91Zm-15.76-1h15.26V321.83H541Z"></path><path d="M556.76,356.18H540.5a.5.5,0,0,1-.5-.5V343.14a.5.5,0,0,1,.5-.5h16.26a.5.5,0,0,1,.5.5v12.54A.5.5,0,0,1,556.76,356.18Zm-15.76-1h15.26V343.64H541Z"></path><path d="M517.61,358.46H496.34a.5.5,0,0,1-.5-.5V319.05a.51.51,0,0,1,.5-.5h21.27a.51.51,0,0,1,.5.5V358A.5.5,0,0,1,517.61,358.46Zm-20.77-1h20.27V319.55H496.84Z"></path><path d="M515.1,340.91H498.85a.5.5,0,0,1-.5-.5V321.33a.5.5,0,0,1,.5-.5H515.1a.5.5,0,0,1,.5.5v19.08A.5.5,0,0,1,515.1,340.91Zm-15.75-1H514.6V321.83H499.35Z"></path><path d="M515.1,356.18H498.85a.5.5,0,0,1-.5-.5V343.14a.5.5,0,0,1,.5-.5H515.1a.5.5,0,0,1,.5.5v12.54A.5.5,0,0,1,515.1,356.18Zm-15.75-1H514.6V343.64H499.35Z"></path><path d="M476,358.46H454.69a.5.5,0,0,1-.5-.5V319.05a.5.5,0,0,1,.5-.5H476a.51.51,0,0,1,.5.5V358A.5.5,0,0,1,476,358.46Zm-20.76-1h20.26V319.55H455.19Z"></path><path d="M473.45,340.91H457.19a.5.5,0,0,1-.5-.5V321.33a.5.5,0,0,1,.5-.5h16.26a.51.51,0,0,1,.5.5v19.08A.5.5,0,0,1,473.45,340.91Zm-15.76-1H473V321.83H457.69Z"></path><path d="M473.45,356.18H457.19a.5.5,0,0,1-.5-.5V343.14a.5.5,0,0,1,.5-.5h16.26a.5.5,0,0,1,.5.5v12.54A.5.5,0,0,1,473.45,356.18Zm-15.76-1H473V343.64H457.69Z"></path><path d="M25.89,358.46H4.63a.5.5,0,0,1-.5-.5V319.05a.51.51,0,0,1,.5-.5H25.89a.5.5,0,0,1,.5.5V358A.5.5,0,0,1,25.89,358.46Zm-20.76-1H25.39V319.55H5.13Z"></path><path d="M23.39,340.91H7.13a.5.5,0,0,1-.5-.5V321.33a.51.51,0,0,1,.5-.5H23.39a.5.5,0,0,1,.5.5v19.08A.5.5,0,0,1,23.39,340.91Zm-15.76-1H22.89V321.83H7.63Z"></path><path d="M23.39,356.18H7.13a.5.5,0,0,1-.5-.5V343.14a.5.5,0,0,1,.5-.5H23.39a.5.5,0,0,1,.5.5v12.54A.5.5,0,0,1,23.39,356.18Zm-15.76-1H22.89V343.64H7.63Z"></path><path d="M685.32,307.21H664.06a.5.5,0,0,1-.5-.5v-38.9a.5.5,0,0,1,.5-.5h21.26a.5.5,0,0,1,.5.5v38.9A.5.5,0,0,1,685.32,307.21Zm-20.76-1h20.26v-37.9H664.56Z"></path><path d="M682.82,289.67H666.56a.5.5,0,0,1-.5-.5V270.09a.5.5,0,0,1,.5-.5h16.26a.5.5,0,0,1,.5.5v19.08A.5.5,0,0,1,682.82,289.67Zm-15.76-1h15.26V270.59H667.06Z"></path><path d="M682.82,304.93H666.56a.5.5,0,0,1-.5-.5V291.89a.5.5,0,0,1,.5-.5h16.26a.5.5,0,0,1,.5.5v12.54A.5.5,0,0,1,682.82,304.93Zm-15.76-1h15.26V292.39H667.06Z"></path><path d="M643.66,307.21H622.4a.5.5,0,0,1-.5-.5v-38.9a.5.5,0,0,1,.5-.5h21.26a.5.5,0,0,1,.5.5v38.9A.5.5,0,0,1,643.66,307.21Zm-20.76-1h20.26v-37.9H622.9Z"></path><path d="M641.16,289.67H624.9a.51.51,0,0,1-.5-.5V270.09a.5.5,0,0,1,.5-.5h16.26a.5.5,0,0,1,.5.5v19.08A.5.5,0,0,1,641.16,289.67Zm-15.76-1h15.26V270.59H625.4Z"></path><path d="M641.16,304.93H624.9a.5.5,0,0,1-.5-.5V291.89a.51.51,0,0,1,.5-.5h16.26a.5.5,0,0,1,.5.5v12.54A.5.5,0,0,1,641.16,304.93Zm-15.76-1h15.26V292.39H625.4Z"></path><path d="M602,307.21H580.74a.5.5,0,0,1-.5-.5v-38.9a.5.5,0,0,1,.5-.5H602a.5.5,0,0,1,.5.5v38.9A.5.5,0,0,1,602,307.21Zm-20.77-1h20.27v-37.9H581.24Z"></path><path d="M599.5,289.67H583.25a.5.5,0,0,1-.5-.5V270.09a.5.5,0,0,1,.5-.5H599.5a.5.5,0,0,1,.5.5v19.08A.5.5,0,0,1,599.5,289.67Zm-15.75-1H599V270.59H583.75Z"></path><path d="M599.5,304.93H583.25a.5.5,0,0,1-.5-.5V291.89a.5.5,0,0,1,.5-.5H599.5a.5.5,0,0,1,.5.5v12.54A.5.5,0,0,1,599.5,304.93Zm-15.75-1H599V292.39H583.75Z"></path><path d="M685.32,358.46H664.06a.5.5,0,0,1-.5-.5V319.05a.5.5,0,0,1,.5-.5h21.26a.5.5,0,0,1,.5.5V358A.5.5,0,0,1,685.32,358.46Zm-20.76-1h20.26V319.55H664.56Z"></path><path d="M682.82,340.91H666.56a.5.5,0,0,1-.5-.5V321.33a.5.5,0,0,1,.5-.5h16.26a.5.5,0,0,1,.5.5v19.08A.5.5,0,0,1,682.82,340.91Zm-15.76-1h15.26V321.83H667.06Z"></path><path d="M682.82,356.18H666.56a.5.5,0,0,1-.5-.5V343.14a.5.5,0,0,1,.5-.5h16.26a.5.5,0,0,1,.5.5v12.54A.5.5,0,0,1,682.82,356.18Zm-15.76-1h15.26V343.64H667.06Z"></path><path d="M643.66,358.46H622.4a.5.5,0,0,1-.5-.5V319.05a.5.5,0,0,1,.5-.5h21.26a.5.5,0,0,1,.5.5V358A.5.5,0,0,1,643.66,358.46Zm-20.76-1h20.26V319.55H622.9Z"></path><path d="M641.16,340.91H624.9a.5.5,0,0,1-.5-.5V321.33a.51.51,0,0,1,.5-.5h16.26a.5.5,0,0,1,.5.5v19.08A.5.5,0,0,1,641.16,340.91Zm-15.76-1h15.26V321.83H625.4Z"></path><path d="M641.16,356.18H624.9a.5.5,0,0,1-.5-.5V343.14a.5.5,0,0,1,.5-.5h16.26a.5.5,0,0,1,.5.5v12.54A.5.5,0,0,1,641.16,356.18Zm-15.76-1h15.26V343.64H625.4Z"></path><path d="M602,358.46H580.74a.5.5,0,0,1-.5-.5V319.05a.51.51,0,0,1,.5-.5H602a.51.51,0,0,1,.5.5V358A.5.5,0,0,1,602,358.46Zm-20.77-1h20.27V319.55H581.24Z"></path><path d="M599.5,340.91H583.25a.5.5,0,0,1-.5-.5V321.33a.5.5,0,0,1,.5-.5H599.5a.5.5,0,0,1,.5.5v19.08A.5.5,0,0,1,599.5,340.91Zm-15.75-1H599V321.83H583.75Z"></path><path d="M599.5,356.18H583.25a.5.5,0,0,1-.5-.5V343.14a.5.5,0,0,1,.5-.5H599.5a.5.5,0,0,1,.5.5v12.54A.5.5,0,0,1,599.5,356.18Zm-15.75-1H599V343.64H583.75Z"></path><path d="M150.28,297.75H129a.5.5,0,0,1-.5-.5V258.34a.5.5,0,0,1,.5-.5h21.26a.5.5,0,0,1,.5.5v38.91A.5.5,0,0,1,150.28,297.75Zm-20.76-1h20.26V258.84H129.52Z"></path><path d="M147.78,280.21H131.52a.51.51,0,0,1-.5-.5V260.62a.51.51,0,0,1,.5-.5h16.26a.5.5,0,0,1,.5.5v19.09A.5.5,0,0,1,147.78,280.21Zm-15.76-1h15.26V261.12H132Z"></path><path d="M147.78,295.47H131.52a.5.5,0,0,1-.5-.5V282.43a.5.5,0,0,1,.5-.5h16.26a.5.5,0,0,1,.5.5V295A.5.5,0,0,1,147.78,295.47Zm-15.76-1h15.26V282.93H132Z"></path><path d="M195.78,297.75H174.2a.5.5,0,0,1-.5-.5V258.34a.5.5,0,0,1,.5-.5h21.58a.5.5,0,0,1,.5.5v38.91A.5.5,0,0,1,195.78,297.75Zm-21.08-1h20.58V258.84H174.7Z"></path><path d="M193.24,280.21h-16.5a.5.5,0,0,1-.5-.5V260.62a.5.5,0,0,1,.5-.5h16.5a.5.5,0,0,1,.5.5v19.09A.5.5,0,0,1,193.24,280.21Zm-16-1h15.5V261.12h-15.5Z"></path><path d="M193.24,295.47h-16.5a.5.5,0,0,1-.5-.5V282.43a.5.5,0,0,1,.5-.5h16.5a.5.5,0,0,1,.5.5V295A.5.5,0,0,1,193.24,295.47Zm-16-1h15.5V282.93h-15.5Z"></path><path d="M229.86,297.75H208.28a.5.5,0,0,1-.5-.5V258.34a.5.5,0,0,1,.5-.5h21.58a.5.5,0,0,1,.5.5v38.91A.5.5,0,0,1,229.86,297.75Zm-21.08-1h20.58V258.84H208.78Z"></path><path d="M227.32,280.21h-16.5a.5.5,0,0,1-.5-.5V260.62a.5.5,0,0,1,.5-.5h16.5a.5.5,0,0,1,.5.5v19.09A.5.5,0,0,1,227.32,280.21Zm-16-1h15.5V261.12h-15.5Z"></path><path d="M227.32,295.47h-16.5a.5.5,0,0,1-.5-.5V282.43a.5.5,0,0,1,.5-.5h16.5a.5.5,0,0,1,.5.5V295A.5.5,0,0,1,227.32,295.47Zm-16-1h15.5V282.93h-15.5Z"></path><path d="M263.94,297.75H242.36a.5.5,0,0,1-.5-.5V258.34a.51.51,0,0,1,.5-.5h21.58a.5.5,0,0,1,.5.5v38.91A.5.5,0,0,1,263.94,297.75Zm-21.08-1h20.58V258.84H242.86Z"></path><path d="M261.4,280.21H244.9a.5.5,0,0,1-.5-.5V260.62a.5.5,0,0,1,.5-.5h16.5a.5.5,0,0,1,.5.5v19.09A.5.5,0,0,1,261.4,280.21Zm-16-1h15.5V261.12H245.4Z"></path><path d="M261.4,295.47H244.9a.5.5,0,0,1-.5-.5V282.43a.5.5,0,0,1,.5-.5h16.5a.5.5,0,0,1,.5.5V295A.5.5,0,0,1,261.4,295.47Zm-16-1h15.5V282.93H245.4Z"></path><path d="M298,297.75H276.44a.5.5,0,0,1-.5-.5V258.34a.51.51,0,0,1,.5-.5H298a.51.51,0,0,1,.5.5v38.91A.5.5,0,0,1,298,297.75Zm-21.09-1h20.59V258.84H276.94Z"></path><path d="M295.49,280.21H279a.51.51,0,0,1-.5-.5V260.62a.51.51,0,0,1,.5-.5h16.51a.51.51,0,0,1,.5.5v19.09A.51.51,0,0,1,295.49,280.21Zm-16-1H295V261.12H279.48Z"></path><path d="M295.49,295.47H279a.5.5,0,0,1-.5-.5V282.43a.5.5,0,0,1,.5-.5h16.51a.5.5,0,0,1,.5.5V295A.5.5,0,0,1,295.49,295.47Zm-16-1H295V282.93H279.48Z"></path><path d="M195.78,245.17H174.2a.5.5,0,0,1-.5-.5V227.4a.5.5,0,0,1,.5-.5h21.58a.5.5,0,0,1,.5.5v17.27A.5.5,0,0,1,195.78,245.17Zm-21.08-1h20.58V227.9H174.7Z"></path><path d="M193.24,242.89h-16.5a.5.5,0,0,1-.5-.5V229.85a.5.5,0,0,1,.5-.5h16.5a.5.5,0,0,1,.5.5v12.54A.5.5,0,0,1,193.24,242.89Zm-16-1h15.5V230.35h-15.5Z"></path><path d="M229.86,245.17H208.28a.5.5,0,0,1-.5-.5V227.4a.5.5,0,0,1,.5-.5h21.58a.5.5,0,0,1,.5.5v17.27A.5.5,0,0,1,229.86,245.17Zm-21.08-1h20.58V227.9H208.78Z"></path><path d="M227.32,242.89h-16.5a.5.5,0,0,1-.5-.5V229.85a.5.5,0,0,1,.5-.5h16.5a.5.5,0,0,1,.5.5v12.54A.5.5,0,0,1,227.32,242.89Zm-16-1h15.5V230.35h-15.5Z"></path><path d="M263.94,245.17H242.36a.51.51,0,0,1-.5-.5V227.4a.5.5,0,0,1,.5-.5h21.58a.5.5,0,0,1,.5.5v17.27A.5.5,0,0,1,263.94,245.17Zm-21.08-1h20.58V227.9H242.86Z"></path><path d="M261.4,242.89H244.9a.5.5,0,0,1-.5-.5V229.85a.5.5,0,0,1,.5-.5h16.5a.5.5,0,0,1,.5.5v12.54A.5.5,0,0,1,261.4,242.89Zm-16-1h15.5V230.35H245.4Z"></path><path d="M298,245.17H276.44a.51.51,0,0,1-.5-.5V227.4a.5.5,0,0,1,.5-.5H298a.5.5,0,0,1,.5.5v17.27A.51.51,0,0,1,298,245.17Zm-21.09-1h20.59V227.9H276.94Z"></path><path d="M295.49,242.89H279a.51.51,0,0,1-.5-.5V229.85a.5.5,0,0,1,.5-.5h16.51a.5.5,0,0,1,.5.5v12.54A.51.51,0,0,1,295.49,242.89Zm-16-1H295V230.35H279.48Z"></path><path d="M108.62,297.75H87.36a.5.5,0,0,1-.5-.5V258.34a.51.51,0,0,1,.5-.5h21.26a.5.5,0,0,1,.5.5v38.91A.5.5,0,0,1,108.62,297.75Zm-20.76-1h20.26V258.84H87.86Z"></path><path d="M106.12,280.21H89.86a.51.51,0,0,1-.5-.5V260.62a.51.51,0,0,1,.5-.5h16.26a.5.5,0,0,1,.5.5v19.09A.5.5,0,0,1,106.12,280.21Zm-15.76-1h15.26V261.12H90.36Z"></path><path d="M106.12,295.47H89.86a.5.5,0,0,1-.5-.5V282.43a.5.5,0,0,1,.5-.5h16.26a.5.5,0,0,1,.5.5V295A.5.5,0,0,1,106.12,295.47Zm-15.76-1h15.26V282.93H90.36Z"></path><path d="M67,297.75H45.71a.5.5,0,0,1-.5-.5V258.34a.5.5,0,0,1,.5-.5H67a.51.51,0,0,1,.5.5v38.91A.5.5,0,0,1,67,297.75Zm-20.76-1H66.47V258.84H46.21Z"></path><path d="M64.47,280.21H48.21a.5.5,0,0,1-.5-.5V260.62a.5.5,0,0,1,.5-.5H64.47a.51.51,0,0,1,.5.5v19.09A.51.51,0,0,1,64.47,280.21Zm-15.76-1H64V261.12H48.71Z"></path><path d="M64.47,295.47H48.21a.5.5,0,0,1-.5-.5V282.43a.5.5,0,0,1,.5-.5H64.47a.5.5,0,0,1,.5.5V295A.5.5,0,0,1,64.47,295.47Zm-15.76-1H64V282.93H48.71Z"></path><path d="M349.91,360H328.65a.5.5,0,0,1-.5-.5v-37a11.15,11.15,0,0,1,11.13-11.13h0a11.15,11.15,0,0,1,11.13,11.13v37A.5.5,0,0,1,349.91,360Zm-20.76-1h20.26v-36.5a10.13,10.13,0,0,0-20.26,0Z"></path><path d="M347.64,344.7H330.92a.5.5,0,0,1-.5-.5V322.85a8.86,8.86,0,1,1,17.72,0V344.2A.5.5,0,0,1,347.64,344.7Zm-16.22-1h15.72V322.85a7.86,7.86,0,0,0-15.72,0Z"></path><path d="M347.64,357.44H330.92a.5.5,0,0,1-.5-.5V346.19a.5.5,0,0,1,.5-.5h16.72a.5.5,0,0,1,.5.5v10.75A.5.5,0,0,1,347.64,357.44Zm-16.22-1h15.72v-9.75H331.42Z"></path><path d="M263.42,321.24a.49.49,0,0,1-.49-.41,10.13,10.13,0,0,0-19.19-2.54.5.5,0,0,1-.66.25.52.52,0,0,1-.25-.67,11.14,11.14,0,0,1,21.09,2.79.51.51,0,0,1-.41.58Z"></path><path d="M276.93,321.24h-.08a.5.5,0,0,1-.41-.58,11.13,11.13,0,0,1,21.08-2.79.5.5,0,0,1-.24.67.51.51,0,0,1-.67-.25,10.13,10.13,0,0,0-19.19,2.54A.49.49,0,0,1,276.93,321.24Z"></path><path d="M209.4,321.24h-.08a.51.51,0,0,1-.41-.58A11.13,11.13,0,0,1,230,317.87a.5.5,0,0,1-.24.67.52.52,0,0,1-.67-.25,10.13,10.13,0,0,0-19.19,2.54A.49.49,0,0,1,209.4,321.24Z"></path><path d="M195.27,321.24a.5.5,0,0,1-.5-.41,10.13,10.13,0,0,0-19.19-2.54.5.5,0,1,1-.9-.42,11.13,11.13,0,0,1,21.08,2.79.51.51,0,0,1-.41.58Z"></path><path d="M391.44,360H370.18a.5.5,0,0,1-.5-.5v-37a11.13,11.13,0,0,1,22.26,0v37A.5.5,0,0,1,391.44,360Zm-20.76-1h20.26v-36.5a10.13,10.13,0,0,0-20.26,0Z"></path><path d="M389.17,344.7H372.44a.5.5,0,0,1-.5-.5V322.85a8.87,8.87,0,0,1,17.73,0V344.2A.5.5,0,0,1,389.17,344.7Zm-16.23-1h15.73V322.85a7.87,7.87,0,0,0-15.73,0Z"></path><path d="M389.17,357.44H372.44a.5.5,0,0,1-.5-.5V346.19a.5.5,0,0,1,.5-.5h16.73a.5.5,0,0,1,.5.5v10.75A.5.5,0,0,1,389.17,357.44Zm-16.23-1h15.73v-9.75H372.94Z"></path><path d="M433,360H411.71a.5.5,0,0,1-.5-.5v-37a11.13,11.13,0,0,1,22.26,0v37A.5.5,0,0,1,433,360Zm-20.76-1h20.26v-36.5a10.13,10.13,0,0,0-20.26,0Z"></path><path d="M430.7,344.7H414a.5.5,0,0,1-.5-.5V322.85a8.87,8.87,0,0,1,17.73,0V344.2A.5.5,0,0,1,430.7,344.7Zm-16.23-1H430.2V322.85a7.87,7.87,0,0,0-15.73,0Z"></path><path d="M430.7,357.44H414a.5.5,0,0,1-.5-.5V346.19a.5.5,0,0,1,.5-.5H430.7a.5.5,0,0,1,.5.5v10.75A.5.5,0,0,1,430.7,357.44Zm-16.23-1H430.2v-9.75H414.47Z"></path><path d="M67.19,360H45.93a.5.5,0,0,1-.5-.5v-37a11.13,11.13,0,0,1,22.26,0v37A.5.5,0,0,1,67.19,360Zm-20.76-1H66.69v-36.5a10.13,10.13,0,0,0-20.26,0Z"></path><path d="M64.93,344.7H48.2a.5.5,0,0,1-.5-.5V322.85a8.87,8.87,0,0,1,17.73,0V344.2A.5.5,0,0,1,64.93,344.7Zm-16.23-1H64.43V322.85a7.87,7.87,0,0,0-15.73,0Z"></path><path d="M64.93,357.44H48.2a.5.5,0,0,1-.5-.5V346.19a.5.5,0,0,1,.5-.5H64.93a.5.5,0,0,1,.5.5v10.75A.5.5,0,0,1,64.93,357.44Zm-16.23-1H64.43v-9.75H48.7Z"></path><path d="M108.72,360H87.46a.5.5,0,0,1-.5-.5v-37a11.13,11.13,0,1,1,22.26,0v37A.5.5,0,0,1,108.72,360ZM88,359h20.26v-36.5a10.13,10.13,0,1,0-20.26,0Z"></path><path d="M106.46,344.7H89.73a.5.5,0,0,1-.5-.5V322.85a8.87,8.87,0,0,1,17.73,0V344.2A.5.5,0,0,1,106.46,344.7Zm-16.23-1H106V322.85a7.87,7.87,0,0,0-15.73,0Z"></path><path d="M106.46,357.44H89.73a.5.5,0,0,1-.5-.5V346.19a.5.5,0,0,1,.5-.5h16.73a.5.5,0,0,1,.5.5v10.75A.5.5,0,0,1,106.46,357.44Zm-16.23-1H106v-9.75H90.23Z"></path><path d="M150.25,360H129a.5.5,0,0,1-.5-.5v-37a11.13,11.13,0,0,1,22.26,0v37A.5.5,0,0,1,150.25,360Zm-20.76-1h20.26v-36.5a10.13,10.13,0,0,0-20.26,0Z"></path><path d="M148,344.7H131.26a.5.5,0,0,1-.5-.5V322.85a8.86,8.86,0,1,1,17.72,0V344.2A.5.5,0,0,1,148,344.7Zm-16.22-1h15.72V322.85a7.86,7.86,0,1,0-15.72,0Z"></path><path d="M148,357.44H131.26a.5.5,0,0,1-.5-.5V346.19a.5.5,0,0,1,.5-.5H148a.5.5,0,0,1,.5.5v10.75A.5.5,0,0,1,148,357.44Zm-16.22-1h15.72v-9.75H131.76Z"></path><path d="M157.09,362.3H37.21a.5.5,0,0,1-.5-.5.5.5,0,0,1,.5-.5H157.09a.5.5,0,0,1,.5.5A.5.5,0,0,1,157.09,362.3Z"></path><path d="M434.51,362.3H314.62a.5.5,0,0,1-.5-.5.51.51,0,0,1,.5-.5H434.51a.51.51,0,0,1,.5.5A.5.5,0,0,1,434.51,362.3Z"></path><path d="M262.79,137.53l-9.42-5.62-16.17-9.63L221,131.92l-9.41,5.61-43.15,25.7H305.93Zm-29.62,0,4-2.41,4,2.41,32.36,19.28H200.8Z" style="fill:none;stroke:#000;stroke-linecap:round;stroke-linejoin:round"></path><path d="M263.62,134.81a.59.59,0,0,1-.26-.07L237.2,119.15,211,134.74a.51.51,0,0,1-.76-.43V99a.5.5,0,0,1,.5-.5h52.84a.5.5,0,0,1,.5.5v35.27a.49.49,0,0,1-.26.43A.42.42,0,0,1,263.62,134.81ZM211.28,99.54v33.89L237,118.13a.52.52,0,0,1,.51,0l25.66,15.3V99.54Z"></path><path d="M315.28,165.59H159.12a.5.5,0,0,1-.49-.37.51.51,0,0,1,.23-.56L237,118.13a.52.52,0,0,1,.51,0l78.08,46.53a.51.51,0,0,1,.23.56A.5.5,0,0,1,315.28,165.59Zm-154.35-1H313.47l-50.11-29.85h0L237.2,119.15Zm145-.86H168.47a.5.5,0,0,1-.26-.93l68.74-41a.52.52,0,0,1,.51,0l68.73,41a.5.5,0,0,1,.22.56A.49.49,0,0,1,305.93,163.73Zm-135.64-1H304.11L237.2,122.86,211.87,138h0Zm41.33-25.2h0Z"></path><path d="M273.6,157.31H200.8a.5.5,0,0,1-.26-.93L237,134.69a.52.52,0,0,1,.51,0l36.4,21.69a.5.5,0,0,1-.26.93Zm-71-1h69.17l-34.59-20.6Z"></path><path d="M271.13,99.57H203.27a.5.5,0,0,1-.5-.5V90.36a.5.5,0,0,1,.5-.5h67.86a.5.5,0,0,1,.5.5v8.71A.5.5,0,0,1,271.13,99.57Zm-67.36-1h66.86V90.86H203.77Z"></path><path d="M263.68,90.66h-53a.5.5,0,0,1-.5-.5V72.85a26.86,26.86,0,0,1,7.89-19.08,27.17,27.17,0,0,1,15.93-7.71,26.55,26.55,0,0,1,6.3,0,26.94,26.94,0,0,1,23.83,26.79V90.16A.5.5,0,0,1,263.68,90.66Zm-52.45-1h52V72.85a26,26,0,1,0-52,0Z"></path><path d="M270.94,90.86a.5.5,0,0,1-.5-.5V84.49H203.77v5.87a.5.5,0,0,1-.5.5.5.5,0,0,1-.5-.5V84a.5.5,0,0,1,.5-.5h67.67a.5.5,0,0,1,.5.5v6.37A.5.5,0,0,1,270.94,90.86Z"></path><path d="M240.29,47.05h-.06a26.13,26.13,0,0,0-6.06,0,.51.51,0,0,1-.42-.14.52.52,0,0,1-.14-.41L236.71,20a.5.5,0,0,1,.49-.44h0a.5.5,0,0,1,.5.44l3.09,26.51a.52.52,0,0,1-.14.41A.54.54,0,0,1,240.29,47.05Zm-3.09-1.18c.86,0,1.71,0,2.52.12L237.2,24.36,234.68,46C235.49,45.91,236.34,45.87,237.2,45.87Z"></path><path d="M215.44,132a.45.45,0,0,1-.25-.07.49.49,0,0,1-.25-.43V109a6.12,6.12,0,1,1,12.24,0v15.85a.51.51,0,0,1-.24.43L215.69,132A.43.43,0,0,1,215.44,132Zm5.62-28.16a5.12,5.12,0,0,0-5.12,5.12v21.66l10.24-6.1V109a5.1,5.1,0,0,0-5.12-5.12Zm5.62,21h0Z"></path><path d="M231.35,122.55a.54.54,0,0,1-.25-.06.5.5,0,0,1-.25-.44V109a6.12,6.12,0,0,1,6.12-6.12,6.13,6.13,0,0,1,6.12,6.12v12.78a.51.51,0,0,1-.26.44.47.47,0,0,1-.5,0l-5.13-3-5.6,3.33A.47.47,0,0,1,231.35,122.55ZM237,103.87a5.12,5.12,0,0,0-5.12,5.12v12.18l5.1-3a.52.52,0,0,1,.51,0l4.63,2.76V109a5.12,5.12,0,0,0-5.12-5.12Z"></path><path d="M258.49,131.74a.48.48,0,0,1-.26-.07L247,125a.5.5,0,0,1-.24-.43V109a6.12,6.12,0,0,1,6.12-6.12A6.13,6.13,0,0,1,259,109v22.25a.51.51,0,0,1-.26.44A.5.5,0,0,1,258.49,131.74Zm-10.74-7.48,10.24,6.1V109a5.12,5.12,0,0,0-10.24,0Z"></path><path d="M709.45,262.38H441.54a.5.5,0,0,1-.5-.5.5.5,0,0,1,.5-.5H709V239.29H440.88a.5.5,0,0,1-.5-.5.5.5,0,0,1,.5-.5H709.45a.5.5,0,0,1,.5.5v23.09A.5.5,0,0,1,709.45,262.38Z"></path><path d="M702.19,377.2a.5.5,0,0,1-.5-.5V263.2a.51.51,0,0,1,.5-.5.5.5,0,0,1,.5.5V376.7A.5.5,0,0,1,702.19,377.2Z"></path><path d="M30.77,238.47H3.1a.5.5,0,0,1-.5-.5.5.5,0,0,1,.5-.5H30.77a.5.5,0,0,1,.5.5A.5.5,0,0,1,30.77,238.47Z"></path><path d="M30.77,259.69H3.1a.5.5,0,0,1-.5-.5.5.5,0,0,1,.5-.5H30.77a.5.5,0,0,1,.5.5A.5.5,0,0,1,30.77,259.69Z"></path></g></g><g id="freepik--Floor--inject-31"><path d="M312.92,378.05,332.52,393c47.25,3,78.35,8.05,78.35,13.8,0,4.28-17.28,8.19-45.64,11.14l38.6,29.42h345V378.05Z" style="fill:#92C7E3"></path><path d="M57.53,406.8c0-5.95,33.29-11.17,83.3-14.1l18.84-14.65H.42v69.31H70.51l37.27-29C76.69,415.4,57.53,411.31,57.53,406.8Z" style="fill:#92C7E3"></path><path d="M742.44,378.55H6.12a.5.5,0,0,1-.5-.5.51.51,0,0,1,.5-.5H742.44a.5.5,0,0,1,.5.5A.5.5,0,0,1,742.44,378.55Z" style="fill:#263238"></path></g><g id="freepik--Trees--inject-31"><path d="M738.31,250.49c0,45.68-27,82.71-60.36,82.71s-60.36-37-60.36-82.71S644.62,47.8,678,47.8,738.31,204.81,738.31,250.49Z" style="fill:#92C7E3"></path><polygon points="711.8 274.39 693.52 281.15 697.19 270.15 688.45 283.02 679.73 286.25 679.1 250.12 710.85 207.94 693.84 224.95 696.72 213.12 688.58 230.22 678.92 239.87 677.95 183.42 674.49 265.74 644.4 233.86 660.93 256.33 645.35 254.59 664.6 261.31 674.13 274.27 672.47 313.96 661.37 306.44 672.12 322.18 667.02 439.11 682.44 439.11 679.82 292.01 711.8 274.39" style="fill:#263238"></polygon><path d="M711.16,183.6s.56,5.55-2.47,9.62-8.51,5.12-8.51,5.12-.56-5.54,2.47-9.61S711.16,183.6,711.16,183.6Z" style="fill:#fff"></path><path d="M729.35,209.16s.56,5.55-2.47,9.62-8.51,5.12-8.51,5.12-.55-5.54,2.48-9.61S729.35,209.16,729.35,209.16Z" style="fill:#fff"></path><path d="M729.34,258.93s-1.34,5.41-5.56,8.22-9.74,2-9.74,2,1.35-5.41,5.57-8.22S729.34,258.93,729.34,258.93Z" style="fill:#fff"></path><path d="M629.43,258.93s1.34,5.41,5.57,8.22,9.73,2,9.73,2-1.34-5.41-5.57-8.22S629.43,258.93,629.43,258.93Z" style="fill:#fff"></path><path d="M708.33,238.27s.56,5.54-2.47,9.62-8.51,5.12-8.51,5.12-.55-5.54,2.48-9.62S708.33,238.27,708.33,238.27Z" style="fill:#fff"></path><path d="M703.62,155.8s.56,5.54-2.48,9.61-8.5,5.13-8.5,5.13-.56-5.55,2.47-9.62S703.62,155.8,703.62,155.8Z" style="fill:#fff"></path><path d="M692.78,177s.56,5.55-2.47,9.62-8.51,5.12-8.51,5.12-.56-5.54,2.47-9.61S692.78,177,692.78,177Z" style="fill:#fff"></path><path d="M718.51,161.56s.56,5.55-2.47,9.62-8.51,5.12-8.51,5.12-.55-5.54,2.48-9.61S718.51,161.56,718.51,161.56Z" style="fill:#fff"></path><path d="M634.89,161.56s-.56,5.55,2.47,9.62,8.51,5.12,8.51,5.12.56-5.54-2.47-9.61S634.89,161.56,634.89,161.56Z" style="fill:#fff"></path><path d="M706,129.87s.56,5.55-2.47,9.62-8.5,5.13-8.5,5.13-.56-5.55,2.47-9.62S706,129.87,706,129.87Z" style="fill:#fff"></path><path d="M700.65,102.34s1.93,5.23,0,9.93-6.94,7.1-6.94,7.1-1.94-5.23,0-9.93S700.65,102.34,700.65,102.34Z" style="fill:#fff"></path><path d="M662.48,95.15s4.93,2.58,6.67,7.35-.41,9.92-.41,9.92-4.93-2.58-6.66-7.35S662.48,95.15,662.48,95.15Z" style="fill:#fff"></path><path d="M680.28,128.07s3.51,4.32,3.22,9.39-4.28,9-4.28,9S675.7,142.1,676,137,680.28,128.07,680.28,128.07Z" style="fill:#fff"></path><path d="M679.33,79.06s3.52,4.32,3.23,9.39-4.28,9-4.28,9-3.52-4.33-3.23-9.39S679.33,79.06,679.33,79.06Z" style="fill:#fff"></path><path d="M639.39,183.6s-.56,5.55,2.47,9.62,8.5,5.12,8.5,5.12.56-5.54-2.47-9.61S639.39,183.6,639.39,183.6Z" style="fill:#fff"></path><path d="M629,213.76s-.56,5.55,2.47,9.62S640,228.5,640,228.5s.55-5.54-2.48-9.61S629,213.76,629,213.76Z" style="fill:#fff"></path><path d="M656.54,224.71s-.56,5.55,2.47,9.62,8.51,5.13,8.51,5.13.56-5.55-2.48-9.62S656.54,224.71,656.54,224.71Z" style="fill:#fff"></path><path d="M664.07,182.92s-2.13,5.15-.39,9.92,6.68,7.35,6.68,7.35,2.12-5.16.38-9.92S664.07,182.92,664.07,182.92Z" style="fill:#fff"></path><path d="M644.58,294.13s5.57.1,9.38-3.25,4.41-8.9,4.41-8.9-5.57-.1-9.38,3.25S644.58,294.13,644.58,294.13Z" style="fill:#fff"></path><path d="M698.05,288s1.51,5.37,5.83,8,9.79,1.65,9.79,1.65-1.52-5.36-5.83-8S698.05,288,698.05,288Z" style="fill:#fff"></path><path d="M650.79,155.8s-.56,5.54,2.48,9.61,8.5,5.13,8.5,5.13.56-5.55-2.47-9.62S650.79,155.8,650.79,155.8Z" style="fill:#fff"></path><path d="M650.7,131.29s-.56,5.54,2.47,9.61,8.5,5.13,8.5,5.13.56-5.54-2.47-9.62S650.7,131.29,650.7,131.29Z" style="fill:#fff"></path><path d="M496.15,280.71c0,23.58-13.94,42.69-31.15,42.69s-31.15-19.11-31.15-42.69S447.8,176.11,465,176.11,496.15,257.14,496.15,280.71Z" style="fill:#92C7E3"></path><polygon points="482.47 293.05 473.04 296.53 474.93 290.86 470.42 297.5 465.92 299.17 465.6 280.52 481.98 258.75 473.2 267.53 474.69 261.43 470.49 270.25 465.5 275.23 465 246.1 463.22 288.58 447.69 272.13 456.22 283.72 448.18 282.83 458.11 286.3 463.03 292.99 462.17 313.47 456.45 309.58 461.99 317.71 459.36 378.05 467.32 378.05 465.97 302.14 482.47 293.05" style="fill:#263238"></polygon><path d="M482.14,246.19a6.77,6.77,0,0,1-5.66,7.61,6.76,6.76,0,0,1,5.66-7.61Z" style="fill:#fff"></path><path d="M491.53,259.38a6.77,6.77,0,0,1-5.67,7.61,6.78,6.78,0,0,1,5.67-7.61Z" style="fill:#fff"></path><path d="M491.52,285.07a6.76,6.76,0,0,1-7.89,5.25,6.76,6.76,0,0,1,7.89-5.25Z" style="fill:#fff"></path><path d="M440,285.07a6.77,6.77,0,0,0,7.9,5.25,6.76,6.76,0,0,0-7.9-5.25Z" style="fill:#fff"></path><path d="M480.68,274.41A6.77,6.77,0,0,1,475,282a6.75,6.75,0,0,1,5.66-7.6Z" style="fill:#fff"></path><path d="M478.25,231.84a6.77,6.77,0,0,1-5.67,7.61,6.78,6.78,0,0,1,5.67-7.61Z" style="fill:#fff"></path><path d="M472.65,242.79A6.76,6.76,0,0,1,467,250.4a6.77,6.77,0,0,1,5.66-7.61Z" style="fill:#fff"></path><path d="M485.93,234.82a6.76,6.76,0,0,1-5.66,7.61,6.77,6.77,0,0,1,5.66-7.61Z" style="fill:#fff"></path><path d="M442.78,234.82a6.78,6.78,0,0,0,5.67,7.61,8,8,0,0,0-1.28-5A7.92,7.92,0,0,0,442.78,234.82Z" style="fill:#fff"></path><path d="M479.46,218.47a6.75,6.75,0,0,1-5.66,7.6,6.77,6.77,0,0,1,5.66-7.6Z" style="fill:#fff"></path><path d="M476.72,204.26a6.76,6.76,0,0,1-3.58,8.78,6.76,6.76,0,0,1,3.58-8.78Z" style="fill:#fff"></path><path d="M457,200.54a6.77,6.77,0,0,1,3.23,8.92,6.77,6.77,0,0,1-3.23-8.92Z" style="fill:#fff"></path><path d="M466.2,217.54a6.76,6.76,0,0,1-.54,9.47,6.76,6.76,0,0,1,.54-9.47Z" style="fill:#fff"></path><path d="M465.72,192.24a6.77,6.77,0,0,1-.55,9.47,6.77,6.77,0,0,1,.55-9.47Z" style="fill:#fff"></path><path d="M445.1,246.19a6.77,6.77,0,0,0,5.67,7.61,6.78,6.78,0,0,0-5.67-7.61Z" style="fill:#fff"></path><path d="M439.75,261.76a6.78,6.78,0,0,0,5.67,7.61,6.77,6.77,0,0,0-5.67-7.61Z" style="fill:#fff"></path><path d="M454,267.41a6.78,6.78,0,0,0,5.67,7.61,6.77,6.77,0,0,0-5.67-7.61Z" style="fill:#fff"></path><path d="M457.84,245.84a6.76,6.76,0,0,0,3.25,8.91,6.78,6.78,0,0,0-3.25-8.91Z" style="fill:#fff"></path><path d="M447.78,303.23A6.77,6.77,0,0,0,454.9,297a6.77,6.77,0,0,0-7.12,6.27Z" style="fill:#fff"></path><path d="M475.37,300.09a6.77,6.77,0,0,0,8.06,5,6.75,6.75,0,0,0-8.06-5Z" style="fill:#fff"></path><path d="M451,231.84a6.75,6.75,0,0,0,5.66,7.61,6.76,6.76,0,0,0-5.66-7.61Z" style="fill:#fff"></path><path d="M450.94,219.2a6.75,6.75,0,0,0,5.66,7.6,6.75,6.75,0,0,0-5.66-7.6Z" style="fill:#fff"></path><path d="M599.85,266.58c0,31.67-18.74,57.34-41.84,57.34s-41.84-25.67-41.84-57.34S534.9,126.09,558,126.09,599.85,234.92,599.85,266.58Z" style="fill:#92C7E3"></path><polygon points="581.47 283.15 568.8 287.83 571.34 280.21 565.28 289.13 559.24 291.37 558.81 266.33 580.81 237.09 569.02 248.88 571.01 240.68 565.37 252.53 558.68 259.22 558.01 220.1 555.61 277.16 534.75 255.06 546.21 270.63 535.41 269.43 548.75 274.08 555.36 283.07 554.21 310.58 546.51 305.36 553.97 316.27 550.43 397.32 561.12 397.32 559.31 295.37 581.47 283.15" style="fill:#263238"></polygon><path d="M581,220.22a9.08,9.08,0,0,1-7.6,10.22,9.08,9.08,0,0,1,7.6-10.22Z" style="fill:#fff"></path><path d="M593.63,237.94a9.09,9.09,0,0,1-7.6,10.22,9.08,9.08,0,0,1,7.6-10.22Z" style="fill:#fff"></path><path d="M593.63,272.43a9.09,9.09,0,0,1-10.6,7.06,9.07,9.07,0,0,1,10.6-7.06Z" style="fill:#fff"></path><path d="M524.38,272.43a9.09,9.09,0,0,0,10.6,7.06,9.09,9.09,0,0,0-10.6-7.06Z" style="fill:#fff"></path><path d="M579.07,258.11a9.1,9.1,0,0,1-7.61,10.22,9.09,9.09,0,0,1,7.61-10.22Z" style="fill:#fff"></path><path d="M575.8,201a9.11,9.11,0,0,1-7.61,10.22A9.08,9.08,0,0,1,575.8,201Z" style="fill:#fff"></path><path d="M568.29,215.65a9.11,9.11,0,0,1-7.61,10.22,9.08,9.08,0,0,1,7.61-10.22Z" style="fill:#fff"></path><path d="M586.12,204.94a9.08,9.08,0,0,1-7.61,10.22,9.11,9.11,0,0,1,7.61-10.22Z" style="fill:#fff"></path><path d="M528.16,204.94a9.1,9.1,0,0,0,7.61,10.22,9.09,9.09,0,0,0-7.61-10.22Z" style="fill:#fff"></path><path d="M577.43,183a9.08,9.08,0,0,1-7.61,10.22A9.1,9.1,0,0,1,577.43,183Z" style="fill:#fff"></path><path d="M573.74,163.9a9.07,9.07,0,0,1-4.8,11.8,9.1,9.1,0,0,1,4.8-11.8Z" style="fill:#fff"></path><path d="M547.28,158.91a9.1,9.1,0,0,1,4.35,12,9.08,9.08,0,0,1-4.35-12Z" style="fill:#fff"></path><path d="M559.62,181.73a9.08,9.08,0,0,1-.73,12.72,9.08,9.08,0,0,1,.73-12.72Z" style="fill:#fff"></path><path d="M559,147.76a9.11,9.11,0,0,1-.73,12.72,9.08,9.08,0,0,1,.73-12.72Z" style="fill:#fff"></path><path d="M531.28,220.22a9.08,9.08,0,0,0,7.61,10.22,9.1,9.1,0,0,0-7.61-10.22Z" style="fill:#fff"></path><path d="M524.09,241.13a9.09,9.09,0,0,0,7.61,10.21,9.07,9.07,0,0,0-7.61-10.21Z" style="fill:#fff"></path><path d="M543.17,248.72a9.07,9.07,0,0,0,7.61,10.21,9.09,9.09,0,0,0-7.61-10.21Z" style="fill:#fff"></path><path d="M548.38,219.75a9.1,9.1,0,0,0,4.37,12,9.1,9.1,0,0,0-4.37-12Z" style="fill:#fff"></path><path d="M534.87,296.83a9.08,9.08,0,0,0,9.57-8.42,9.1,9.1,0,0,0-9.57,8.42Z" style="fill:#fff"></path><path d="M571.94,292.61a9.08,9.08,0,0,0,10.82,6.71,9.07,9.07,0,0,0-10.82-6.71Z" style="fill:#fff"></path><path d="M539.18,201a9.11,9.11,0,0,0,7.61,10.22A9.08,9.08,0,0,0,539.18,201Z" style="fill:#fff"></path><path d="M539.12,184a9.08,9.08,0,0,0,7.61,10.22A9.1,9.1,0,0,0,539.12,184Z" style="fill:#fff"></path><path d="M101.38,280.71c0,23.58-13.94,42.69-31.15,42.69s-31.15-19.11-31.15-42.69,14-104.6,31.15-104.6S101.38,257.14,101.38,280.71Z" style="fill:#92C7E3"></path><polygon points="87.7 293.05 78.27 296.53 80.16 290.86 75.65 297.5 71.15 299.17 70.83 280.52 87.21 258.75 78.43 267.53 79.92 261.43 75.71 270.25 70.73 275.23 70.23 246.1 68.45 288.58 52.92 272.13 61.45 283.72 53.41 282.83 63.34 286.3 68.26 292.99 67.4 313.47 61.67 309.58 67.22 317.71 64.59 378.05 72.55 378.05 71.2 302.14 87.7 293.05" style="fill:#263238"></polygon><path d="M87.37,246.19a6.77,6.77,0,0,1-5.67,7.61,6.78,6.78,0,0,1,5.67-7.61Z" style="fill:#fff"></path><path d="M96.76,259.38A6.77,6.77,0,0,1,91.09,267a6.78,6.78,0,0,1,5.67-7.61Z" style="fill:#fff"></path><path d="M96.75,285.07a6.76,6.76,0,0,1-7.89,5.25,6.76,6.76,0,0,1,7.89-5.25Z" style="fill:#fff"></path><path d="M45.19,285.07a7.93,7.93,0,0,0,2.87,4.24,8,8,0,0,0,5,1,7.93,7.93,0,0,0-2.87-4.24A8,8,0,0,0,45.19,285.07Z" style="fill:#fff"></path><path d="M85.91,274.41a6.76,6.76,0,0,1-5.67,7.6,6.76,6.76,0,0,1,5.67-7.6Z" style="fill:#fff"></path><path d="M83.48,231.84a6.77,6.77,0,0,1-5.67,7.61,6.78,6.78,0,0,1,5.67-7.61Z" style="fill:#fff"></path><path d="M77.88,242.79a6.76,6.76,0,0,1-5.66,7.61,6.75,6.75,0,0,1,5.66-7.61Z" style="fill:#fff"></path><path d="M91.16,234.82a6.76,6.76,0,0,1-5.66,7.61,6.75,6.75,0,0,1,5.66-7.61Z" style="fill:#fff"></path><path d="M48,234.82a6.78,6.78,0,0,0,5.66,7.61,8,8,0,0,0-1.27-5A8,8,0,0,0,48,234.82Z" style="fill:#fff"></path><path d="M84.69,218.47a6.75,6.75,0,0,1-5.66,7.6,6.75,6.75,0,0,1,5.66-7.6Z" style="fill:#fff"></path><path d="M81.94,204.26A6.74,6.74,0,0,1,78.37,213a6.76,6.76,0,0,1,3.57-8.78Z" style="fill:#fff"></path><path d="M62.25,200.54a6.77,6.77,0,0,1,3.23,8.92,6.77,6.77,0,0,1-3.23-8.92Z" style="fill:#fff"></path><path d="M71.43,217.54a6.76,6.76,0,0,1-.54,9.47,6.76,6.76,0,0,1,.54-9.47Z" style="fill:#fff"></path><path d="M71,192.24a6.77,6.77,0,0,1-.55,9.47,6.77,6.77,0,0,1,.55-9.47Z" style="fill:#fff"></path><path d="M50.33,246.19a8,8,0,0,0,1.28,5A7.91,7.91,0,0,0,56,253.8a8,8,0,0,0-1.27-5A8,8,0,0,0,50.33,246.19Z" style="fill:#fff"></path><path d="M45,261.76a6.78,6.78,0,0,0,5.66,7.61,8,8,0,0,0-1.27-5A8,8,0,0,0,45,261.76Z" style="fill:#fff"></path><path d="M59.18,267.41A6.78,6.78,0,0,0,64.85,275a8,8,0,0,0-1.28-5A7.92,7.92,0,0,0,59.18,267.41Z" style="fill:#fff"></path><path d="M63.07,245.84a6.77,6.77,0,0,0,3.24,8.91,6.77,6.77,0,0,0-3.24-8.91Z" style="fill:#fff"></path><path d="M53,303.23a7.9,7.9,0,0,0,4.84-1.68A8,8,0,0,0,60.13,297a8,8,0,0,0-4.85,1.68A8,8,0,0,0,53,303.23Z" style="fill:#fff"></path><path d="M80.6,300.09a6.77,6.77,0,0,0,8.06,5,8,8,0,0,0-3-4.15A8,8,0,0,0,80.6,300.09Z" style="fill:#fff"></path><path d="M56.22,231.84a6.75,6.75,0,0,0,5.66,7.61,6.78,6.78,0,0,0-5.66-7.61Z" style="fill:#fff"></path><path d="M56.17,219.2a6.75,6.75,0,0,0,5.66,7.6,8,8,0,0,0-1.27-5A8,8,0,0,0,56.17,219.2Z" style="fill:#fff"></path></g></svg>
