<svg xmlns="http://www.w3.org/2000/svg" viewBox="0 0 750 500"><g id="freepik--background-complete--inject-37"><path d="M281.48,320.4a10.5,10.5,0,0,1,4.45,4.19,10.62,10.62,0,0,1,1.89,5.81,26.19,26.19,0,0,0-2.35-5.52A25.61,25.61,0,0,0,281.48,320.4Z" style="fill:#e0e0e0"></path><path d="M291.48,314.13c.17,0-.58,3.59-.67,8s.45,8,.29,8a8.44,8.44,0,0,1-.51-2.32,36.32,36.32,0,0,1,.27-11.46A8.61,8.61,0,0,1,291.48,314.13Z" style="fill:#e0e0e0"></path><path d="M301.65,317.83a55,55,0,0,0-3.39,6,58.3,58.3,0,0,0-2.13,6.57,6,6,0,0,1,.17-2.05,21.73,21.73,0,0,1,4-9A6.1,6.1,0,0,1,301.65,317.83Z" style="fill:#e0e0e0"></path><path d="M132.63,426.46a12.4,12.4,0,0,1,6.35,10,25.94,25.94,0,0,0-2.36-5.52A25.45,25.45,0,0,0,132.63,426.46Z" style="fill:#e0e0e0"></path><path d="M142.64,420.2c.16,0-.58,3.58-.68,8s.46,8,.29,8a8.46,8.46,0,0,1-.51-2.33A35.86,35.86,0,0,1,142,422.5,8.3,8.3,0,0,1,142.64,420.2Z" style="fill:#e0e0e0"></path><path d="M152.8,423.9a59.72,59.72,0,0,0-3.39,6,58.79,58.79,0,0,0-2.13,6.58,6.36,6.36,0,0,1,.17-2.05,22.26,22.26,0,0,1,1.46-4.75,22,22,0,0,1,2.5-4.29A5.92,5.92,0,0,1,152.8,423.9Z" style="fill:#e0e0e0"></path><path d="M438.26,373.57a10.5,10.5,0,0,1,4.45,4.19,10.6,10.6,0,0,1,1.9,5.82,25.89,25.89,0,0,0-2.36-5.53A25.61,25.61,0,0,0,438.26,373.57Z" style="fill:#e0e0e0"></path><path d="M448.26,367.3c.17,0-.57,3.59-.67,8s.46,8,.29,8.05a8.31,8.31,0,0,1-.51-2.32,35.93,35.93,0,0,1,.28-11.46A9.41,9.41,0,0,1,448.26,367.3Z" style="fill:#e0e0e0"></path><path d="M458.43,371a60.63,60.63,0,0,0-3.39,6,58.06,58.06,0,0,0-2.13,6.58,6,6,0,0,1,.17-2.05,21.38,21.38,0,0,1,1.46-4.75,22,22,0,0,1,2.5-4.29A6.35,6.35,0,0,1,458.43,371Z" style="fill:#e0e0e0"></path><path d="M684.42,343.8a12.4,12.4,0,0,1,6.35,10,25.71,25.71,0,0,0-2.36-5.52A25.45,25.45,0,0,0,684.42,343.8Z" style="fill:#e0e0e0"></path><path d="M694.43,337.54c.16,0-.58,3.58-.68,8s.46,8,.29,8.05a8.46,8.46,0,0,1-.51-2.33,35.86,35.86,0,0,1,.28-11.45A8.3,8.3,0,0,1,694.43,337.54Z" style="fill:#e0e0e0"></path><path d="M704.59,341.24a58.37,58.37,0,0,0-3.39,6,58.79,58.79,0,0,0-2.13,6.58,6.36,6.36,0,0,1,.17-2A22.26,22.26,0,0,1,700.7,347a22,22,0,0,1,2.5-4.29A5.92,5.92,0,0,1,704.59,341.24Z" style="fill:#e0e0e0"></path><path d="M609.26,423.45a10.5,10.5,0,0,1,4.45,4.19,10.6,10.6,0,0,1,1.9,5.82,25.89,25.89,0,0,0-2.36-5.53A25.61,25.61,0,0,0,609.26,423.45Z" style="fill:#e0e0e0"></path><path d="M619.26,417.18c.17,0-.57,3.59-.67,8s.45,8,.29,8.05a8.31,8.31,0,0,1-.51-2.32,35.93,35.93,0,0,1,.28-11.46A9.41,9.41,0,0,1,619.26,417.18Z" style="fill:#e0e0e0"></path><path d="M629.43,420.88a60.63,60.63,0,0,0-3.39,6,58.06,58.06,0,0,0-2.13,6.58,6,6,0,0,1,.17-2.05,21.7,21.7,0,0,1,4-9A6.35,6.35,0,0,1,629.43,420.88Z" style="fill:#e0e0e0"></path><path d="M107.85,263.21a12.39,12.39,0,0,1,6.34,10,26.19,26.19,0,0,0-2.35-5.52A25.61,25.61,0,0,0,107.85,263.21Z" style="fill:#e0e0e0"></path><path d="M117.85,256.94c.16,0-.58,3.59-.67,8s.45,8,.28,8a9.23,9.23,0,0,1-.5-2.32,35.55,35.55,0,0,1,.27-11.46A8.61,8.61,0,0,1,117.85,256.94Z" style="fill:#e0e0e0"></path><path d="M128,260.64a59.25,59.25,0,0,0-3.39,6,58.3,58.3,0,0,0-2.13,6.57,6.23,6.23,0,0,1,.18-2.05,21.89,21.89,0,0,1,4-9A6.33,6.33,0,0,1,128,260.64Z" style="fill:#e0e0e0"></path><path d="M48.5,395.07a10.57,10.57,0,0,1,4.45,4.2,10.58,10.58,0,0,1,1.9,5.81,25.71,25.71,0,0,0-2.36-5.52A25.45,25.45,0,0,0,48.5,395.07Z" style="fill:#e0e0e0"></path><path d="M58.51,388.81c.16,0-.58,3.58-.68,8s.46,8,.29,8.06a8.46,8.46,0,0,1-.51-2.33,35.86,35.86,0,0,1,.28-11.45A8.3,8.3,0,0,1,58.51,388.81Z" style="fill:#e0e0e0"></path><path d="M68.67,392.5a60.63,60.63,0,0,0-3.39,6,58.06,58.06,0,0,0-2.13,6.58,6.36,6.36,0,0,1,.17-2.05,21.7,21.7,0,0,1,1.46-4.75,22,22,0,0,1,2.5-4.29A6.35,6.35,0,0,1,68.67,392.5Z" style="fill:#e0e0e0"></path><path d="M616.16,261.93a12.36,12.36,0,0,1,6.34,10,18.61,18.61,0,0,0-6.34-10Z" style="fill:#e0e0e0"></path><path d="M626.16,255.67c.17,0-.58,3.58-.67,8s.45,8,.29,8.05a8.46,8.46,0,0,1-.51-2.33,35.84,35.84,0,0,1-.32-5.73,35,35,0,0,1,.59-5.72A9.1,9.1,0,0,1,626.16,255.67Z" style="fill:#e0e0e0"></path><path d="M636.33,259.37a55.43,55.43,0,0,0-3.39,6,58.79,58.79,0,0,0-2.13,6.58,6,6,0,0,1,.17-2.05,21.85,21.85,0,0,1,4-9A6.15,6.15,0,0,1,636.33,259.37Z" style="fill:#e0e0e0"></path><rect x="665.69" y="197.15" width="6.9" height="23.71" transform="translate(1338.28 418.01) rotate(180)" style="fill:#f5f5f5"></rect><path d="M695.3,197.07s-.34-.22.41-1.2a1,1,0,0,0-.41-1.51c-3.26,1.88-7.81,0-7.81,0s5.37-1.65,6-3.24c.51-1.18-.38-1.31-.87-1.3.55,0,1.74-.25,2.1-.88.47-.83-1.39-1.81-1.39-1.81a1.46,1.46,0,0,0,0-1.27c-.31-.83-7.31-2-7.31-2a2.77,2.77,0,0,0,2.79-1.8s3.46.07,4.28-1.28-.55-1.74-2.85-2.86-7.41-5.35-7.41-5.35,3.19-.3,4.08-1.05.06-.91.06-.91c3.81.38,2.52-1.65,2.52-1.65a16.93,16.93,0,0,1-7.81-5,9.35,9.35,0,0,0,3.6-1.65c1.22-1.13-1-1.43-1-1.43s4.48-.6,1.9-2.26c-2-1.26-5.1-2.95-6.08-3.46a9.44,9.44,0,0,0,3.5-.08c2.85-1.28,0-3.16,0-3.16-3.33-1.88-8.22-6.62-8.22-6.62s2.45,1.27,3.67.9-1.36-1.88-1.36-1.88,1.29.37,1.83,0-1.42-2.11-1.42-2.11c-2.93-1.9-6.54-6.9-8-9-1.51,2.14-5.12,7.14-8.05,9,0,0-2,1.73-1.42,2.11s1.83,0,1.83,0-2.58,1.5-1.36,1.88,3.67-.9,3.67-.9-4.89,4.74-8.22,6.62c0,0-2.85,1.88,0,3.16a9.44,9.44,0,0,0,3.5.08c-1,.51-4.12,2.2-6.08,3.46-2.58,1.66,1.9,2.26,1.9,2.26s-2.24.3-1,1.43a9.35,9.35,0,0,0,3.6,1.65,16.93,16.93,0,0,1-7.81,5s-1.29,2,2.52,1.65c0,0-.82.15.06.91s4.08,1.05,4.08,1.05-5.09,4.22-7.4,5.35-3.67,1.5-2.86,2.86,4.28,1.28,4.28,1.28a2.77,2.77,0,0,0,2.79,1.8s-7,1.21-7.3,2a1.42,1.42,0,0,0,0,1.27s-1.87,1-1.4,1.81c.37.63,1.55.83,2.1.88-.49,0-1.38.12-.87,1.3.68,1.59,6,3.24,6,3.24s-4.55,1.88-7.81,0a1,1,0,0,0-.41,1.51c.75,1,.41,1.2.41,1.2s-1.7-1.28-1,.68,4.69,3.16,4.69,3.16-2.25.38-1.57,1.58,3.54,2.64,6.66,2.94a25.47,25.47,0,0,0,7.34-.83s-2.86,1.5-.89,2.33,4.21-1.05,4.21-1.05-.4,1.93,1.23,1.26a11,11,0,0,0,3-1.94s.51,2.84,1.53,2.16c1,.68,1.53-2.16,1.53-2.16a11.1,11.1,0,0,0,3,1.94c1.63.67,1.22-1.26,1.22-1.26s2.24,1.88,4.21,1.05-.88-2.33-.88-2.33a25.38,25.38,0,0,0,7.33.83c3.13-.3,6-1.73,6.66-2.94s-1.56-1.58-1.56-1.58,3.93-1.2,4.68-3.16S695.3,197.07,695.3,197.07Z" style="fill:#f5f5f5"></path><path d="M680,152.06l-.11-.05Z" style="fill:#f5f5f5"></path><rect x="70.55" y="197.15" width="6.9" height="23.71" transform="translate(148 418.01) rotate(180)" style="fill:#f5f5f5"></rect><path d="M100.16,197.07s-.34-.22.41-1.2a1,1,0,0,0-.41-1.51c-3.26,1.88-7.81,0-7.81,0s5.36-1.65,6-3.24c.51-1.18-.38-1.31-.87-1.3.55,0,1.73-.25,2.1-.88.47-.83-1.4-1.81-1.4-1.81a1.42,1.42,0,0,0,0-1.27c-.3-.83-7.3-2-7.3-2a2.77,2.77,0,0,0,2.79-1.8s3.46.07,4.28-1.28-.55-1.74-2.86-2.86-7.4-5.35-7.4-5.35,3.19-.3,4.07-1.05.07-.91.07-.91c3.81.38,2.52-1.65,2.52-1.65a16.93,16.93,0,0,1-7.81-5,9.35,9.35,0,0,0,3.6-1.65c1.22-1.13-1-1.43-1-1.43s4.48-.6,1.9-2.26c-2-1.26-5.1-2.95-6.08-3.46a9.44,9.44,0,0,0,3.5-.08c2.85-1.28,0-3.16,0-3.16-3.33-1.88-8.22-6.62-8.22-6.62s2.44,1.27,3.67.9-1.36-1.88-1.36-1.88,1.29.37,1.83,0S83,142.12,83,142.12c-2.93-1.9-6.54-6.9-8-9-1.51,2.14-5.12,7.14-8.05,9,0,0-2,1.73-1.42,2.11s1.83,0,1.83,0-2.58,1.5-1.36,1.88,3.67-.9,3.67-.9-4.89,4.74-8.22,6.62c0,0-2.85,1.88,0,3.16a9.44,9.44,0,0,0,3.5.08c-1,.51-4.12,2.2-6.08,3.46-2.58,1.66,1.9,2.26,1.9,2.26s-2.24.3-1,1.43a9.35,9.35,0,0,0,3.6,1.65,16.93,16.93,0,0,1-7.81,5s-1.29,2,2.51,1.65c0,0-.81.15.07.91s4.08,1.05,4.08,1.05-5.1,4.22-7.41,5.35-3.66,1.5-2.85,2.86S56.15,182,56.15,182a2.77,2.77,0,0,0,2.79,1.8s-7,1.21-7.31,2a1.46,1.46,0,0,0,0,1.27s-1.86,1-1.39,1.81c.36.63,1.55.83,2.1.88-.49,0-1.38.12-.88,1.3.68,1.59,6,3.24,6,3.24s-4.55,1.88-7.81,0a1,1,0,0,0-.41,1.51c.75,1,.41,1.2.41,1.2s-1.7-1.28-1,.68,4.68,3.16,4.68,3.16-2.24.38-1.56,1.58,3.53,2.64,6.66,2.94a25.38,25.38,0,0,0,7.33-.83S63,206.1,65,206.93s4.21-1.05,4.21-1.05-.41,1.93,1.22,1.26a11.1,11.1,0,0,0,3-1.94s.51,2.84,1.53,2.16c1,.68,1.53-2.16,1.53-2.16a11,11,0,0,0,3,1.94c1.63.67,1.23-1.26,1.23-1.26s2.24,1.88,4.21,1.05S84,204.6,84,204.6a25.47,25.47,0,0,0,7.34.83c3.12-.3,6-1.73,6.66-2.94s-1.57-1.58-1.57-1.58,3.94-1.2,4.69-3.16S100.16,197.07,100.16,197.07Z" style="fill:#f5f5f5"></path><path d="M84.85,152.06l-.1-.05Z" style="fill:#f5f5f5"></path><rect x="699.42" y="191.94" width="8.41" height="28.92" transform="translate(1407.25 412.8) rotate(180)" style="fill:#ebebeb"></rect><path d="M735.53,191.84s-.41-.27.5-1.46a1.16,1.16,0,0,0-.5-1.84c-4,2.29-9.53,0-9.53,0s6.55-2,7.38-3.95c.61-1.44-.48-1.6-1.07-1.59.67-.07,2.12-.3,2.56-1.07.58-1-1.7-2.21-1.7-2.21a1.79,1.79,0,0,0,0-1.56c-.37-1-8.91-2.48-8.91-2.48a3.38,3.38,0,0,0,3.4-2.2s4.22.09,5.22-1.56-.66-2.11-3.48-3.49-9-6.52-9-6.52,3.89-.37,5-1.28.08-1.11.08-1.11c4.64.46,3.07-2,3.07-2a20.72,20.72,0,0,1-9.53-6.15,11.37,11.37,0,0,0,4.39-2c1.49-1.37-1.24-1.74-1.24-1.74s5.47-.74,2.32-2.76c-2.39-1.53-6.22-3.6-7.41-4.22,1.3.48,4.26-.09,4.26-.09,3.48-1.56,0-3.86,0-3.86-4.06-2.29-10-8.08-10-8.08s3,1.56,4.47,1.1-1.66-2.29-1.66-2.29,1.58.46,2.24,0-1.74-2.57-1.74-2.57c-3.57-2.32-8-8.41-9.81-11-1.85,2.62-6.25,8.71-9.82,11,0,0-2.4,2.11-1.74,2.57s2.24,0,2.24,0-3.15,1.83-1.66,2.29,4.47-1.1,4.47-1.1-6,5.79-10,8.08c0,0-3.48,2.3,0,3.86,0,0,3,.57,4.26.09-1.19.62-5,2.69-7.41,4.22-3.14,2,2.32,2.76,2.32,2.76s-2.73.37-1.24,1.74a11.37,11.37,0,0,0,4.39,2A20.65,20.65,0,0,1,681,157.5s-1.57,2.48,3.07,2c0,0-1,.19.08,1.11s5,1.28,5,1.28-6.21,5.14-9,6.52-4.47,1.84-3.48,3.49,5.22,1.56,5.22,1.56a3.38,3.38,0,0,0,3.4,2.2s-8.53,1.47-8.91,2.48a1.79,1.79,0,0,0,0,1.56s-2.27,1.2-1.69,2.21c.44.77,1.88,1,2.55,1.07-.59,0-1.68.15-1.06,1.59.82,1.93,7.37,3.95,7.37,3.95s-5.55,2.29-9.53,0a1.15,1.15,0,0,0-.49,1.84c.91,1.19.49,1.46.49,1.46s-2.07-1.56-1.16.83,5.72,3.86,5.72,3.86-2.73.46-1.91,1.92,4.31,3.22,8.12,3.59a31.28,31.28,0,0,0,9-1s-3.48,1.83-1.08,2.84,5.14-1.28,5.14-1.28-.5,2.35,1.49,1.54a13.5,13.5,0,0,0,3.64-2.37s.62,3.46,1.87,2.63c1.24.83,1.86-2.63,1.86-2.63a13.7,13.7,0,0,0,3.64,2.37c2,.81,1.49-1.54,1.49-1.54s2.74,2.29,5.14,1.28-1.08-2.84-1.08-2.84a31.28,31.28,0,0,0,9,1c3.81-.37,7.29-2.12,8.12-3.59s-1.91-1.92-1.91-1.92,4.81-1.47,5.72-3.86S735.53,191.84,735.53,191.84Z" style="fill:#ebebeb"></path><path d="M716.86,136.94l-.13-.06A.31.31,0,0,1,716.86,136.94Z" style="fill:#ebebeb"></path><rect x="39.67" y="191.94" width="8.41" height="28.92" transform="translate(87.75 412.8) rotate(180)" style="fill:#ebebeb"></rect><path d="M75.78,191.84s-.42-.27.5-1.46a1.16,1.16,0,0,0-.5-1.84c-4,2.29-9.53,0-9.53,0s6.55-2,7.37-3.95c.62-1.44-.47-1.6-1.06-1.59.67-.07,2.12-.3,2.56-1.07.58-1-1.7-2.21-1.7-2.21a1.79,1.79,0,0,0,0-1.56c-.37-1-8.91-2.48-8.91-2.48a3.38,3.38,0,0,0,3.4-2.2s4.22.09,5.22-1.56-.66-2.11-3.48-3.49-9-6.52-9-6.52,3.89-.37,5-1.28.08-1.11.08-1.11c4.64.46,3.07-2,3.07-2a20.65,20.65,0,0,1-9.53-6.15,11.37,11.37,0,0,0,4.39-2c1.49-1.37-1.24-1.74-1.24-1.74s5.47-.74,2.32-2.76c-2.39-1.53-6.22-3.6-7.41-4.22,1.3.48,4.26-.09,4.26-.09,3.48-1.56,0-3.86,0-3.86-4.06-2.29-10-8.08-10-8.08s3,1.56,4.47,1.1-1.66-2.29-1.66-2.29,1.58.46,2.24,0-1.74-2.57-1.74-2.57c-3.57-2.32-8-8.41-9.81-11-1.85,2.62-6.25,8.71-9.82,11,0,0-2.4,2.11-1.74,2.57s2.24,0,2.24,0-3.15,1.83-1.66,2.29,4.47-1.1,4.47-1.1-6,5.79-10,8.08c0,0-3.48,2.3,0,3.86,0,0,3,.57,4.26.09-1.19.62-5,2.69-7.41,4.22-3.15,2,2.32,2.76,2.32,2.76s-2.73.37-1.24,1.74a11.37,11.37,0,0,0,4.39,2,20.65,20.65,0,0,1-9.53,6.15s-1.57,2.48,3.07,2c0,0-1,.19.08,1.11s5,1.28,5,1.28-6.21,5.14-9,6.52-4.47,1.84-3.48,3.49,5.22,1.56,5.22,1.56a3.38,3.38,0,0,0,3.4,2.2s-8.54,1.47-8.91,2.48a1.79,1.79,0,0,0,0,1.56s-2.28,1.2-1.7,2.21c.45.77,1.89,1,2.56,1.07-.59,0-1.68.15-1.06,1.59.82,1.93,7.37,3.95,7.37,3.95s-5.55,2.29-9.53,0a1.16,1.16,0,0,0-.5,1.84c.92,1.19.5,1.46.5,1.46s-2.07-1.56-1.16.83,5.72,3.86,5.72,3.86-2.74.46-1.91,1.92S21.19,201.67,25,202a31.28,31.28,0,0,0,9-1s-3.48,1.83-1.08,2.84S38,202.59,38,202.59s-.5,2.35,1.49,1.54a13.5,13.5,0,0,0,3.64-2.37s.62,3.46,1.87,2.63c1.24.83,1.86-2.63,1.86-2.63a13.5,13.5,0,0,0,3.64,2.37c2,.81,1.49-1.54,1.49-1.54s2.74,2.29,5.14,1.28S56.06,201,56.06,201a31.28,31.28,0,0,0,9,1c3.81-.37,7.29-2.12,8.12-3.59s-1.91-1.92-1.91-1.92,4.81-1.47,5.72-3.86S75.78,191.84,75.78,191.84Z" style="fill:#ebebeb"></path><path d="M57.11,136.94l-.13-.06A.31.31,0,0,1,57.11,136.94Z" style="fill:#ebebeb"></path><path d="M244.49,68.49A26.79,26.79,0,0,0,241.34,62a9,9,0,0,0-5.93-3.86,5.52,5.52,0,0,0-5.86,3.3c-.35-5.17-1.08-10.48-3.67-15s-7.42-8-12.6-7.7c-4.88.3-9.05,3.92-11.38,8.22S198.79,56.19,198,61c-1.85-2.27-5.75-1.56-7.68.64s-2.42,5.28-2.83,8.18h58.22Z" style="fill:#ebebeb"></path><path d="M557.93,71.67a26.79,26.79,0,0,0-3.15-6.53,9,9,0,0,0-5.93-3.86,5.52,5.52,0,0,0-5.86,3.3c-.34-5.17-1.08-10.48-3.67-15s-7.42-8-12.59-7.7c-4.88.3-9.06,3.92-11.38,8.22s-3.12,9.24-3.88,14.07c-1.85-2.27-5.76-1.56-7.69.64S501.37,70.12,501,73h58.22Z" style="fill:#ebebeb"></path><path d="M284.17,42.35a13.44,13.44,0,0,0-1.51-3.15,4.35,4.35,0,0,0-2.86-1.85A2.65,2.65,0,0,0,277,38.94a16.5,16.5,0,0,0-1.76-7.21,6.91,6.91,0,0,0-6.06-3.7A7.05,7.05,0,0,0,263.69,32a20.73,20.73,0,0,0-1.87,6.77c-.89-1.09-2.77-.75-3.7.31A7.38,7.38,0,0,0,256.76,43h28Z" style="fill:#f5f5f5"></path><path d="M716.93,78.11A12.73,12.73,0,0,0,715.41,75a4.33,4.33,0,0,0-2.85-1.85,2.64,2.64,0,0,0-2.82,1.58,16.59,16.59,0,0,0-1.76-7.2c-1.25-2.16-3.57-3.86-6.06-3.71a7.12,7.12,0,0,0-5.48,4,21,21,0,0,0-1.87,6.77c-.88-1.09-2.76-.75-3.69.31a7.29,7.29,0,0,0-1.36,3.93h28Z" style="fill:#f5f5f5"></path></g><g id="freepik--Floor--inject-37"><path d="M719.09,220.86c0,.15-155.86.26-348.07.26S22.91,221,22.91,220.86s155.82-.26,348.11-.26S719.09,220.72,719.09,220.86Z" style="fill:#263238"></path></g><g id="freepik--College--inject-37"><rect x="81.28" y="75.99" width="78" height="144.79" transform="translate(240.56 296.77) rotate(180)" style="fill:#e0e0e0"></rect><rect x="158.32" y="115.08" width="132.04" height="105.7" transform="translate(448.68 335.86) rotate(180)" style="fill:#e0e0e0"></rect><path d="M159.23,220.86c-.14,0-.26-31.86-.26-71.15s.12-71.16.26-71.16.26,31.86.26,71.16S159.38,220.86,159.23,220.86Z" style="fill:#263238"></path><rect x="81.28" y="173.17" width="209.08" height="47.61" transform="translate(371.64 393.94) rotate(180)" style="fill:#ffbf9d"></rect><polygon points="161.74 69.63 120.32 48.31 79.11 69.63 161.74 69.63" style="fill:#FF725E"></polygon><rect x="79.11" y="69.63" width="82.63" height="4.77" transform="translate(240.85 144.03) rotate(180)" style="fill:#e0e0e0"></rect><rect x="80.11" y="74.4" width="80.36" height="1.59" transform="translate(240.59 150.39) rotate(180)" style="fill:#e0e0e0"></rect><path d="M79,74.4c0-.14,18.51-.26,41.35-.26s41.36.12,41.36.26-18.51.26-41.36.26S79,74.54,79,74.4Z" style="fill:#263238"></path><path d="M80.05,76c0-.14,18-.26,40.21-.26s40.21.12,40.21.26-18,.26-40.21.26S80.05,76.14,80.05,76Z" style="fill:#263238"></path><rect x="126.33" y="92.99" width="16.76" height="28.81" transform="translate(269.42 214.79) rotate(180)" style="fill:#fff"></rect><rect x="128.19" y="95.1" width="13.14" height="25.07" transform="translate(269.51 215.26) rotate(180)" style="fill:#455a64"></rect><path d="M135,120.28c-.14,0-.26-5.65-.26-12.62S134.88,95,135,95s.26,5.65.26,12.62S135.16,120.28,135,120.28Z" style="fill:#263238"></path><path d="M128.19,102.66a40.73,40.73,0,0,1,6.56-.26,40.81,40.81,0,0,1,6.57.26,42.24,42.24,0,0,1-6.57.26A42.16,42.16,0,0,1,128.19,102.66Z" style="fill:#263238"></path><path d="M128.19,111.51a40.73,40.73,0,0,1,6.56-.26,40.81,40.81,0,0,1,6.57.26,42.24,42.24,0,0,1-6.57.26A42.16,42.16,0,0,1,128.19,111.51Z" style="fill:#263238"></path><rect x="230.12" y="127.77" width="16.76" height="28.81" transform="translate(476.99 284.34) rotate(180)" style="fill:#fff"></rect><rect x="231.97" y="129.87" width="13.14" height="25.07" transform="translate(477.09 284.81) rotate(180)" style="fill:#455a64"></rect><path d="M238.81,155.05c-.15,0-.26-5.65-.26-12.62s.11-12.62.26-12.62.26,5.65.26,12.62S239,155.05,238.81,155.05Z" style="fill:#263238"></path><path d="M232,137.43a42.35,42.35,0,0,1,6.57-.26,42.24,42.24,0,0,1,6.57.26,40.81,40.81,0,0,1-6.57.26A40.91,40.91,0,0,1,232,137.43Z" style="fill:#263238"></path><path d="M232,146.28a42.35,42.35,0,0,1,6.57-.26,42.24,42.24,0,0,1,6.57.26,42.24,42.24,0,0,1-6.57.26A42.35,42.35,0,0,1,232,146.28Z" style="fill:#263238"></path><rect x="260.71" y="127.77" width="16.76" height="28.81" transform="translate(538.18 284.34) rotate(180)" style="fill:#fff"></rect><rect x="262.57" y="129.87" width="13.14" height="25.07" transform="translate(538.27 284.81) rotate(180)" style="fill:#455a64"></rect><path d="M269.4,155.05c-.14,0-.26-5.65-.26-12.62s.12-12.62.26-12.62.26,5.65.26,12.62S269.54,155.05,269.4,155.05Z" style="fill:#263238"></path><path d="M262.57,137.43a42.24,42.24,0,0,1,6.57-.26,42.16,42.16,0,0,1,6.56.26,40.73,40.73,0,0,1-6.56.26A40.81,40.81,0,0,1,262.57,137.43Z" style="fill:#263238"></path><path d="M262.57,146.28a42.24,42.24,0,0,1,6.57-.26,42.16,42.16,0,0,1,6.56.26,42.16,42.16,0,0,1-6.56.26A42.24,42.24,0,0,1,262.57,146.28Z" style="fill:#263238"></path><rect x="202.62" y="127.43" width="16.76" height="28.81" transform="translate(421.99 283.67) rotate(180)" style="fill:#fff"></rect><rect x="204.47" y="129.53" width="13.14" height="25.07" transform="translate(422.08 284.14) rotate(180)" style="fill:#455a64"></rect><path d="M211.31,154.71c-.15,0-.27-5.65-.27-12.62s.12-12.62.27-12.62.26,5.65.26,12.62S211.45,154.71,211.31,154.71Z" style="fill:#263238"></path><path d="M204.47,137.09a42.24,42.24,0,0,1,6.57-.26,42.24,42.24,0,0,1,6.57.26,40.07,40.07,0,0,1-6.57.27A40.07,40.07,0,0,1,204.47,137.09Z" style="fill:#263238"></path><path d="M204.47,145.94a42.24,42.24,0,0,1,6.57-.26,42.24,42.24,0,0,1,6.57.26,40.81,40.81,0,0,1-6.57.26A40.81,40.81,0,0,1,204.47,145.94Z" style="fill:#263238"></path><rect x="175.11" y="127.09" width="16.76" height="28.81" transform="translate(366.99 283) rotate(180)" style="fill:#fff"></rect><rect x="176.97" y="129.2" width="13.14" height="25.07" transform="translate(367.08 283.46) rotate(180)" style="fill:#455a64"></rect><path d="M183.8,154.38c-.14,0-.26-5.65-.26-12.62s.12-12.62.26-12.62.26,5.65.26,12.62S184,154.38,183.8,154.38Z" style="fill:#263238"></path><path d="M177,136.76a40.81,40.81,0,0,1,6.57-.26,40.81,40.81,0,0,1,6.57.26,42.24,42.24,0,0,1-6.57.26A42.24,42.24,0,0,1,177,136.76Z" style="fill:#263238"></path><path d="M177,145.61a40.81,40.81,0,0,1,6.57-.26,40.81,40.81,0,0,1,6.57.26,42.24,42.24,0,0,1-6.57.26A42.24,42.24,0,0,1,177,145.61Z" style="fill:#263238"></path><rect x="96.74" y="92.99" width="16.76" height="28.81" transform="translate(210.24 214.79) rotate(180)" style="fill:#fff"></rect><rect x="98.6" y="95.1" width="13.14" height="25.07" transform="translate(210.33 215.26) rotate(180)" style="fill:#455a64"></rect><path d="M105.43,120.28c-.14,0-.26-5.65-.26-12.62s.12-12.62.26-12.62.26,5.65.26,12.62S105.57,120.28,105.43,120.28Z" style="fill:#263238"></path><path d="M98.6,102.66a40.81,40.81,0,0,1,6.57-.26,40.73,40.73,0,0,1,6.56.26,42.16,42.16,0,0,1-6.56.26A42.24,42.24,0,0,1,98.6,102.66Z" style="fill:#263238"></path><path d="M98.6,111.51a40.81,40.81,0,0,1,6.57-.26,40.73,40.73,0,0,1,6.56.26,42.16,42.16,0,0,1-6.56.26A42.24,42.24,0,0,1,98.6,111.51Z" style="fill:#263238"></path><rect x="126.33" y="129.88" width="16.76" height="28.81" transform="translate(269.42 288.57) rotate(180)" style="fill:#fff"></rect><rect x="128.19" y="131.98" width="13.14" height="25.07" transform="translate(269.51 289.04) rotate(180)" style="fill:#455a64"></rect><path d="M135,157.16c-.14,0-.26-5.65-.26-12.62s.12-12.62.26-12.62.26,5.65.26,12.62S135.16,157.16,135,157.16Z" style="fill:#263238"></path><path d="M128.19,139.54a42.16,42.16,0,0,1,6.56-.26,42.24,42.24,0,0,1,6.57.26,40.81,40.81,0,0,1-6.57.26A40.73,40.73,0,0,1,128.19,139.54Z" style="fill:#263238"></path><path d="M128.19,148.39a42.16,42.16,0,0,1,6.56-.26,42.24,42.24,0,0,1,6.57.26,40.81,40.81,0,0,1-6.57.26A40.73,40.73,0,0,1,128.19,148.39Z" style="fill:#263238"></path><rect x="96.74" y="129.88" width="16.76" height="28.81" transform="translate(210.24 288.57) rotate(180)" style="fill:#fff"></rect><rect x="98.6" y="131.98" width="13.14" height="25.07" transform="translate(210.33 289.04) rotate(180)" style="fill:#455a64"></rect><path d="M105.43,157.16c-.14,0-.26-5.65-.26-12.62s.12-12.62.26-12.62.26,5.65.26,12.62S105.57,157.16,105.43,157.16Z" style="fill:#263238"></path><path d="M98.6,139.54a42.24,42.24,0,0,1,6.57-.26,42.16,42.16,0,0,1,6.56.26,40.73,40.73,0,0,1-6.56.26A40.81,40.81,0,0,1,98.6,139.54Z" style="fill:#263238"></path><path d="M98.6,148.39a42.24,42.24,0,0,1,6.57-.26,42.16,42.16,0,0,1,6.56.26,40.73,40.73,0,0,1-6.56.26A40.81,40.81,0,0,1,98.6,148.39Z" style="fill:#263238"></path><rect x="78.89" y="165.19" width="211.83" height="4.88" transform="translate(369.61 335.25) rotate(180)" style="fill:#e0e0e0"></rect><rect x="80.15" y="169.9" width="210.57" height="3.27" transform="translate(370.87 343.07) rotate(180)" style="fill:#e0e0e0"></rect><path d="M290.72,170.29c0,.15-47.21.26-105.44.26s-105.45-.11-105.45-.26S127,170,185.28,170,290.72,170.15,290.72,170.29Z" style="fill:#263238"></path><path d="M290.72,173.17c0,.14-47.21.26-105.44.26s-105.45-.12-105.45-.26,47.2-.26,105.45-.26S290.72,173,290.72,173.17Z" style="fill:#263238"></path><path d="M290.72,165.19c0,.14-47.21.26-105.44.26s-105.45-.12-105.45-.26,47.2-.26,105.45-.26S290.72,165,290.72,165.19Z" style="fill:#263238"></path><path d="M215.54,178.21h17.61a0,0,0,0,1,0,0v29.48a8.05,8.05,0,0,1-8.05,8.05h-1.51a8.05,8.05,0,0,1-8.05-8.05V178.21A0,0,0,0,1,215.54,178.21Z" transform="translate(448.69 393.94) rotate(180)" style="fill:#fff"></path><path d="M218,180.91h12.62a0,0,0,0,1,0,0v26.35a5.77,5.77,0,0,1-5.77,5.77H223.8a5.77,5.77,0,0,1-5.77-5.77V180.91a0,0,0,0,1,0,0Z" transform="translate(448.68 393.94) rotate(180)" style="fill:#455a64"></path><path d="M224.34,213c-.14,0-.26-7.19-.26-16.06s.12-16.06.26-16.06.26,7.19.26,16.06S224.49,213,224.34,213Z" style="fill:#263238"></path><path d="M218.11,190.92a38.79,38.79,0,0,1,6.29-.26,38.79,38.79,0,0,1,6.29.26,38.79,38.79,0,0,1-6.29.26A38.79,38.79,0,0,1,218.11,190.92Z" style="fill:#263238"></path><path d="M218.11,201.44a37.48,37.48,0,0,1,6.29-.26,37.48,37.48,0,0,1,6.29.26,38.79,38.79,0,0,1-6.29.26A38.79,38.79,0,0,1,218.11,201.44Z" style="fill:#263238"></path><path d="M249.08,178.21h17.61a0,0,0,0,1,0,0v29.48a8.05,8.05,0,0,1-8.05,8.05h-1.51a8.05,8.05,0,0,1-8.05-8.05V178.21a0,0,0,0,1,0,0Z" transform="translate(515.77 393.94) rotate(180)" style="fill:#fff"></path><path d="M251.57,180.91h12.62a0,0,0,0,1,0,0v26.35a5.77,5.77,0,0,1-5.77,5.77h-1.08a5.77,5.77,0,0,1-5.77-5.77V180.91A0,0,0,0,1,251.57,180.91Z" transform="translate(515.76 393.94) rotate(180)" style="fill:#455a64"></path><path d="M257.88,213c-.14,0-.26-7.19-.26-16.06s.12-16.06.26-16.06.26,7.19.26,16.06S258,213,257.88,213Z" style="fill:#263238"></path><path d="M251.65,190.92a38.79,38.79,0,0,1,6.29-.26,38.79,38.79,0,0,1,6.29.26,38.79,38.79,0,0,1-6.29.26A38.79,38.79,0,0,1,251.65,190.92Z" style="fill:#263238"></path><path d="M251.65,201.44a37.48,37.48,0,0,1,6.29-.26,37.48,37.48,0,0,1,6.29.26,38.79,38.79,0,0,1-6.29.26A38.79,38.79,0,0,1,251.65,201.44Z" style="fill:#263238"></path><path d="M176,178.21h17.61a0,0,0,0,1,0,0v29.48a8.05,8.05,0,0,1-8.05,8.05h-1.51a8.05,8.05,0,0,1-8.05-8.05V178.21a0,0,0,0,1,0,0Z" transform="translate(369.68 393.94) rotate(180)" style="fill:#fff"></path><path d="M178.58,181.31h12.62a0,0,0,0,1,0,0v26.35a5.77,5.77,0,0,1-5.77,5.77h-1.08a5.77,5.77,0,0,1-5.77-5.77V181.31A0,0,0,0,1,178.58,181.31Z" transform="translate(369.79 394.73) rotate(180)" style="fill:#455a64"></path><path d="M184.84,213c-.15,0-.26-7.19-.26-16.06s.11-16.06.26-16.06.26,7.19.26,16.06S185,213,184.84,213Z" style="fill:#263238"></path><path d="M178.61,190.92a38.61,38.61,0,0,1,6.28-.26,38.69,38.69,0,0,1,6.29.26,38.69,38.69,0,0,1-6.29.26A38.61,38.61,0,0,1,178.61,190.92Z" style="fill:#263238"></path><path d="M178.61,201.44a37.3,37.3,0,0,1,6.28-.26,37.38,37.38,0,0,1,6.29.26,38.69,38.69,0,0,1-6.29.26A38.61,38.61,0,0,1,178.61,201.44Z" style="fill:#263238"></path><path d="M91,178.21h17.61a0,0,0,0,1,0,0v29.48a8.05,8.05,0,0,1-8.05,8.05H99.07A8.05,8.05,0,0,1,91,207.69V178.21A0,0,0,0,1,91,178.21Z" transform="translate(199.66 393.94) rotate(180)" style="fill:#fff"></path><path d="M93.58,181.31H106.2a0,0,0,0,1,0,0v26.35a5.77,5.77,0,0,1-5.77,5.77H99.34a5.77,5.77,0,0,1-5.77-5.77V181.31A0,0,0,0,1,93.58,181.31Z" transform="translate(199.77 394.73) rotate(180)" style="fill:#455a64"></path><path d="M99.83,213c-.15,0-.26-7.19-.26-16.06s.11-16.06.26-16.06.26,7.19.26,16.06S100,213,99.83,213Z" style="fill:#263238"></path><path d="M93.6,190.92a38.69,38.69,0,0,1,6.29-.26,38.61,38.61,0,0,1,6.28.26,38.61,38.61,0,0,1-6.28.26A38.69,38.69,0,0,1,93.6,190.92Z" style="fill:#263238"></path><path d="M93.6,201.44a37.38,37.38,0,0,1,6.29-.26,37.3,37.3,0,0,1,6.28.26,38.61,38.61,0,0,1-6.28.26A38.69,38.69,0,0,1,93.6,201.44Z" style="fill:#263238"></path><path d="M126,178.21h17.61a0,0,0,0,1,0,0v29.48a8.05,8.05,0,0,1-8.05,8.05H134a8.05,8.05,0,0,1-8.05-8.05V178.21a0,0,0,0,1,0,0Z" transform="translate(269.56 393.94) rotate(180)" style="fill:#fff"></path><path d="M128.53,181.31h12.62a0,0,0,0,1,0,0v26.35a5.77,5.77,0,0,1-5.77,5.77h-1.08a5.77,5.77,0,0,1-5.77-5.77V181.31A0,0,0,0,1,128.53,181.31Z" transform="translate(269.67 394.73) rotate(180)" style="fill:#455a64"></path><path d="M134.78,213c-.15,0-.26-7.19-.26-16.06s.11-16.06.26-16.06S135,188.1,135,197,134.92,213,134.78,213Z" style="fill:#263238"></path><path d="M128.55,190.92a38.69,38.69,0,0,1,6.29-.26,38.61,38.61,0,0,1,6.28.26,38.61,38.61,0,0,1-6.28.26A38.69,38.69,0,0,1,128.55,190.92Z" style="fill:#263238"></path><path d="M128.55,201.44a37.38,37.38,0,0,1,6.29-.26,37.3,37.3,0,0,1,6.28.26,38.61,38.61,0,0,1-6.28.26A38.69,38.69,0,0,1,128.55,201.44Z" style="fill:#263238"></path><rect x="587.24" y="75.99" width="78" height="144.79" style="fill:#e0e0e0"></rect><rect x="456.16" y="115.08" width="132.04" height="105.7" style="fill:#e0e0e0"></rect><path d="M587.29,220.86c-.14,0-.26-31.86-.26-71.15s.12-71.16.26-71.16.26,31.86.26,71.16S587.44,220.86,587.29,220.86Z" style="fill:#263238"></path><rect x="456.16" y="173.17" width="209.08" height="47.61" style="fill:#ffbf9d"></rect><path d="M326.89,138.44a1.71,1.71,0,0,1,0-.3c0-.22,0-.49,0-.84,0-.77,0-1.84,0-3.2,0-2.79-.05-6.77-.09-11.66s-.06-10.74-.09-17.21a7.62,7.62,0,0,0-1.74-4.42,7.71,7.71,0,0,0-4.24-2.57,11.79,11.79,0,0,0-2.61-.16,8,8,0,0,0-2.62.32,7.6,7.6,0,0,0-4.2,3.16,7.3,7.3,0,0,0-1,2.39,11.72,11.72,0,0,0-.2,2.59v5.21c0,3.41,0,6.71,0,9.86,0,6.3,0,12-.06,16.83l-.18-.19,12.47.11,3.44,0,.9,0,.32,0a.79.79,0,0,1-.28,0l-.87,0-3.39.05-12.59.1h-.19v-.19c0-4.84,0-10.53-.06-16.83,0-3.15,0-6.45,0-9.86v-5.21a8.67,8.67,0,0,1,1.28-5.26,8.2,8.2,0,0,1,4.5-3.38,9,9,0,0,1,2.76-.34,12.5,12.5,0,0,1,2.72.19,8.11,8.11,0,0,1,4.51,2.74,8,8,0,0,1,1.84,4.72c0,6.56,0,12.44-.05,17.37s-.07,8.86-.09,11.65c0,1.34,0,2.39,0,3.14,0,.33,0,.6,0,.81A1.1,1.1,0,0,1,326.89,138.44Z" style="fill:#455a64"></path><rect x="286.29" y="75.96" width="168.98" height="117.53" style="fill:#e0e0e0"></rect><rect x="286.29" y="75.96" width="168.98" height="117.53" style="opacity:0.2"></rect><rect x="281.67" y="77.31" width="178.97" height="5.37" style="fill:#e0e0e0"></rect><rect x="282.37" y="71.94" width="177.89" height="1.81" style="fill:#e0e0e0"></rect><rect x="281.67" y="67.74" width="180.33" height="4.2" style="fill:#e0e0e0"></rect><rect x="283.82" y="71.94" width="174.5" height="5.4" style="fill:#e0e0e0"></rect><polygon points="282.36 67.74 462 67.74 371.23 25.03 282.36 67.74" style="fill:#e0e0e0"></polygon><rect x="283.82" y="82.68" width="174.3" height="2.74" style="fill:#e0e0e0"></rect><rect x="286.29" y="85.41" width="10.54" height="108.07" style="fill:#e0e0e0"></rect><path d="M296.83,193.48s0-.19,0-.56,0-.93,0-1.63c0-1.44,0-3.53,0-6.23,0-5.42,0-13.24-.08-23,0-19.43-.06-46.41-.11-76.68l.26.25H286.3l.26-.26c-.07,48.19-.13,89.63-.16,108.06l-.1-.1,7.8.06,2,0,.7,0s-.21,0-.66,0l-2,0-7.86.06h-.11v-.11c0-18.43-.09-59.87-.16-108.06v-.27h11.06v.26c0,30.35-.08,57.39-.11,76.87,0,9.69-.06,17.5-.07,22.9,0,2.67,0,4.75,0,6.17,0,.69,0,1.22,0,1.59A5.12,5.12,0,0,1,296.83,193.48Z" style="fill:#263238"></path><rect x="318.2" y="85.41" width="10.54" height="108.07" style="fill:#e0e0e0"></rect><path d="M328.74,193.48s0-.19,0-.56,0-.93,0-1.63c0-1.44,0-3.53,0-6.23,0-5.42-.05-13.24-.08-23,0-19.43-.07-46.41-.11-76.68l.26.25H318.2l.26-.26c-.07,48.19-.13,89.63-.15,108.06l-.11-.1,7.8.06,2,0,.71,0s-.22,0-.67,0l-2,0-7.86.06h-.11v-.11c0-18.43-.08-59.87-.15-108.06v-.27H329v.26c-.05,30.35-.09,57.39-.11,76.87,0,9.69-.06,17.5-.08,22.9,0,2.67,0,4.75,0,6.17,0,.69,0,1.22,0,1.59S328.74,193.48,328.74,193.48Z" style="fill:#263238"></path><rect x="416.97" y="85.41" width="10.54" height="108.07" style="fill:#e0e0e0"></rect><path d="M427.51,193.48s0-.19,0-.56,0-.93,0-1.63c0-1.44,0-3.53,0-6.23,0-5.42-.05-13.24-.08-23,0-19.43-.07-46.41-.11-76.68l.26.25H417l.26-.26c-.07,48.19-.13,89.63-.15,108.06l-.11-.1,7.8.06,2,0,.71,0s-.22,0-.67,0l-2,0-7.86.06h-.11v-.11c0-18.43-.08-59.87-.15-108.06v-.27h11.06v.26c0,30.35-.09,57.39-.11,76.87,0,9.69-.06,17.5-.08,22.9,0,2.67,0,4.75,0,6.17,0,.69,0,1.22,0,1.59S427.51,193.48,427.51,193.48Z" style="fill:#263238"></path><rect x="445.81" y="85.41" width="10.54" height="108.07" style="fill:#e0e0e0"></rect><path d="M456.35,193.48s0-.19,0-.56,0-.93,0-1.63c0-1.44,0-3.53,0-6.23,0-5.42,0-13.24-.08-23,0-19.43-.06-46.41-.11-76.68l.26.25H445.81l.26-.26c-.06,48.19-.12,89.63-.15,108.06l-.11-.1,7.81.06,2,0,.7,0s-.22,0-.66,0l-2,0-7.87.06h-.1v-.11c0-18.43-.09-59.87-.16-108.06v-.27h11.06v.26c0,30.35-.08,57.39-.11,76.87,0,9.69-.06,17.5-.08,22.9,0,2.67,0,4.75,0,6.17,0,.69,0,1.22,0,1.59S456.35,193.48,456.35,193.48Z" style="fill:#263238"></path><path d="M353,142.21H335.89V109.42a7.82,7.82,0,0,1,7.83-7.83h1.47a7.82,7.82,0,0,1,7.83,7.83Z" style="fill:#455a64"></path><path d="M353,142.21s0-.11,0-.3,0-.5,0-.84c0-.77,0-1.84,0-3.2,0-2.79-.06-6.77-.1-11.66s-.05-10.74-.09-17.21a7.51,7.51,0,0,0-1.74-4.43,7.71,7.71,0,0,0-4.23-2.56,12.51,12.51,0,0,0-2.62-.17,8.5,8.5,0,0,0-2.61.32,7.69,7.69,0,0,0-4.21,3.17,7.19,7.19,0,0,0-1,2.39,10.55,10.55,0,0,0-.2,2.59c0,1.76,0,3.5,0,5.2,0,3.42,0,6.72,0,9.87,0,6.29,0,12-.05,16.83l-.19-.19,12.48.1,3.43,0,.9,0a2,2,0,0,1,.32,0,1.32,1.32,0,0,1-.28,0l-.87,0-3.39.05-12.59.1h-.19v-.19c0-4.84,0-10.54-.05-16.83,0-3.15,0-6.45,0-9.87v-5.2a8.61,8.61,0,0,1,1.29-5.26,8.1,8.1,0,0,1,4.49-3.38,8.75,8.75,0,0,1,2.76-.34,13.1,13.1,0,0,1,2.72.18,8.24,8.24,0,0,1,4.52,2.75,8.07,8.07,0,0,1,1.83,4.72c0,6.56,0,12.43-.05,17.37s-.07,8.86-.09,11.65c0,1.33,0,2.39,0,3.14,0,.33,0,.6,0,.81S353,142.22,353,142.21Z" style="fill:#263238"></path><path d="M344.46,141.92c-.15,0-.26-9-.26-20s.11-20,.26-20,.26,9,.26,20S344.6,141.92,344.46,141.92Z" style="fill:#263238"></path><path d="M353,110.83a71.54,71.54,0,0,1-8.56.26,71.65,71.65,0,0,1-8.57-.26,69.22,69.22,0,0,1,8.57-.26A69.11,69.11,0,0,1,353,110.83Z" style="fill:#263238"></path><path d="M353,120.89a71.54,71.54,0,0,1-8.56.26,71.65,71.65,0,0,1-8.57-.26,69.22,69.22,0,0,1,8.57-.26A69.11,69.11,0,0,1,353,120.89Z" style="fill:#263238"></path><path d="M353,131a71.54,71.54,0,0,1-8.56.26,71.65,71.65,0,0,1-8.57-.26,69.22,69.22,0,0,1,8.57-.26A69.11,69.11,0,0,1,353,131Z" style="fill:#263238"></path><path d="M382.26,142.21H365.13V109.42a7.82,7.82,0,0,1,7.83-7.83h1.47a7.83,7.83,0,0,1,7.83,7.83Z" style="fill:#455a64"></path><path d="M382.26,142.21a2,2,0,0,1,0-.3l0-.84c0-.77,0-1.84,0-3.2,0-2.79-.05-6.77-.09-11.66S382,115.47,382,109a7.57,7.57,0,0,0-6-7,12.41,12.41,0,0,0-2.61-.17,8.56,8.56,0,0,0-2.62.32,7.66,7.66,0,0,0-4.2,3.17,7.21,7.21,0,0,0-1,2.39,11.63,11.63,0,0,0-.2,2.59v5.2c0,3.42,0,6.72,0,9.87,0,6.29,0,12-.06,16.83l-.18-.19,12.47.1,3.44,0,.9,0,.32,0a1.32,1.32,0,0,1-.28,0l-.87,0-3.39.05-12.59.1h-.19v-.19c0-4.84,0-10.54-.06-16.83,0-3.15,0-6.45,0-9.87v-5.2a8.67,8.67,0,0,1,1.28-5.26,8.15,8.15,0,0,1,4.5-3.38,8.68,8.68,0,0,1,2.76-.34,13.15,13.15,0,0,1,2.72.18,8.18,8.18,0,0,1,4.51,2.75,8,8,0,0,1,1.84,4.72c0,6.56,0,12.43-.05,17.37s-.07,8.86-.09,11.65c0,1.33,0,2.39,0,3.14,0,.33,0,.6,0,.81A1.1,1.1,0,0,1,382.26,142.21Z" style="fill:#263238"></path><path d="M373.69,141.92c-.14,0-.26-9-.26-20s.12-20,.26-20,.26,9,.26,20S373.84,141.92,373.69,141.92Z" style="fill:#263238"></path><path d="M382.26,110.83a71.79,71.79,0,0,1-8.57.26,71.54,71.54,0,0,1-8.56-.26,69.11,69.11,0,0,1,8.56-.26A69.35,69.35,0,0,1,382.26,110.83Z" style="fill:#263238"></path><path d="M382.26,120.89a71.79,71.79,0,0,1-8.57.26,71.54,71.54,0,0,1-8.56-.26,69.11,69.11,0,0,1,8.56-.26A69.35,69.35,0,0,1,382.26,120.89Z" style="fill:#263238"></path><path d="M382.26,131a71.79,71.79,0,0,1-8.57.26,71.54,71.54,0,0,1-8.56-.26,69.11,69.11,0,0,1,8.56-.26A69.35,69.35,0,0,1,382.26,131Z" style="fill:#263238"></path><path d="M411.5,142.21H394.36V109.42a7.83,7.83,0,0,1,7.83-7.83h1.48a7.83,7.83,0,0,1,7.83,7.83Z" style="fill:#455a64"></path><path d="M411.5,142.21a2,2,0,0,1,0-.3c0-.22,0-.5,0-.84,0-.77,0-1.84,0-3.2,0-2.79-.05-6.77-.09-11.66s-.06-10.74-.09-17.21a7.57,7.57,0,0,0-6-7,12.41,12.41,0,0,0-2.61-.17,8.52,8.52,0,0,0-2.62.32,7.66,7.66,0,0,0-4.2,3.17,7.21,7.21,0,0,0-1,2.39,10.55,10.55,0,0,0-.2,2.59v5.2c0,3.42,0,6.72,0,9.87,0,6.29,0,12-.05,16.83l-.19-.19,12.48.1,3.43,0,.91,0,.32,0-.28,0-.87,0-3.39.05-12.6.1h-.19v-.19c0-4.84,0-10.54-.05-16.83,0-3.15,0-6.45,0-9.87,0-1.7,0-3.44,0-5.2a8.68,8.68,0,0,1,1.29-5.26,8.13,8.13,0,0,1,4.49-3.38,8.77,8.77,0,0,1,2.77-.34,13.19,13.19,0,0,1,2.72.18,8.18,8.18,0,0,1,4.51,2.75,8.09,8.09,0,0,1,1.84,4.72c0,6.56,0,12.43-.05,17.37s-.07,8.86-.09,11.65c0,1.33,0,2.39,0,3.14,0,.33,0,.6,0,.81S411.5,142.22,411.5,142.21Z" style="fill:#263238"></path><path d="M402.93,141.92c-.14,0-.26-9-.26-20s.12-20,.26-20,.26,9,.26,20S403.07,141.92,402.93,141.92Z" style="fill:#263238"></path><path d="M411.5,110.83a71.79,71.79,0,0,1-8.57.26,71.79,71.79,0,0,1-8.57-.26,69.35,69.35,0,0,1,8.57-.26A69.35,69.35,0,0,1,411.5,110.83Z" style="fill:#263238"></path><path d="M411.5,120.89a71.79,71.79,0,0,1-8.57.26,71.79,71.79,0,0,1-8.57-.26,69.35,69.35,0,0,1,8.57-.26A69.35,69.35,0,0,1,411.5,120.89Z" style="fill:#263238"></path><path d="M411.5,131a71.79,71.79,0,0,1-8.57.26,71.79,71.79,0,0,1-8.57-.26,69.35,69.35,0,0,1,8.57-.26A69.35,69.35,0,0,1,411.5,131Z" style="fill:#263238"></path><rect x="339.61" y="165.03" width="13.42" height="26.61" style="fill:#263238"></rect><rect x="365.89" y="165.03" width="13.42" height="26.61" style="fill:#263238"></rect><rect x="392.17" y="165.03" width="13.42" height="26.61" style="fill:#263238"></rect><rect x="282.84" y="191.64" width="176.97" height="5.61" style="fill:#e0e0e0"></rect><rect x="278.96" y="197.16" width="182.23" height="5.61" style="fill:#f5f5f5"></rect><rect x="270.76" y="208.38" width="197.37" height="5.61" style="fill:#f5f5f5"></rect><rect x="263.48" y="219.54" width="210.99" height="5.61" style="fill:#f5f5f5"></rect><rect x="274.59" y="202.77" width="189.82" height="5.61" style="fill:#e0e0e0"></rect><rect x="267.26" y="213.98" width="203.72" height="5.61" style="fill:#e0e0e0"></rect><path d="M458.29,85.41c0,.15-38.76.27-86.57.27s-86.58-.12-86.58-.27,38.76-.26,86.58-.26S458.29,85.27,458.29,85.41Z" style="fill:#263238"></path><path d="M460.65,82.63c0,.15-39.92.26-89.14.26s-89.15-.11-89.15-.26,39.91-.26,89.15-.26S460.65,82.49,460.65,82.63Z" style="fill:#263238"></path><path d="M460.86,77.24c0,.15-39.91.26-89.14.26s-89.15-.11-89.15-.26S322.48,77,371.72,77,460.86,77.1,460.86,77.24Z" style="fill:#263238"></path><path d="M460.86,73.77c0,.14-39.91.26-89.14.26s-89.15-.12-89.15-.26,39.91-.26,89.15-.26S460.86,73.63,460.86,73.77Z" style="fill:#263238"></path><path d="M459.93,72c0,.14-39.92.26-89.14.26s-89.15-.12-89.15-.26,39.91-.26,89.15-.26S459.93,71.86,459.93,72Z" style="fill:#263238"></path><path d="M457,191.42c0,.15-38.87.26-86.8.26s-86.81-.11-86.81-.26,38.86-.26,86.81-.26S457,191.28,457,191.42Z" style="fill:#263238"></path><path d="M457,197c0,.15-38.87.26-86.8.26s-86.81-.11-86.81-.26,38.86-.26,86.81-.26S457,196.83,457,197Z" style="fill:#263238"></path><path d="M457,202.52c0,.14-40.75.32-91,.39s-91,0-91-.14,40.75-.32,91-.39S457,202.38,457,202.52Z" style="fill:#263238"></path><path d="M456.46,208.38c0,.14-41.57.26-92.84.26s-92.86-.12-92.86-.26,41.57-.27,92.86-.27S456.46,208.23,456.46,208.38Z" style="fill:#263238"></path><path d="M457,214c0,.15-42.35.26-94.58.26s-94.6-.11-94.6-.26,42.35-.26,94.6-.26S457,213.84,457,214Z" style="fill:#263238"></path><path d="M457,219.59c0,.14-43.33.26-96.78.26s-96.78-.12-96.78-.26,43.32-.26,96.78-.26S457,219.44,457,219.59Z" style="fill:#263238"></path><path d="M457,225.15c0,.14-38.87.26-86.8.26s-86.81-.12-86.81-.26,38.86-.27,86.81-.27S457,225,457,225.15Z" style="fill:#263238"></path><polygon points="584.78 69.63 626.21 48.31 667.42 69.63 584.78 69.63" style="fill:#FF725E"></polygon><rect x="584.78" y="69.63" width="82.63" height="4.77" style="fill:#e0e0e0"></rect><rect x="586.05" y="74.4" width="80.36" height="1.59" style="fill:#e0e0e0"></rect><path d="M667.5,74.4c0,.14-18.52.26-41.36.26s-41.35-.12-41.35-.26,18.51-.26,41.35-.26S667.5,74.26,667.5,74.4Z" style="fill:#263238"></path><path d="M666.48,76c0,.15-18,.26-40.21.26s-40.22-.11-40.22-.26,18-.26,40.22-.26S666.48,75.85,666.48,76Z" style="fill:#263238"></path><rect x="603.44" y="92.99" width="16.76" height="28.81" style="fill:#fff"></rect><rect x="605.2" y="95.1" width="13.14" height="25.07" style="fill:#455a64"></rect><path d="M611.51,120.28c-.15,0-.26-5.65-.26-12.62s.11-12.62.26-12.62.26,5.65.26,12.62S611.65,120.28,611.51,120.28Z" style="fill:#263238"></path><path d="M618.34,102.66a83.14,83.14,0,0,1-13.14,0,83.14,83.14,0,0,1,13.14,0Z" style="fill:#263238"></path><path d="M618.34,111.51a83.14,83.14,0,0,1-13.14,0,83.14,83.14,0,0,1,13.14,0Z" style="fill:#263238"></path><rect x="472.15" y="128.1" width="16.76" height="28.81" style="fill:#fff"></rect><rect x="473.91" y="130.21" width="13.14" height="25.07" style="fill:#455a64"></rect><path d="M480.22,155.39c-.15,0-.26-5.65-.26-12.62s.11-12.62.26-12.62.26,5.65.26,12.62S480.36,155.39,480.22,155.39Z" style="fill:#263238"></path><path d="M487.05,137.77a83.14,83.14,0,0,1-13.14,0,83.14,83.14,0,0,1,13.14,0Z" style="fill:#263238"></path><path d="M487.05,146.62a83.14,83.14,0,0,1-13.14,0,83.14,83.14,0,0,1,13.14,0Z" style="fill:#263238"></path><rect x="499.65" y="127.77" width="16.76" height="28.81" style="fill:#fff"></rect><rect x="501.41" y="129.87" width="13.14" height="25.07" style="fill:#455a64"></rect><path d="M507.72,155.05c-.15,0-.26-5.65-.26-12.62s.11-12.62.26-12.62.26,5.65.26,12.62S507.86,155.05,507.72,155.05Z" style="fill:#263238"></path><path d="M514.55,137.43a83.14,83.14,0,0,1-13.14,0,83.14,83.14,0,0,1,13.14,0Z" style="fill:#263238"></path><path d="M514.55,146.28a83.14,83.14,0,0,1-13.14,0,83.14,83.14,0,0,1,13.14,0Z" style="fill:#263238"></path><rect x="527.15" y="127.43" width="16.76" height="28.81" style="fill:#fff"></rect><rect x="528.92" y="129.53" width="13.14" height="25.07" style="fill:#455a64"></rect><path d="M535.22,154.71c-.14,0-.26-5.65-.26-12.62s.12-12.62.26-12.62.26,5.65.26,12.62S535.36,154.71,535.22,154.71Z" style="fill:#263238"></path><path d="M542.05,137.09a79.95,79.95,0,0,1-13.13,0,83,83,0,0,1,13.13,0Z" style="fill:#263238"></path><path d="M542.05,145.94a83,83,0,0,1-13.13,0,83,83,0,0,1,13.13,0Z" style="fill:#263238"></path><rect x="554.65" y="127.09" width="16.76" height="28.81" style="fill:#fff"></rect><rect x="556.42" y="129.2" width="13.14" height="25.07" style="fill:#455a64"></rect><path d="M562.72,154.38c-.14,0-.26-5.65-.26-12.62s.12-12.62.26-12.62.26,5.65.26,12.62S562.87,154.38,562.72,154.38Z" style="fill:#263238"></path><path d="M569.55,136.76a83,83,0,0,1-13.13,0,83,83,0,0,1,13.13,0Z" style="fill:#263238"></path><path d="M569.55,145.61a83,83,0,0,1-13.13,0,83,83,0,0,1,13.13,0Z" style="fill:#263238"></path><rect x="633.03" y="92.99" width="16.76" height="28.81" style="fill:#fff"></rect><rect x="634.79" y="95.1" width="13.14" height="25.07" style="fill:#455a64"></rect><path d="M641.1,120.28c-.15,0-.27-5.65-.27-12.62S641,95,641.1,95s.26,5.65.26,12.62S641.24,120.28,641.1,120.28Z" style="fill:#263238"></path><path d="M647.93,102.66a83.14,83.14,0,0,1-13.14,0,83.14,83.14,0,0,1,13.14,0Z" style="fill:#263238"></path><path d="M647.93,111.51a83.14,83.14,0,0,1-13.14,0,83.14,83.14,0,0,1,13.14,0Z" style="fill:#263238"></path><rect x="603.44" y="129.88" width="16.76" height="28.81" style="fill:#fff"></rect><rect x="605.2" y="131.98" width="13.14" height="25.07" style="fill:#455a64"></rect><path d="M611.51,157.16c-.15,0-.26-5.65-.26-12.62s.11-12.62.26-12.62.26,5.65.26,12.62S611.65,157.16,611.51,157.16Z" style="fill:#263238"></path><path d="M618.34,139.54a83.14,83.14,0,0,1-13.14,0,83.14,83.14,0,0,1,13.14,0Z" style="fill:#263238"></path><path d="M618.34,148.39a83.14,83.14,0,0,1-13.14,0,83.14,83.14,0,0,1,13.14,0Z" style="fill:#263238"></path><rect x="633.03" y="129.88" width="16.76" height="28.81" style="fill:#fff"></rect><rect x="634.79" y="131.98" width="13.14" height="25.07" style="fill:#455a64"></rect><path d="M641.1,157.16c-.15,0-.27-5.65-.27-12.62s.12-12.62.27-12.62.26,5.65.26,12.62S641.24,157.16,641.1,157.16Z" style="fill:#263238"></path><path d="M647.93,139.54a83.14,83.14,0,0,1-13.14,0,83.14,83.14,0,0,1,13.14,0Z" style="fill:#263238"></path><path d="M647.93,148.39a83.14,83.14,0,0,1-13.14,0,83.14,83.14,0,0,1,13.14,0Z" style="fill:#263238"></path><rect x="455.8" y="165.19" width="211.83" height="4.88" style="fill:#e0e0e0"></rect><rect x="455.8" y="169.9" width="210.57" height="3.27" style="fill:#e0e0e0"></rect><path d="M455.8,170.29c0-.14,47.22-.26,105.44-.26s105.46.12,105.46.26-47.21.26-105.46.26S455.8,170.44,455.8,170.29Z" style="fill:#263238"></path><path d="M455.8,173.17c0-.15,47.22-.26,105.44-.26s105.46.11,105.46.26-47.21.26-105.46.26S455.8,173.31,455.8,173.17Z" style="fill:#263238"></path><path d="M455.8,165.19c0-.15,47.22-.26,105.44-.26s105.46.11,105.46.26-47.21.26-105.46.26S455.8,165.33,455.8,165.19Z" style="fill:#263238"></path><path d="M488.15,178.21h1.51a8.05,8.05,0,0,1,8.05,8.05v29.48a0,0,0,0,1,0,0H480.1a0,0,0,0,1,0,0V186.26a8.05,8.05,0,0,1,8.05-8.05Z" style="fill:#fff"></path><path d="M488.37,180.91h1.08a5.77,5.77,0,0,1,5.77,5.77V213a0,0,0,0,1,0,0H482.6a0,0,0,0,1,0,0V186.68a5.77,5.77,0,0,1,5.77-5.77Z" style="fill:#455a64"></path><path d="M488.91,213c-.15,0-.26-7.19-.26-16.06s.11-16.06.26-16.06.26,7.19.26,16.06S489.05,213,488.91,213Z" style="fill:#263238"></path><path d="M495.14,190.92a76.21,76.21,0,0,1-12.58,0,76.21,76.21,0,0,1,12.58,0Z" style="fill:#263238"></path><path d="M495.14,201.44a76.21,76.21,0,0,1-12.58,0,76.21,76.21,0,0,1,12.58,0Z" style="fill:#263238"></path><path d="M527.74,178.21h1.51a8.05,8.05,0,0,1,8.05,8.05v29.48a0,0,0,0,1,0,0H519.69a0,0,0,0,1,0,0V186.26A8.05,8.05,0,0,1,527.74,178.21Z" style="fill:#fff"></path><path d="M528,180.91H529a5.77,5.77,0,0,1,5.77,5.77V213a0,0,0,0,1,0,0H522.18a0,0,0,0,1,0,0V186.68a5.77,5.77,0,0,1,5.77-5.77Z" style="fill:#455a64"></path><path d="M528.5,213c-.15,0-.26-7.19-.26-16.06s.11-16.06.26-16.06.26,7.19.26,16.06S528.64,213,528.5,213Z" style="fill:#263238"></path><path d="M534.73,190.92a76.21,76.21,0,0,1-12.58,0,76.21,76.21,0,0,1,12.58,0Z" style="fill:#263238"></path><path d="M534.73,201.44a76.21,76.21,0,0,1-12.58,0,76.21,76.21,0,0,1,12.58,0Z" style="fill:#263238"></path><path d="M564.47,178.21H566a8.05,8.05,0,0,1,8.05,8.05v29.48a0,0,0,0,1,0,0H556.42a0,0,0,0,1,0,0V186.26A8.05,8.05,0,0,1,564.47,178.21Z" style="fill:#fff"></path><path d="M564.63,181.31h1.08a5.77,5.77,0,0,1,5.77,5.77v26.35a0,0,0,0,1,0,0H558.86a0,0,0,0,1,0,0V187.08a5.77,5.77,0,0,1,5.77-5.77Z" style="fill:#455a64"></path><path d="M565.23,213c-.15,0-.26-7.19-.26-16.06s.11-16.06.26-16.06.26,7.19.26,16.06S565.37,213,565.23,213Z" style="fill:#263238"></path><path d="M571.46,190.92a76.21,76.21,0,0,1-12.58,0,76.21,76.21,0,0,1,12.58,0Z" style="fill:#263238"></path><path d="M571.46,201.44a76.21,76.21,0,0,1-12.58,0,76.21,76.21,0,0,1,12.58,0Z" style="fill:#263238"></path><path d="M645.94,178.21h1.51a8.05,8.05,0,0,1,8.05,8.05v29.48a0,0,0,0,1,0,0H637.89a0,0,0,0,1,0,0V186.26A8.05,8.05,0,0,1,645.94,178.21Z" style="fill:#fff"></path><path d="M646.1,181.31h1.08a5.77,5.77,0,0,1,5.77,5.77v26.35a0,0,0,0,1,0,0H640.33a0,0,0,0,1,0,0V187.08A5.77,5.77,0,0,1,646.1,181.31Z" style="fill:#455a64"></path><path d="M646.7,213c-.15,0-.26-7.19-.26-16.06s.11-16.06.26-16.06S647,188.1,647,197,646.84,213,646.7,213Z" style="fill:#263238"></path><path d="M652.93,190.92a76.21,76.21,0,0,1-12.58,0,76.21,76.21,0,0,1,12.58,0Z" style="fill:#263238"></path><path d="M652.93,201.44a76.21,76.21,0,0,1-12.58,0,76.21,76.21,0,0,1,12.58,0Z" style="fill:#263238"></path><path d="M611.06,178.21h1.51a8.05,8.05,0,0,1,8.05,8.05v29.48a0,0,0,0,1,0,0H603a0,0,0,0,1,0,0V186.26A8.05,8.05,0,0,1,611.06,178.21Z" style="fill:#fff"></path><path d="M611.22,181.31h1.08a5.77,5.77,0,0,1,5.77,5.77v26.35a0,0,0,0,1,0,0H605.45a0,0,0,0,1,0,0V187.08A5.77,5.77,0,0,1,611.22,181.31Z" style="fill:#455a64"></path><path d="M611.82,213c-.15,0-.26-7.19-.26-16.06s.11-16.06.26-16.06.26,7.19.26,16.06S612,213,611.82,213Z" style="fill:#263238"></path><path d="M618.05,190.92a76.21,76.21,0,0,1-12.58,0,76.21,76.21,0,0,1,12.58,0Z" style="fill:#263238"></path><path d="M618.05,201.44a76.21,76.21,0,0,1-12.58,0,76.21,76.21,0,0,1,12.58,0Z" style="fill:#263238"></path><rect x="453.69" y="108.72" width="135.56" height="4.77" style="fill:#e0e0e0"></rect><rect x="455.77" y="113.48" width="131.83" height="1.59" style="fill:#e0e0e0"></rect><path d="M589.25,108.72l-.71,0h-2.06l-7.88,0-29,.08-95.94.11.26-.26c0,1.5,0,3.13,0,4.76h0l-.27-.26c65.55,0,120.59.09,135.56.2l-.07.06c0-1.61,0-2.79,0-3.59s0-1.17,0-1.17,0,.36,0,1.14,0,2,0,3.62v.07h-.06c-15,.11-70,.2-135.56.2h-.26v-.27h0v-5h.26l96.13.1,28.91.08,7.82,0,2,0Z" style="fill:#263238"></path><path d="M455.77,113.48a2.12,2.12,0,0,1,0,.4c0,.29,0,.69,0,1.2l-.06-.06c6.52-.11,33.58-.2,66-.2s59.45.09,66,.2l-.06.06c0-.51,0-.9,0-1.2a2.09,2.09,0,0,1,0-.4,2.23,2.23,0,0,1,.06.4c0,.29.06.68.1,1.19v.06h-.06c-6.52.12-33.58.21-66,.21s-59.45-.09-66-.21h-.06v0c0-.51,0-.91,0-1.2A2.12,2.12,0,0,1,455.77,113.48Z" style="fill:#263238"></path><polygon points="589.25 108.72 453.69 108.72 456.33 96.63 587.04 96.63 589.25 108.72" style="fill:#FF725E"></polygon><polygon points="281.68 67.74 277.23 63.22 371.31 16.9 466.68 63.7 462 67.74 371.23 25.03 281.68 67.74" style="fill:#FF725E"></polygon><polygon points="282.36 67.74 462 67.74 371.23 25.03 282.36 67.74" style="opacity:0.2"></polygon><circle cx="370.78" cy="48.62" r="13.11" style="fill:#e0e0e0"></circle><rect x="157.28" y="108.72" width="135.55" height="4.77" transform="translate(450.11 222.2) rotate(180)" style="fill:#e0e0e0"></rect><rect x="158.92" y="113.48" width="131.83" height="1.59" transform="translate(449.68 228.56) rotate(180)" style="fill:#e0e0e0"></rect><path d="M157.28,108.72l.67,0,2,0,7.82,0,28.9-.08,96.13-.1h.26v5h0v.27h-.26c-65.55,0-120.59-.09-135.55-.2h-.07v-.07c0-1.63,0-2.82,0-3.62s0-1.14,0-1.14,0,.39,0,1.17,0,2,0,3.59l-.06-.06c15-.11,70-.2,135.55-.2l-.26.26h0v-4.76l.26.26-95.93-.11-29-.08-7.88,0H158Z" style="fill:#263238"></path><path d="M290.75,113.48a2.12,2.12,0,0,1,0,.4q0,.44,0,1.2v0h-.06c-6.51.12-33.58.21-66,.21s-59.45-.09-66-.21h-.06v-.06l.11-1.19a1.87,1.87,0,0,1,0-.4,2.09,2.09,0,0,1,0,.4c0,.3,0,.69,0,1.2l-.05-.06c6.52-.11,33.58-.2,66-.2s59.45.09,66,.2l-.05.06q0-.77,0-1.2A3.15,3.15,0,0,1,290.75,113.48Z" style="fill:#263238"></path><polygon points="157.28 108.72 292.83 108.72 290.19 96.63 159.48 96.63 157.28 108.72" style="fill:#FF725E"></polygon></g></svg>
